<?xml version="1.0" encoding="UTF-8"?>
<svg xmlns="http://www.w3.org/2000/svg" xmlns:xlink="http://www.w3.org/1999/xlink" version="1.2" >
<font id="VolvoBroadSmallWeb">
<font-face  font-family="Volvo Broad Small Web" units-per-em="1000" ascent="750" descent="-250" font-style="normal" font-weight="500" font-stretch="normal" cap-height="706" x-height="706" underline-position="-75" underline-thickness="50" />
<missing-glyph  horiz-adv-x="500" d="M12 950 L487 950 L487 -250 L12 -250 L12 950 Z " />
<glyph glyph-name=".null" d="" />
<glyph glyph-name="nonmarkingreturn" unicode="&#xd;" horiz-adv-x="200" d="" />
<glyph glyph-name="space" unicode="&#x20;" horiz-adv-x="200" d="" />
<glyph glyph-name="A" unicode="A" horiz-adv-x="378" d="M90 665 Q93 688 102.5 697 Q112 706 134 706 L241 706 Q260 706 269.5 696.5 Q279 687 282 664 L372 21 Q375 0 356 0 L280 0 Q272 0 268 4 Q264 8 262 19 L240 175 Q238 186 234.5 189 Q231 192 222 192 L153 192 Q145 192 141 189 Q137 186 135 175 L117 17 Q115 6 111.5 3 Q108 0 97 0 L24 0 Q3 0 6 21 L90 665 Z M208 302 Q225 302 223 315 L195 572 Q194 588 187 588 Q179 588 178 571 L152 315 Q152 302 166 302 L208 302 Z " />
<glyph glyph-name="B" unicode="B" horiz-adv-x="374" d="M30 660 Q30 686 37 696 Q44 706 63 706 L236 706 Q270 706 291.5 692 Q313 678 325.5 654 Q338 630 343 597.5 Q348 565 348 528 Q348 461 334.5 424 Q321 387 290 368 Q323 355 340 310 Q357 265 357 190 Q357 149 350.5 114.5 Q344 80 330 54.5 Q316 29 293 14.5 Q270 0 236 0 L63 0 Q43 0 36.5 9.5 Q30 19 30 47 L30 660 Z M191 416 Q220 416 229 439.5 Q238 463 238 507 Q238 557 225 577 Q212 597 191 597 L160 597 Q149 597 145.5 593 Q142 589 142 576 L142 438 Q142 426 145.5 421 Q149 416 160 416 L191 416 Z M191 109 Q223 109 234 133.5 Q245 158 245 210 Q245 267 231 290.5 Q217 314 191 314 L160 314 Q149 314 145.5 309.5 Q142 305 142 292 L142 130 Q142 119 145.5 114 Q149 109 160 109 L191 109 Z " />
<glyph glyph-name="C" unicode="C" horiz-adv-x="299" d="M146 0 Q106 0 81 13.5 Q56 27 42.5 64.5 Q29 102 24 168.5 Q19 235 19 340 Q19 445 21.5 515.5 Q24 586 36 628.5 Q48 671 72.5 688.5 Q97 706 141 706 L261 706 Q279 706 286.5 697.5 Q294 689 294 669 L294 634 Q294 609 287 601.5 Q280 594 259 594 L180 594 Q163 594 153.5 587.5 Q144 581 139 556 Q134 531 132.5 483 Q131 435 131 351 Q131 268 132.5 220.5 Q134 173 139 149 Q144 125 153.5 118.5 Q163 112 178 112 L259 112 Q278 112 285.5 104 Q293 96 293 76 L293 38 Q293 17 285.5 8.5 Q278 0 261 0 L146 0 Z " />
<glyph glyph-name="D" unicode="D" horiz-adv-x="370" d="M30 658 Q30 684 37 695 Q44 706 63 706 L221 706 Q265 706 291 687.5 Q317 669 330.5 627 Q344 585 347.5 517.5 Q351 450 351 353 Q351 238 345.5 168.5 Q340 99 325 61.5 Q310 24 283.5 12 Q257 0 215 0 L67 0 Q44 0 37 8 Q30 16 30 45 L30 658 Z M142 140 Q142 120 148.5 116 Q155 112 179 112 Q198 112 210 118 Q222 124 228.5 147.5 Q235 171 237 217 Q239 263 239 343 Q239 431 237.5 481.5 Q236 532 229.5 557 Q223 582 210.5 588 Q198 594 176 594 Q156 594 149 589 Q142 584 142 562 L142 140 Z " />
<glyph glyph-name="E" unicode="E" horiz-adv-x="315" d="M30 659 Q30 685 37.5 695.5 Q45 706 65 706 L265 706 Q285 706 292 698 Q299 690 299 664 L299 638 Q299 612 292 603 Q285 594 265 594 L161 594 Q149 594 145.5 589.5 Q142 585 142 571 L142 453 Q142 438 144.5 434.5 Q147 431 161 431 L214 431 Q231 431 238 424 Q245 417 245 395 L245 354 Q245 334 238 326.5 Q231 319 214 319 L161 319 Q150 319 146 316 Q142 313 142 303 L142 135 Q142 122 146 117 Q150 112 164 112 L269 112 Q291 112 299 102 Q307 92 307 66 L307 45 Q307 21 299 10.5 Q291 0 271 0 L65 0 Q44 0 37 9.5 Q30 19 30 47 L30 659 Z " />
<glyph glyph-name="F" unicode="F" horiz-adv-x="296" d="M30 657 Q30 686 37 696 Q44 706 64 706 L253 706 Q274 706 282 696 Q290 686 290 660 L290 636 Q290 612 283 603 Q276 594 258 594 L161 594 Q148 594 145 589 Q142 584 142 565 L142 450 Q142 439 145 435 Q148 431 156 431 L214 431 Q234 431 240 422.5 Q246 414 246 389 L246 365 Q246 339 239.5 329 Q233 319 213 319 L161 319 Q148 319 145 314 Q142 309 142 292 L142 44 Q142 19 135.5 9.5 Q129 0 112 0 L63 0 Q43 0 36.5 9 Q30 18 30 44 L30 657 Z " />
<glyph glyph-name="G" unicode="G" horiz-adv-x="369" d="M247 298 Q247 314 241.5 319.5 Q236 325 228 325 L203 325 Q189 325 186.5 333.5 Q184 342 184 358 L184 394 Q184 417 190.5 427 Q197 437 223 437 L318 437 Q338 437 344.5 425.5 Q351 414 351 390 L351 202 Q351 157 344.5 119 Q338 81 320 53 Q302 25 271 9 Q240 -7 191 -7 Q127 -7 92 15 Q57 37 41 81.5 Q25 126 22.5 193 Q20 260 20 350 Q20 437 22 503.5 Q24 570 35 615 Q46 660 69 683 Q92 706 135 706 L278 706 Q298 706 306 698 Q314 690 314 661 L314 640 Q314 614 307.5 604 Q301 594 282 594 L195 594 Q174 594 162 590 Q150 586 143 562.5 Q136 539 134 489 Q132 439 132 347 L132 179 Q132 139 149 123 Q166 107 192 107 Q217 107 232 125 Q247 143 247 181 L247 298 Z " />
<glyph glyph-name="H" unicode="H" horiz-adv-x="392" d="M30 660 Q30 686 37.5 696 Q45 706 64 706 L111 706 Q128 706 135 695 Q142 684 142 661 L142 450 Q142 437 146 433.5 Q150 430 158 430 L234 430 Q242 430 246 433.5 Q250 437 250 450 L250 661 Q250 684 257 695 Q264 706 281 706 L328 706 Q347 706 354.5 696 Q362 686 362 660 L362 47 Q362 20 355 10 Q348 0 328 0 L282 0 Q262 0 256 11 Q250 22 250 45 L250 297 Q250 310 246.5 314.5 Q243 319 233 319 L159 319 Q148 319 145 314.5 Q142 310 142 297 L142 45 Q142 22 136 11 Q130 0 109 0 L64 0 Q44 0 37 10 Q30 20 30 47 L30 660 Z " />
<glyph glyph-name="I" unicode="I" horiz-adv-x="172" d="M30 658 Q30 686 37 696 Q44 706 64 706 L110 706 Q128 706 135 695.5 Q142 685 142 658 L142 44 Q142 15 134.5 7.5 Q127 0 107 0 L67 0 Q44 0 37 9 Q30 18 30 47 L30 658 Z " />
<glyph glyph-name="J" unicode="J" horiz-adv-x="243" d="M5 71 Q5 99 12.5 106 Q20 113 39 113 L61 113 Q87 113 97 121.5 Q107 130 107 159 L107 661 Q107 688 114 697 Q121 706 143 706 L183 706 Q206 706 212.5 697 Q219 688 219 662 L219 177 Q219 143 214 113.5 Q209 84 195 58 Q178 28 152 14 Q126 0 80 0 L42 0 Q19 0 12 8 Q5 16 5 43 L5 71 Z " />
<glyph glyph-name="K" unicode="K" horiz-adv-x="383" d="M30 658 Q30 686 37 696 Q44 706 64 706 L110 706 Q128 706 135 695.5 Q142 685 142 658 L142 484 Q142 480 143 476.5 Q144 473 148 473 Q152 473 158 484 L246 665 Q256 687 262.5 696.5 Q269 706 286 706 L365 706 Q378 706 378 693 Q378 690 377 685.5 Q376 681 371 673 L270 474 Q268 469 265.5 463.5 Q263 458 263 453 Q263 447 263.5 442.5 Q264 438 266 432 L373 32 Q379 11 374.5 5.5 Q370 0 356 0 L282 0 Q268 0 262.5 6 Q257 12 252 31 L193 297 Q190 310 187.5 316 Q185 322 180 322 Q174 322 169 313.5 Q164 305 152 278 Q142 254 142 216 L142 44 Q142 15 134.5 7.5 Q127 0 107 0 L67 0 Q44 0 37 9 Q30 18 30 47 L30 658 Z " />
<glyph glyph-name="L" unicode="L" horiz-adv-x="286" d="M30 660 Q30 685 37.5 695.5 Q45 706 64 706 L108 706 Q129 706 135.5 696 Q142 686 142 660 L142 134 Q142 121 146.5 116.5 Q151 112 159 112 L245 112 Q265 112 273 102.5 Q281 93 281 67 L281 45 Q281 21 271.5 10.5 Q262 0 242 0 L64 0 Q43 0 36.5 9 Q30 18 30 47 L30 660 Z " />
<glyph glyph-name="M" unicode="M" horiz-adv-x="485" d="M30 662 Q30 688 36.5 697 Q43 706 63 706 L110 706 Q135 706 143 701 Q151 696 157 673 L234 397 Q237 387 243 387 Q248 387 251 397 L328 673 Q334 696 342 701 Q350 706 375 706 L421 706 Q441 706 448 697 Q455 688 455 662 L455 45 Q455 16 448.5 8 Q442 0 420 0 L377 0 Q356 0 349.5 9.5 Q343 19 343 44 L343 344 Q343 355 342 362 Q341 369 336 369 Q330 369 326.5 359 Q323 349 320 335 L276 134 Q271 114 263 108 Q255 102 243 102 Q230 102 222 108 Q214 114 209 134 L165 334 Q161 351 158.5 360 Q156 369 149 369 Q144 369 143 362 Q142 355 142 344 L142 44 Q142 19 135.5 9.5 Q129 0 108 0 L64 0 Q42 0 36 8 Q30 16 30 45 L30 662 Z " />
<glyph glyph-name="N" unicode="N" horiz-adv-x="403" d="M30 659 Q30 687 37 696.5 Q44 706 67 706 L94 706 Q113 706 120 700.5 Q127 695 135 673 L239 379 Q245 362 248 358.5 Q251 355 255 355 Q258 355 259.5 359 Q261 363 261 375 L261 659 Q261 684 268 695 Q275 706 294 706 L335 706 Q352 706 362.5 697.5 Q373 689 373 658 L373 48 Q373 20 366 10 Q359 0 336 0 L309 0 Q290 0 283 5 Q276 10 268 33 L163 330 Q158 345 155 348.5 Q152 352 149 352 Q145 352 143.5 348 Q142 344 142 332 L142 47 Q142 22 135.5 11 Q129 0 110 0 L68 0 Q50 0 40 8 Q30 16 30 48 L30 659 Z " />
<glyph glyph-name="O" unicode="O" horiz-adv-x="361" d="M180 -10 Q120 -10 87 16 Q54 42 39 89.5 Q24 137 21.5 204 Q19 271 19 354 Q19 437 21.5 503.5 Q24 570 39 616.5 Q54 663 87 688 Q120 713 180 713 Q240 713 273 688 Q306 663 321.5 616.5 Q337 570 339.5 503.5 Q342 437 342 354 Q342 271 339.5 204 Q337 137 321.5 89.5 Q306 42 273 16 Q240 -10 180 -10 Z M180 113 Q196 113 206 121.5 Q216 130 221 156 Q226 182 228 229.5 Q230 277 230 354 Q230 429 228 475.5 Q226 522 221 548 Q216 574 206 583 Q196 592 180 592 Q164 592 154.5 583 Q145 574 139.5 548 Q134 522 132.5 475.5 Q131 429 131 354 Q131 277 132.5 229.5 Q134 182 139.5 156 Q145 130 154.5 121.5 Q164 113 180 113 Z " />
<glyph glyph-name="P" unicode="P" horiz-adv-x="354" d="M30 657 Q30 684 37 695 Q44 706 63 706 L209 706 Q280 706 312.5 649 Q345 592 345 480 Q345 374 316.5 318 Q288 262 226 262 L142 262 L142 45 Q142 17 135.5 8.5 Q129 0 108 0 L63 0 Q42 0 36 8 Q30 16 30 45 L30 657 Z M192 374 Q214 374 223 396.5 Q232 419 232 481 Q232 546 223 570 Q214 594 192 594 L159 594 Q151 594 146.5 591 Q142 588 142 575 L142 392 Q142 381 146 377.5 Q150 374 158 374 L192 374 Z " />
<glyph glyph-name="Q" unicode="Q" horiz-adv-x="361" d="M180 -10 Q120 -10 87 16 Q54 42 39 89.5 Q24 137 21.5 204 Q19 271 19 354 Q19 437 21.5 503.5 Q24 570 39 616.5 Q54 663 87 688 Q120 713 180 713 Q240 713 273 688 Q306 663 321.5 616.5 Q337 570 339.5 503.5 Q342 437 342 354 Q342 247 336 167 Q330 87 298 41 L353 -19 Q364 -30 363 -38 Q362 -46 348 -53 L295 -77 Q282 -83 274 -79.5 Q266 -76 254 -61 L213 -7 Q198 -10 180 -10 Z M180 113 Q196 113 206 121.5 Q216 130 221 156 Q226 182 228 229.5 Q230 277 230 354 Q230 429 228 475.5 Q226 522 221 548 Q216 574 206 583 Q196 592 180 592 Q164 592 154.5 583 Q145 574 139.5 548 Q134 522 132.5 475.5 Q131 429 131 354 Q131 277 132.5 229.5 Q134 182 139.5 156 Q145 130 154.5 121.5 Q164 113 180 113 Z " />
<glyph glyph-name="R" unicode="R" horiz-adv-x="356" d="M151 302 Q142 302 142 292 L142 45 Q142 17 135.5 8.5 Q129 0 108 0 L63 0 Q42 0 36 8 Q30 16 30 45 L30 657 Q30 684 37 695 Q44 706 63 706 L195 706 Q265 706 305 658.5 Q345 611 345 500 Q345 426 328 387 Q311 348 282 326 L347 29 Q348 24 348.5 20.5 Q349 17 349 15 Q349 0 330 0 L259 0 Q245 0 240 5.5 Q235 11 231 31 L179 291 Q177 299 174 300.5 Q171 302 164 302 L151 302 Z M185 414 Q196 414 204.5 416.5 Q213 419 219 428 Q225 437 228.5 454.5 Q232 472 232 501 Q232 531 228.5 549.5 Q225 568 219 578 Q213 588 204.5 591 Q196 594 185 594 L159 594 Q151 594 146.5 591 Q142 588 142 575 L142 432 Q142 421 146 417.5 Q150 414 158 414 L185 414 Z " />
<glyph glyph-name="S" unicode="S" horiz-adv-x="317" d="M14 67 Q14 95 21 103.5 Q28 112 48 112 L157 112 Q180 112 186.5 131.5 Q193 151 179 177 L60 402 Q42 435 32 460.5 Q22 486 17 506.5 Q12 527 10.5 543 Q9 559 9 574 Q9 646 46 676 Q83 706 149 706 L251 706 Q281 706 281 668 L281 634 Q281 611 273 602.5 Q265 594 248 594 L154 594 Q128 594 120.5 572.5 Q113 551 131 518 L244 310 Q265 271 278 243.5 Q291 216 298 194.5 Q305 173 307.5 155 Q310 137 310 117 Q310 85 299.5 63 Q289 41 271.5 27 Q254 13 230.5 6.5 Q207 0 182 0 L49 0 Q29 0 21.5 8.5 Q14 17 14 43 L14 67 Z " />
<glyph glyph-name="T" unicode="T" horiz-adv-x="327" d="M107 573 Q107 587 103 590.5 Q99 594 93 594 L38 594 Q19 594 12.5 602 Q6 610 6 636 L6 659 Q6 687 13.5 696.5 Q21 706 41 706 L286 706 Q306 706 313 696.5 Q320 687 320 663 L320 637 Q320 611 313.5 602.5 Q307 594 287 594 L232 594 Q224 594 221.5 590 Q219 586 219 573 L219 47 Q219 19 212 9.5 Q205 0 185 0 L143 0 Q121 0 114 9 Q107 18 107 43 L107 573 Z " />
<glyph glyph-name="U" unicode="U" horiz-adv-x="371" d="M24 659 Q24 686 32 696 Q40 706 61 706 L104 706 Q124 706 130 697 Q136 688 136 662 L136 172 Q136 143 148.5 126.5 Q161 110 187 110 Q210 110 222.5 126.5 Q235 143 235 173 L235 662 Q235 688 241.5 697 Q248 706 269 706 L314 706 Q335 706 341 697 Q347 688 347 662 L347 198 Q347 155 342 117 Q337 79 320 51 Q303 23 270.5 6.5 Q238 -10 183 -10 Q132 -10 101 3.5 Q70 17 53 43 Q36 69 30 106.5 Q24 144 24 193 L24 659 Z " />
<glyph glyph-name="V" unicode="V" horiz-adv-x="373" d="M7 676 Q5 692 8.5 699 Q12 706 26 706 L91 706 Q104 706 110 700.5 Q116 695 119 672 L177 246 Q178 230 187 230 Q195 230 196 246 L254 672 Q257 695 263 700.5 Q269 706 282 706 L347 706 Q361 706 364.5 698.5 Q368 691 366 675 L261 29 Q258 12 252.5 6 Q247 0 233 0 L141 0 Q127 0 121.5 6 Q116 12 113 29 L7 676 Z " />
<glyph glyph-name="W" unicode="W" horiz-adv-x="576" d="M8 667 Q6 681 7.5 689 Q9 697 12.5 700.5 Q16 704 22 705 Q28 706 35 706 L93 706 Q106 706 110.5 699.5 Q115 693 118 675 L176 299 Q179 285 185 285 Q190 285 194 299 L245 534 L231 668 Q229 682 232.5 694 Q236 706 257 706 L319 706 Q333 706 338 699 Q343 692 345 675 L391 300 Q392 285 399 285 Q406 285 408 300 L458 678 Q461 706 482 706 L546 706 Q561 706 566.5 698.5 Q572 691 568 668 L456 31 Q453 14 446.5 7 Q440 0 426 0 L360 0 Q343 0 337.5 6 Q332 12 330 32 L294 298 Q293 302 292.5 306 Q292 310 289 310 Q286 310 284.5 306.5 Q283 303 282 299 L217 21 Q215 10 209 5 Q203 0 189 0 L136 0 Q122 0 117 5 Q112 10 110 26 L8 667 Z " />
<glyph glyph-name="X" unicode="X" horiz-adv-x="354" d="M77 366 L9 668 Q1 706 30 706 L95 706 Q116 706 122 677 L168 448 Q171 434 177 434 Q182 434 185 448 L231 677 Q237 706 259 706 L323 706 Q353 706 345 668 L276 366 L345 39 Q350 19 346.5 9.5 Q343 0 328 0 L261 0 Q237 0 233 26 L186 275 Q183 288 177 288 Q170 288 167 275 L121 26 Q117 0 93 0 L26 0 Q11 0 7.5 9.5 Q4 19 9 39 L77 366 Z " />
<glyph glyph-name="Y" unicode="Y" horiz-adv-x="356" d="M122 261 L5 669 Q1 682 4 694 Q7 706 24 706 L84 706 Q95 706 101 701.5 Q107 697 112 680 L170 443 Q172 435 173.5 433 Q175 431 178 431 Q181 431 182.5 433 Q184 435 186 443 L244 680 Q249 697 255 701.5 Q261 706 272 706 L332 706 Q349 706 352 694 Q355 682 351 669 L234 261 L234 45 Q234 17 227.5 8.5 Q221 0 199 0 L156 0 Q135 0 128.5 8.5 Q122 17 122 45 L122 261 Z " />
<glyph glyph-name="Z" unicode="Z" horiz-adv-x="321" d="M9 109 Q9 115 9.5 121 Q10 127 11.5 135 Q13 143 17 154 Q21 165 28 182 L198 575 Q201 583 199.5 588.5 Q198 594 189 594 L54 594 Q42 594 35.5 595.5 Q29 597 25 601.5 Q21 606 20 614.5 Q19 623 19 637 L19 661 Q19 688 25 697 Q31 706 53 706 L279 706 Q311 706 311 664 L311 591 Q311 581 307.5 567 Q304 553 296 534 L124 137 Q119 128 121 120 Q123 112 134 112 L278 112 Q298 112 305 103 Q312 94 312 66 L312 43 Q312 18 304 9 Q296 0 273 0 L43 0 Q23 0 16 8 Q9 16 9 42 L9 109 Z " />
<glyph glyph-name="Agrave" unicode="&#xc0;" horiz-adv-x="378" d="M90 665 Q93 688 102.5 697 Q112 706 134 706 L241 706 Q260 706 269.5 696.5 Q279 687 282 664 L372 21 Q375 0 356 0 L280 0 Q272 0 268 4 Q264 8 262 19 L240 175 Q238 186 234.5 189 Q231 192 222 192 L153 192 Q145 192 141 189 Q137 186 135 175 L117 17 Q115 6 111.5 3 Q108 0 97 0 L24 0 Q3 0 6 21 L90 665 Z M208 302 Q225 302 223 315 L195 572 Q194 588 187 588 Q179 588 178 571 L152 315 Q152 302 166 302 L208 302 Z M83 804 Q72 813 72 821 Q72 835 87 835 L168 835 Q176 835 180 832 Q184 829 192 818 L239 755 Q244 749 244 742 Q244 732 233 732 L179 732 Q170 732 166.5 734.5 Q163 737 156 742 L83 804 Z " />
<glyph glyph-name="Aacute" unicode="&#xc1;" horiz-adv-x="378" d="M90 665 Q93 688 102.5 697 Q112 706 134 706 L241 706 Q260 706 269.5 696.5 Q279 687 282 664 L372 21 Q375 0 356 0 L280 0 Q272 0 268 4 Q264 8 262 19 L240 175 Q238 186 234.5 189 Q231 192 222 192 L153 192 Q145 192 141 189 Q137 186 135 175 L117 17 Q115 6 111.5 3 Q108 0 97 0 L24 0 Q3 0 6 21 L90 665 Z M208 302 Q225 302 223 315 L195 572 Q194 588 187 588 Q179 588 178 571 L152 315 Q152 302 166 302 L208 302 Z M185 819 Q193 830 196.5 832.5 Q200 835 208 835 L289 835 Q304 835 304 821 Q304 812 293 804 L220 742 Q213 737 210 734.5 Q207 732 197 732 L143 732 Q132 732 132 742 Q132 749 137 755 L185 819 Z " />
<glyph glyph-name="Acircumflex" unicode="&#xc2;" horiz-adv-x="378" d="M90 665 Q93 688 102.5 697 Q112 706 134 706 L241 706 Q260 706 269.5 696.5 Q279 687 282 664 L372 21 Q375 0 356 0 L280 0 Q272 0 268 4 Q264 8 262 19 L240 175 Q238 186 234.5 189 Q231 192 222 192 L153 192 Q145 192 141 189 Q137 186 135 175 L117 17 Q115 6 111.5 3 Q108 0 97 0 L24 0 Q3 0 6 21 L90 665 Z M208 302 Q225 302 223 315 L195 572 Q194 588 187 588 Q179 588 178 571 L152 315 Q152 302 166 302 L208 302 Z M111 818 Q116 828 121.5 831.5 Q127 835 140 835 L241 835 Q254 835 259 831.5 Q264 828 269 818 L306 749 Q307 747 308 744.5 Q309 742 309 740 Q309 732 299 732 L253 732 Q245 732 240 733.5 Q235 735 229 743 L190 794 L152 743 Q146 735 140.5 733.5 Q135 732 128 732 L82 732 Q72 732 72 740 Q72 743 74 749 L111 818 Z " />
<glyph glyph-name="Atilde" unicode="&#xc3;" horiz-adv-x="378" d="M90 665 Q93 688 102.5 697 Q112 706 134 706 L241 706 Q260 706 269.5 696.5 Q279 687 282 664 L372 21 Q375 0 356 0 L280 0 Q272 0 268 4 Q264 8 262 19 L240 175 Q238 186 234.5 189 Q231 192 222 192 L153 192 Q145 192 141 189 Q137 186 135 175 L117 17 Q115 6 111.5 3 Q108 0 97 0 L24 0 Q3 0 6 21 L90 665 Z M208 302 Q225 302 223 315 L195 572 Q194 588 187 588 Q179 588 178 571 L152 315 Q152 302 166 302 L208 302 Z M65 802 Q65 815 70.5 823.5 Q76 832 92 832 L129 832 Q134 832 138.5 831 Q143 830 147 829 L222 806 Q229 803 235 803 Q239 803 239 810 L239 815 Q239 823 244.5 827.5 Q250 832 256 832 L277 832 Q294 832 299 825.5 Q304 819 304 804 L304 767 Q304 754 299 745.5 Q294 737 277 737 L240 737 Q235 737 230.5 738 Q226 739 222 740 L147 763 Q139 766 134 766 Q130 766 130 759 L130 754 Q130 746 125 741.5 Q120 737 113 737 L92 737 Q76 737 70.5 743.5 Q65 750 65 765 L65 802 Z " />
<glyph glyph-name="Adieresis" unicode="&#xc4;" horiz-adv-x="378" d="M90 665 Q93 688 102.5 697 Q112 706 134 706 L241 706 Q260 706 269.5 696.5 Q279 687 282 664 L372 21 Q375 0 356 0 L280 0 Q272 0 268 4 Q264 8 262 19 L240 175 Q238 186 234.5 189 Q231 192 222 192 L153 192 Q145 192 141 189 Q137 186 135 175 L117 17 Q115 6 111.5 3 Q108 0 97 0 L24 0 Q3 0 6 21 L90 665 Z M208 302 Q225 302 223 315 L195 572 Q194 588 187 588 Q179 588 178 571 L152 315 Q152 302 166 302 L208 302 Z M209 803 Q209 821 215 828.5 Q221 836 241 836 L266 836 Q286 836 292.5 828.5 Q299 821 299 803 L299 769 Q299 751 292.5 743.5 Q286 736 266 736 L241 736 Q221 736 215 743.5 Q209 751 209 769 L209 803 Z M81 803 Q81 821 87 828.5 Q93 836 113 836 L138 836 Q158 836 164.5 828.5 Q171 821 171 803 L171 769 Q171 751 164.5 743.5 Q158 736 138 736 L113 736 Q93 736 87 743.5 Q81 751 81 769 L81 803 Z " />
<glyph glyph-name="Amacron" unicode="&#x100;" horiz-adv-x="378" d="M90 665 Q93 688 102.5 697 Q112 706 134 706 L241 706 Q260 706 269.5 696.5 Q279 687 282 664 L372 21 Q375 0 356 0 L280 0 Q272 0 268 4 Q264 8 262 19 L240 175 Q238 186 234.5 189 Q231 192 222 192 L153 192 Q145 192 141 189 Q137 186 135 175 L117 17 Q115 6 111.5 3 Q108 0 97 0 L24 0 Q3 0 6 21 L90 665 Z M208 302 Q225 302 223 315 L195 572 Q194 588 187 588 Q179 588 178 571 L152 315 Q152 302 166 302 L208 302 Z M76 788 Q76 811 87 816 Q98 821 124 821 L255 821 Q281 821 291.5 816 Q302 811 302 788 L302 772 Q302 749 291.5 744 Q281 739 255 739 L124 739 Q98 739 87 744 Q76 749 76 772 L76 788 Z " />
<glyph glyph-name="Abreve" unicode="&#x102;" horiz-adv-x="378" d="M90 665 Q93 688 102.5 697 Q112 706 134 706 L241 706 Q260 706 269.5 696.5 Q279 687 282 664 L372 21 Q375 0 356 0 L280 0 Q272 0 268 4 Q264 8 262 19 L240 175 Q238 186 234.5 189 Q231 192 222 192 L153 192 Q145 192 141 189 Q137 186 135 175 L117 17 Q115 6 111.5 3 Q108 0 97 0 L24 0 Q3 0 6 21 L90 665 Z M208 302 Q225 302 223 315 L195 572 Q194 588 187 588 Q179 588 178 571 L152 315 Q152 302 166 302 L208 302 Z M98 850 Q105 850 107.5 846 Q110 842 112 836 Q114 829 117.5 823.5 Q121 818 129.5 813.5 Q138 809 152.5 806.5 Q167 804 190 804 Q212 804 226 806.5 Q240 809 248.5 813.5 Q257 818 260.5 823.5 Q264 829 266 836 Q269 850 279 850 L308 850 Q314 850 317 845.5 Q320 841 320 836 Q320 819 314 800.5 Q308 782 293.5 767 Q279 752 254 742.5 Q229 733 190 733 Q151 733 125.5 742.5 Q100 752 85 767 Q70 782 64 800.5 Q58 819 58 836 Q58 841 61 845.5 Q64 850 70 850 L98 850 Z " />
<glyph glyph-name="Aring" unicode="&#xc5;" horiz-adv-x="378" d="M90 665 Q94 698 114 703 Q101 726 101 752 Q101 792 125 817.5 Q149 843 186 843 Q222 843 245.5 817.5 Q269 792 269 751 Q269 723 257 704 Q278 697 282 664 L372 21 Q375 0 356 0 L280 0 Q272 0 268 4 Q264 8 262 19 L240 175 Q238 186 234.5 189 Q231 192 222 192 L153 192 Q145 192 141 189 Q137 186 135 175 L117 17 Q115 6 111.5 3 Q108 0 97 0 L24 0 Q3 0 6 21 L90 665 Z M208 302 Q225 302 223 315 L195 572 Q194 588 187 588 Q179 588 178 571 L152 315 Q152 302 166 302 L208 302 Z M185 708 Q202 708 213 721 Q224 734 224 751 Q224 769 213 782.5 Q202 796 185 796 Q167 796 156.5 783 Q146 770 146 752 Q146 734 156.5 721 Q167 708 185 708 Z " />
<glyph glyph-name="Aogonek" unicode="&#x104;" horiz-adv-x="378" d="M380 -111 Q380 -138 373.5 -146.5 Q367 -155 343 -155 L291 -155 Q262 -155 243.5 -137 Q225 -119 225 -93 Q225 -64 243.5 -40.5 Q262 -17 294 0 L280 0 Q272 0 268 4 Q264 8 262 19 L240 175 Q238 186 234.5 189 Q231 192 222 192 L153 192 Q145 192 141 189 Q137 186 135 175 L117 17 Q115 6 111.5 3 Q108 0 97 0 L24 0 Q3 0 6 21 L90 665 Q93 688 102.5 697 Q112 706 134 706 L241 706 Q260 706 269.5 696.5 Q279 687 282 664 L372 21 Q374 10 369 5.5 Q364 1 356 -3 Q329 -17 316.5 -30.5 Q304 -44 304 -56 Q304 -73 325 -73 L339 -73 Q364 -73 372 -80 Q380 -87 380 -106 L380 -111 Z M208 302 Q225 302 223 315 L195 572 Q194 588 187 588 Q179 588 178 571 L152 315 Q152 302 166 302 L208 302 Z " />
<glyph glyph-name="AE" unicode="&#xc6;" horiz-adv-x="525" d="M135 665 Q140 688 150.5 697 Q161 706 183 706 L475 706 Q495 706 502 698 Q509 690 509 664 L509 638 Q509 612 502 603 Q495 594 475 594 L371 594 Q359 594 355.5 589.5 Q352 585 352 571 L352 453 Q352 438 354.5 434.5 Q357 431 371 431 L424 431 Q442 431 448.5 424 Q455 417 455 395 L455 354 Q455 334 448 326.5 Q441 319 424 319 L371 319 Q360 319 356 316 Q352 313 352 303 L352 135 Q352 122 356 117 Q360 112 375 112 L479 112 Q501 112 509 102 Q517 92 517 66 L517 45 Q517 21 509 10.5 Q501 0 481 0 L255 0 Q247 0 243.5 4 Q240 8 240 19 L240 175 Q240 186 236 189 Q232 192 224 192 L175 192 Q167 192 162.5 189 Q158 186 156 175 L123 17 Q121 6 116.5 3 Q112 0 101 0 L21 0 Q3 0 6 19 L135 665 Z M226 304 Q235 304 237.5 307.5 Q240 311 240 322 L240 578 Q240 594 233 594 Q226 594 223 577 L181 320 Q178 304 192 304 L226 304 Z " />
<glyph glyph-name="Cacute" unicode="&#x106;" horiz-adv-x="299" d="M146 0 Q106 0 81 13.5 Q56 27 42.5 64.5 Q29 102 24 168.5 Q19 235 19 340 Q19 445 21.5 515.5 Q24 586 36 628.5 Q48 671 72.5 688.5 Q97 706 141 706 L261 706 Q279 706 286.5 697.5 Q294 689 294 669 L294 634 Q294 609 287 601.5 Q280 594 259 594 L180 594 Q163 594 153.5 587.5 Q144 581 139 556 Q134 531 132.5 483 Q131 435 131 351 Q131 268 132.5 220.5 Q134 173 139 149 Q144 125 153.5 118.5 Q163 112 178 112 L259 112 Q278 112 285.5 104 Q293 96 293 76 L293 38 Q293 17 285.5 8.5 Q278 0 261 0 L146 0 Z M167 819 Q175 830 178.5 832.5 Q182 835 190 835 L271 835 Q286 835 286 821 Q286 812 275 804 L202 742 Q195 737 192 734.5 Q189 732 179 732 L125 732 Q114 732 114 742 Q114 749 119 755 L167 819 Z " />
<glyph glyph-name="Ccaron" unicode="&#x10c;" horiz-adv-x="299" d="M146 0 Q106 0 81 13.5 Q56 27 42.5 64.5 Q29 102 24 168.5 Q19 235 19 340 Q19 445 21.5 515.5 Q24 586 36 628.5 Q48 671 72.5 688.5 Q97 706 141 706 L261 706 Q279 706 286.5 697.5 Q294 689 294 669 L294 634 Q294 609 287 601.5 Q280 594 259 594 L180 594 Q163 594 153.5 587.5 Q144 581 139 556 Q134 531 132.5 483 Q131 435 131 351 Q131 268 132.5 220.5 Q134 173 139 149 Q144 125 153.5 118.5 Q163 112 178 112 L259 112 Q278 112 285.5 104 Q293 96 293 76 L293 38 Q293 17 285.5 8.5 Q278 0 261 0 L146 0 Z M57 818 Q55 824 55 827 Q55 835 65 835 L111 835 Q118 835 123.5 833.5 Q129 832 135 824 L174 775 L211 824 Q217 832 222.5 833.5 Q228 835 236 835 L282 835 Q291 835 291 827 Q291 822 287 814 L252 748 Q247 738 242 735 Q237 732 224 732 L123 732 Q110 732 104.5 735 Q99 738 94 748 L57 818 Z " />
<glyph glyph-name="Ccedilla" unicode="&#xc7;" horiz-adv-x="299" d="M90 -90 Q90 -71 98 -64.5 Q106 -58 131 -58 L148 -58 Q169 -58 169 -37 Q169 -32 167.5 -23 Q166 -14 162 0 L146 0 Q106 0 81 13.5 Q56 27 42.5 64.5 Q29 102 24 168.5 Q19 235 19 340 Q19 445 21.5 515.5 Q24 586 36 628.5 Q48 671 72.5 688.5 Q97 706 141 706 L261 706 Q279 706 286.5 697.5 Q294 689 294 669 L294 634 Q294 609 287 601.5 Q280 594 259 594 L180 594 Q163 594 153.5 587.5 Q144 581 139 556 Q134 531 132.5 483 Q131 435 131 351 Q131 268 132.5 220.5 Q134 173 139 149 Q144 125 153.5 118.5 Q163 112 178 112 L259 112 Q278 112 285.5 104 Q293 96 293 76 L293 38 Q293 17 285.5 8.5 Q278 0 261 0 L211 0 Q216 -20 218 -32.5 Q220 -45 220 -58 Q220 -98 205.5 -121.5 Q191 -145 165 -145 L127 -145 Q103 -145 96.5 -137.5 Q90 -130 90 -103 L90 -90 Z " />
<glyph glyph-name="Dcaron" unicode="&#x10e;" horiz-adv-x="370" d="M30 658 Q30 684 37 695 Q44 706 63 706 L221 706 Q265 706 291 687.5 Q317 669 330.5 627 Q344 585 347.5 517.5 Q351 450 351 353 Q351 238 345.5 168.5 Q340 99 325 61.5 Q310 24 283.5 12 Q257 0 215 0 L67 0 Q44 0 37 8 Q30 16 30 45 L30 658 Z M142 140 Q142 120 148.5 116 Q155 112 179 112 Q198 112 210 118 Q222 124 228.5 147.5 Q235 171 237 217 Q239 263 239 343 Q239 431 237.5 481.5 Q236 532 229.5 557 Q223 582 210.5 588 Q198 594 176 594 Q156 594 149 589 Q142 584 142 562 L142 140 Z M70 818 Q68 824 68 827 Q68 835 78 835 L124 835 Q131 835 136.5 833.5 Q142 832 148 824 L187 775 L224 824 Q230 832 235.5 833.5 Q241 835 249 835 L295 835 Q304 835 304 827 Q304 822 300 814 L265 748 Q260 738 255 735 Q250 732 237 732 L136 732 Q123 732 117.5 735 Q112 738 107 748 L70 818 Z " />
<glyph glyph-name="Dcroat" unicode="&#x110;" horiz-adv-x="385" d="M45 329 Q21 329 10.5 334.5 Q0 340 0 362 L0 388 Q0 410 10.5 415.5 Q21 421 45 421 L45 658 Q45 684 52 695 Q59 706 78 706 L236 706 Q280 706 306 687.5 Q332 669 345.5 627 Q359 585 362.5 517.5 Q366 450 366 353 Q366 238 360.5 168.5 Q355 99 340 61.5 Q325 24 298.5 12 Q272 0 230 0 L82 0 Q59 0 52 8 Q45 16 45 45 L45 329 Z M157 421 L164 421 Q190 421 200.5 416 Q211 411 211 388 L211 362 Q211 339 200.5 334 Q190 329 164 329 L157 329 L157 140 Q157 120 163.5 116 Q170 112 194 112 Q213 112 225 118 Q237 124 243.5 147.5 Q250 171 252 217 Q254 263 254 343 Q254 431 252.5 481.5 Q251 532 244.5 557 Q238 582 225.5 588 Q213 594 191 594 Q171 594 164 589 Q157 584 157 562 L157 421 Z " />
<glyph glyph-name="Egrave" unicode="&#xc8;" horiz-adv-x="315" d="M30 659 Q30 685 37.5 695.5 Q45 706 65 706 L265 706 Q285 706 292 698 Q299 690 299 664 L299 638 Q299 612 292 603 Q285 594 265 594 L161 594 Q149 594 145.5 589.5 Q142 585 142 571 L142 453 Q142 438 144.5 434.5 Q147 431 161 431 L214 431 Q231 431 238 424 Q245 417 245 395 L245 354 Q245 334 238 326.5 Q231 319 214 319 L161 319 Q150 319 146 316 Q142 313 142 303 L142 135 Q142 122 146 117 Q150 112 164 112 L269 112 Q291 112 299 102 Q307 92 307 66 L307 45 Q307 21 299 10.5 Q291 0 271 0 L65 0 Q44 0 37 9.5 Q30 19 30 47 L30 659 Z M54 804 Q43 813 43 821 Q43 835 58 835 L139 835 Q147 835 151 832 Q155 829 163 818 L210 755 Q215 749 215 742 Q215 732 204 732 L150 732 Q141 732 137.5 734.5 Q134 737 127 742 L54 804 Z " />
<glyph glyph-name="Eacute" unicode="&#xc9;" horiz-adv-x="315" d="M30 659 Q30 685 37.5 695.5 Q45 706 65 706 L265 706 Q285 706 292 698 Q299 690 299 664 L299 638 Q299 612 292 603 Q285 594 265 594 L161 594 Q149 594 145.5 589.5 Q142 585 142 571 L142 453 Q142 438 144.5 434.5 Q147 431 161 431 L214 431 Q231 431 238 424 Q245 417 245 395 L245 354 Q245 334 238 326.5 Q231 319 214 319 L161 319 Q150 319 146 316 Q142 313 142 303 L142 135 Q142 122 146 117 Q150 112 164 112 L269 112 Q291 112 299 102 Q307 92 307 66 L307 45 Q307 21 299 10.5 Q291 0 271 0 L65 0 Q44 0 37 9.5 Q30 19 30 47 L30 659 Z M151 819 Q159 830 162.5 832.5 Q166 835 174 835 L255 835 Q270 835 270 821 Q270 812 259 804 L186 742 Q179 737 176 734.5 Q173 732 163 732 L109 732 Q98 732 98 742 Q98 749 103 755 L151 819 Z " />
<glyph glyph-name="Ecircumflex" unicode="&#xca;" horiz-adv-x="315" d="M30 659 Q30 685 37.5 695.5 Q45 706 65 706 L265 706 Q285 706 292 698 Q299 690 299 664 L299 638 Q299 612 292 603 Q285 594 265 594 L161 594 Q149 594 145.5 589.5 Q142 585 142 571 L142 453 Q142 438 144.5 434.5 Q147 431 161 431 L214 431 Q231 431 238 424 Q245 417 245 395 L245 354 Q245 334 238 326.5 Q231 319 214 319 L161 319 Q150 319 146 316 Q142 313 142 303 L142 135 Q142 122 146 117 Q150 112 164 112 L269 112 Q291 112 299 102 Q307 92 307 66 L307 45 Q307 21 299 10.5 Q291 0 271 0 L65 0 Q44 0 37 9.5 Q30 19 30 47 L30 659 Z M76 818 Q81 828 86.5 831.5 Q92 835 105 835 L206 835 Q219 835 224 831.5 Q229 828 234 818 L271 749 Q272 747 273 744.5 Q274 742 274 740 Q274 732 264 732 L218 732 Q210 732 205 733.5 Q200 735 194 743 L155 794 L117 743 Q111 735 105.5 733.5 Q100 732 93 732 L47 732 Q37 732 37 740 Q37 743 39 749 L76 818 Z " />
<glyph glyph-name="Ecaron" unicode="&#x11a;" horiz-adv-x="315" d="M30 659 Q30 685 37.5 695.5 Q45 706 65 706 L265 706 Q285 706 292 698 Q299 690 299 664 L299 638 Q299 612 292 603 Q285 594 265 594 L161 594 Q149 594 145.5 589.5 Q142 585 142 571 L142 453 Q142 438 144.5 434.5 Q147 431 161 431 L214 431 Q231 431 238 424 Q245 417 245 395 L245 354 Q245 334 238 326.5 Q231 319 214 319 L161 319 Q150 319 146 316 Q142 313 142 303 L142 135 Q142 122 146 117 Q150 112 164 112 L269 112 Q291 112 299 102 Q307 92 307 66 L307 45 Q307 21 299 10.5 Q291 0 271 0 L65 0 Q44 0 37 9.5 Q30 19 30 47 L30 659 Z M41 818 Q39 824 39 827 Q39 835 49 835 L95 835 Q102 835 107.5 833.5 Q113 832 119 824 L158 775 L195 824 Q201 832 206.5 833.5 Q212 835 220 835 L266 835 Q275 835 275 827 Q275 822 271 814 L236 748 Q231 738 226 735 Q221 732 208 732 L107 732 Q94 732 88.5 735 Q83 738 78 748 L41 818 Z " />
<glyph glyph-name="Edieresis" unicode="&#xcb;" horiz-adv-x="315" d="M30 659 Q30 685 37.5 695.5 Q45 706 65 706 L265 706 Q285 706 292 698 Q299 690 299 664 L299 638 Q299 612 292 603 Q285 594 265 594 L161 594 Q149 594 145.5 589.5 Q142 585 142 571 L142 453 Q142 438 144.5 434.5 Q147 431 161 431 L214 431 Q231 431 238 424 Q245 417 245 395 L245 354 Q245 334 238 326.5 Q231 319 214 319 L161 319 Q150 319 146 316 Q142 313 142 303 L142 135 Q142 122 146 117 Q150 112 164 112 L269 112 Q291 112 299 102 Q307 92 307 66 L307 45 Q307 21 299 10.5 Q291 0 271 0 L65 0 Q44 0 37 9.5 Q30 19 30 47 L30 659 Z M176 803 Q176 821 182 828.5 Q188 836 208 836 L233 836 Q253 836 259.5 828.5 Q266 821 266 803 L266 769 Q266 751 259.5 743.5 Q253 736 233 736 L208 736 Q188 736 182 743.5 Q176 751 176 769 L176 803 Z M48 803 Q48 821 54 828.5 Q60 836 80 836 L105 836 Q125 836 131.5 828.5 Q138 821 138 803 L138 769 Q138 751 131.5 743.5 Q125 736 105 736 L80 736 Q60 736 54 743.5 Q48 751 48 769 L48 803 Z " />
<glyph glyph-name="Emacron" unicode="&#x112;" horiz-adv-x="315" d="M30 659 Q30 685 37.5 695.5 Q45 706 65 706 L265 706 Q285 706 292 698 Q299 690 299 664 L299 638 Q299 612 292 603 Q285 594 265 594 L161 594 Q149 594 145.5 589.5 Q142 585 142 571 L142 453 Q142 438 144.5 434.5 Q147 431 161 431 L214 431 Q231 431 238 424 Q245 417 245 395 L245 354 Q245 334 238 326.5 Q231 319 214 319 L161 319 Q150 319 146 316 Q142 313 142 303 L142 135 Q142 122 146 117 Q150 112 164 112 L269 112 Q291 112 299 102 Q307 92 307 66 L307 45 Q307 21 299 10.5 Q291 0 271 0 L65 0 Q44 0 37 9.5 Q30 19 30 47 L30 659 Z M44 788 Q44 811 55 816 Q66 821 92 821 L223 821 Q249 821 259.5 816 Q270 811 270 788 L270 772 Q270 749 259.5 744 Q249 739 223 739 L92 739 Q66 739 55 744 Q44 749 44 772 L44 788 Z " />
<glyph glyph-name="Edotaccent" unicode="&#x116;" horiz-adv-x="315" d="M30 659 Q30 685 37.5 695.5 Q45 706 65 706 L265 706 Q285 706 292 698 Q299 690 299 664 L299 638 Q299 612 292 603 Q285 594 265 594 L161 594 Q149 594 145.5 589.5 Q142 585 142 571 L142 453 Q142 438 144.5 434.5 Q147 431 161 431 L214 431 Q231 431 238 424 Q245 417 245 395 L245 354 Q245 334 238 326.5 Q231 319 214 319 L161 319 Q150 319 146 316 Q142 313 142 303 L142 135 Q142 122 146 117 Q150 112 164 112 L269 112 Q291 112 299 102 Q307 92 307 66 L307 45 Q307 21 299 10.5 Q291 0 271 0 L65 0 Q44 0 37 9.5 Q30 19 30 47 L30 659 Z M115 802 Q115 820 121 827.5 Q127 835 147 835 L170 835 Q190 835 196.5 827.5 Q203 820 203 802 L203 770 Q203 752 196.5 744.5 Q190 737 170 737 L147 737 Q127 737 121 744.5 Q115 752 115 770 L115 802 Z " />
<glyph glyph-name="Eogonek" unicode="&#x118;" horiz-adv-x="315" d="M30 659 Q30 685 37.5 695.5 Q45 706 65 706 L265 706 Q285 706 292 698 Q299 690 299 664 L299 638 Q299 612 292 603 Q285 594 265 594 L161 594 Q149 594 145.5 589.5 Q142 585 142 571 L142 453 Q142 438 144.5 434.5 Q147 431 161 431 L214 431 Q231 431 238 424 Q245 417 245 395 L245 354 Q245 334 238 326.5 Q231 319 214 319 L161 319 Q150 319 146 316 Q142 313 142 303 L142 135 Q142 122 146 117 Q150 112 164 112 L269 112 Q291 112 299 102 Q307 92 307 66 L307 38 Q307 27 305.5 21 Q304 15 300 10.5 Q296 6 289 2 Q282 -2 272 -8 Q253 -19 239.5 -31.5 Q226 -44 226 -56 Q226 -73 247 -73 L261 -73 Q286 -73 294 -80 Q302 -87 302 -106 L302 -111 Q302 -138 295.5 -146.5 Q289 -155 265 -155 L213 -155 Q184 -155 165.5 -137 Q147 -119 147 -93 Q147 -64 165.5 -40.5 Q184 -17 216 0 L65 0 Q44 0 37 9.5 Q30 19 30 47 L30 659 Z " />
<glyph glyph-name="Gbreve" unicode="&#x11e;" horiz-adv-x="369" d="M247 298 Q247 314 241.5 319.5 Q236 325 228 325 L203 325 Q189 325 186.5 333.5 Q184 342 184 358 L184 394 Q184 417 190.5 427 Q197 437 223 437 L318 437 Q338 437 344.5 425.5 Q351 414 351 390 L351 202 Q351 157 344.5 119 Q338 81 320 53 Q302 25 271 9 Q240 -7 191 -7 Q127 -7 92 15 Q57 37 41 81.5 Q25 126 22.5 193 Q20 260 20 350 Q20 437 22 503.5 Q24 570 35 615 Q46 660 69 683 Q92 706 135 706 L278 706 Q298 706 306 698 Q314 690 314 661 L314 640 Q314 614 307.5 604 Q301 594 282 594 L195 594 Q174 594 162 590 Q150 586 143 562.5 Q136 539 134 489 Q132 439 132 347 L132 179 Q132 139 149 123 Q166 107 192 107 Q217 107 232 125 Q247 143 247 181 L247 298 Z M94 850 Q101 850 103.5 846 Q106 842 108 836 Q110 829 113.5 823.5 Q117 818 125.5 813.5 Q134 809 148.5 806.5 Q163 804 186 804 Q208 804 222 806.5 Q236 809 244.5 813.5 Q253 818 256.5 823.5 Q260 829 262 836 Q265 850 275 850 L304 850 Q310 850 313 845.5 Q316 841 316 836 Q316 819 310 800.5 Q304 782 289.5 767 Q275 752 250 742.5 Q225 733 186 733 Q147 733 121.5 742.5 Q96 752 81 767 Q66 782 60 800.5 Q54 819 54 836 Q54 841 57 845.5 Q60 850 66 850 L94 850 Z " />
<glyph glyph-name="Gcommaaccent" unicode="&#x122;" horiz-adv-x="369" d="M247 298 Q247 314 241.5 319.5 Q236 325 228 325 L203 325 Q189 325 186.5 333.5 Q184 342 184 358 L184 394 Q184 417 190.5 427 Q197 437 223 437 L318 437 Q338 437 344.5 425.5 Q351 414 351 390 L351 202 Q351 157 344.5 119 Q338 81 320 53 Q302 25 271 9 Q240 -7 191 -7 Q127 -7 92 15 Q57 37 41 81.5 Q25 126 22.5 193 Q20 260 20 350 Q20 437 22 503.5 Q24 570 35 615 Q46 660 69 683 Q92 706 135 706 L278 706 Q298 706 306 698 Q314 690 314 661 L314 640 Q314 614 307.5 604 Q301 594 282 594 L195 594 Q174 594 162 590 Q150 586 143 562.5 Q136 539 134 489 Q132 439 132 347 L132 179 Q132 139 149 123 Q166 107 192 107 Q217 107 232 125 Q247 143 247 181 L247 298 Z M163 -143 Q165 -137 165.5 -130.5 Q166 -124 159 -124 L152 -124 Q141 -124 137 -116.5 Q133 -109 133 -85 L133 -72 Q133 -46 140.5 -35.5 Q148 -25 168 -25 L203 -25 Q221 -25 228.5 -35 Q236 -45 236 -69 L236 -86 Q236 -100 235.5 -107.5 Q235 -115 233 -123 L207 -203 Q200 -224 184 -224 L155 -224 Q145 -224 141.5 -220 Q138 -216 143 -203 L163 -143 Z " />
<glyph glyph-name="Igrave" unicode="&#xcc;" horiz-adv-x="172" d="M30 658 Q30 686 37 696 Q44 706 64 706 L110 706 Q128 706 135 695.5 Q142 685 142 658 L142 44 Q142 15 134.5 7.5 Q127 0 107 0 L67 0 Q44 0 37 9 Q30 18 30 47 L30 658 Z M-7 804 Q-18 813 -18 821 Q-18 835 -3 835 L78 835 Q86 835 90 832 Q94 829 102 818 L149 755 Q154 749 154 742 Q154 732 143 732 L89 732 Q80 732 76.5 734.5 Q73 737 66 742 L-7 804 Z " />
<glyph glyph-name="Iacute" unicode="&#xcd;" horiz-adv-x="172" d="M30 658 Q30 686 37 696 Q44 706 64 706 L110 706 Q128 706 135 695.5 Q142 685 142 658 L142 44 Q142 15 134.5 7.5 Q127 0 107 0 L67 0 Q44 0 37 9 Q30 18 30 47 L30 658 Z M60 819 Q68 830 71.5 832.5 Q75 835 83 835 L164 835 Q179 835 179 821 Q179 812 168 804 L95 742 Q88 737 85 734.5 Q82 732 72 732 L18 732 Q7 732 7 742 Q7 749 12 755 L60 819 Z " />
<glyph glyph-name="Icircumflex" unicode="&#xce;" horiz-adv-x="172" d="M30 658 Q30 686 37 696 Q44 706 64 706 L110 706 Q128 706 135 695.5 Q142 685 142 658 L142 44 Q142 15 134.5 7.5 Q127 0 107 0 L67 0 Q44 0 37 9 Q30 18 30 47 L30 658 Z M7 818 Q12 828 17.5 831.5 Q23 835 36 835 L137 835 Q150 835 155 831.5 Q160 828 165 818 L202 749 Q203 747 204 744.5 Q205 742 205 740 Q205 732 195 732 L149 732 Q141 732 136 733.5 Q131 735 125 743 L86 794 L48 743 Q42 735 36.5 733.5 Q31 732 24 732 L-22 732 Q-32 732 -32 740 Q-32 743 -30 749 L7 818 Z " />
<glyph glyph-name="Idieresis" unicode="&#xcf;" horiz-adv-x="172" d="M30 658 Q30 686 37 696 Q44 706 64 706 L110 706 Q128 706 135 695.5 Q142 685 142 658 L142 44 Q142 15 134.5 7.5 Q127 0 107 0 L67 0 Q44 0 37 9 Q30 18 30 47 L30 658 Z M107 803 Q107 821 113 828.5 Q119 836 139 836 L164 836 Q184 836 190.5 828.5 Q197 821 197 803 L197 769 Q197 751 190.5 743.5 Q184 736 164 736 L139 736 Q119 736 113 743.5 Q107 751 107 769 L107 803 Z M-21 803 Q-21 821 -15 828.5 Q-9 836 11 836 L36 836 Q56 836 62.5 828.5 Q69 821 69 803 L69 769 Q69 751 62.5 743.5 Q56 736 36 736 L11 736 Q-9 736 -15 743.5 Q-21 751 -21 769 L-21 803 Z " />
<glyph glyph-name="Imacron" unicode="&#x12a;" horiz-adv-x="172" d="M30 658 Q30 686 37 696 Q44 706 64 706 L110 706 Q128 706 135 695.5 Q142 685 142 658 L142 44 Q142 15 134.5 7.5 Q127 0 107 0 L67 0 Q44 0 37 9 Q30 18 30 47 L30 658 Z M-26 788 Q-26 811 -15 816 Q-4 821 22 821 L153 821 Q179 821 189.5 816 Q200 811 200 788 L200 772 Q200 749 189.5 744 Q179 739 153 739 L22 739 Q-4 739 -15 744 Q-26 749 -26 772 L-26 788 Z " />
<glyph glyph-name="Idotaccent" unicode="&#x130;" horiz-adv-x="172" d="M30 658 Q30 686 37 696 Q44 706 64 706 L110 706 Q128 706 135 695.5 Q142 685 142 658 L142 44 Q142 15 134.5 7.5 Q127 0 107 0 L67 0 Q44 0 37 9 Q30 18 30 47 L30 658 Z M43 802 Q43 820 49 827.5 Q55 835 75 835 L98 835 Q118 835 124.5 827.5 Q131 820 131 802 L131 770 Q131 752 124.5 744.5 Q118 737 98 737 L75 737 Q55 737 49 744.5 Q43 752 43 770 L43 802 Z " />
<glyph glyph-name="Iogonek" unicode="&#x12e;" horiz-adv-x="172" d="M147 -111 Q147 -138 140.5 -146.5 Q134 -155 110 -155 L58 -155 Q29 -155 10.5 -137 Q-8 -119 -8 -93 Q-8 -64 10.5 -40.5 Q29 -17 61 0 Q42 1 36 10 Q30 19 30 47 L30 658 Q30 686 37 696 Q44 706 64 706 L110 706 Q128 706 135 695.5 Q142 685 142 658 L142 45 Q142 32 140.5 24.5 Q139 17 136 12 Q133 7 128 3.5 Q123 0 116 -4 Q94 -18 82.5 -31.5 Q71 -45 71 -56 Q71 -73 92 -73 L106 -73 Q131 -73 139 -80 Q147 -87 147 -106 L147 -111 Z " />
<glyph glyph-name="Kcommaaccent" unicode="&#x136;" horiz-adv-x="383" d="M30 658 Q30 686 37 696 Q44 706 64 706 L110 706 Q128 706 135 695.5 Q142 685 142 658 L142 484 Q142 480 143 476.5 Q144 473 148 473 Q152 473 158 484 L246 665 Q256 687 262.5 696.5 Q269 706 286 706 L365 706 Q378 706 378 693 Q378 690 377 685.5 Q376 681 371 673 L270 474 Q268 469 265.5 463.5 Q263 458 263 453 Q263 447 263.5 442.5 Q264 438 266 432 L373 32 Q379 11 374.5 5.5 Q370 0 356 0 L282 0 Q268 0 262.5 6 Q257 12 252 31 L193 297 Q190 310 187.5 316 Q185 322 180 322 Q174 322 169 313.5 Q164 305 152 278 Q142 254 142 216 L142 44 Q142 15 134.5 7.5 Q127 0 107 0 L67 0 Q44 0 37 9 Q30 18 30 47 L30 658 Z M168 -143 Q170 -137 170.5 -130.5 Q171 -124 164 -124 L157 -124 Q146 -124 142 -116.5 Q138 -109 138 -85 L138 -72 Q138 -46 145.5 -35.5 Q153 -25 173 -25 L208 -25 Q226 -25 233.5 -35 Q241 -45 241 -69 L241 -86 Q241 -100 240.5 -107.5 Q240 -115 238 -123 L212 -203 Q205 -224 189 -224 L160 -224 Q150 -224 146.5 -220 Q143 -216 148 -203 L168 -143 Z " />
<glyph glyph-name="Lacute" unicode="&#x139;" horiz-adv-x="286" d="M30 660 Q30 685 37.5 695.5 Q45 706 64 706 L108 706 Q129 706 135.5 696 Q142 686 142 660 L142 134 Q142 121 146.5 116.5 Q151 112 159 112 L245 112 Q265 112 273 102.5 Q281 93 281 67 L281 45 Q281 21 271.5 10.5 Q262 0 242 0 L64 0 Q43 0 36.5 9 Q30 18 30 47 L30 660 Z M96 819 Q104 830 107.5 832.5 Q111 835 119 835 L200 835 Q215 835 215 821 Q215 812 204 804 L131 742 Q124 737 121 734.5 Q118 732 108 732 L54 732 Q43 732 43 742 Q43 749 48 755 L96 819 Z " />
<glyph glyph-name="Lcaron" unicode="&#x13d;" horiz-adv-x="286" d="M201 562 Q204 568 204 572 Q204 581 196 581 L189 581 Q178 581 175 588.5 Q172 596 172 620 L172 659 Q172 685 179.5 695.5 Q187 706 207 706 L238 706 Q256 706 263.5 696 Q271 686 271 662 L271 619 Q271 605 270 597.5 Q269 590 267 582 L240 501 Q234 481 217 481 L191 481 Q177 481 177 489 Q177 493 180 501 L201 562 Z M30 660 Q30 685 37.5 695.5 Q45 706 64 706 L108 706 Q129 706 135.5 696 Q142 686 142 660 L142 134 Q142 121 146.5 116.5 Q151 112 159 112 L245 112 Q265 112 273 102.5 Q281 93 281 67 L281 45 Q281 21 271.5 10.5 Q262 0 242 0 L64 0 Q43 0 36.5 9 Q30 18 30 47 L30 660 Z " />
<glyph glyph-name="Lcommaaccent" unicode="&#x13b;" horiz-adv-x="286" d="M30 660 Q30 685 37.5 695.5 Q45 706 64 706 L108 706 Q129 706 135.5 696 Q142 686 142 660 L142 134 Q142 121 146.5 116.5 Q151 112 159 112 L245 112 Q265 112 273 102.5 Q281 93 281 67 L281 45 Q281 21 271.5 10.5 Q262 0 242 0 L64 0 Q43 0 36.5 9 Q30 18 30 47 L30 660 Z M115 -143 Q117 -137 117.5 -130.5 Q118 -124 111 -124 L104 -124 Q93 -124 89 -116.5 Q85 -109 85 -85 L85 -72 Q85 -46 92.5 -35.5 Q100 -25 120 -25 L155 -25 Q173 -25 180.5 -35 Q188 -45 188 -69 L188 -86 Q188 -100 187.5 -107.5 Q187 -115 185 -123 L159 -203 Q152 -224 136 -224 L107 -224 Q97 -224 93.5 -220 Q90 -216 95 -203 L115 -143 Z " />
<glyph glyph-name="Lslash" unicode="&#x141;" horiz-adv-x="303" d="M47 241 L21 206 Q13 195 6.5 197 Q0 199 0 211 L0 276 Q0 288 4.5 297 Q9 306 20 320 L47 355 L47 660 Q47 685 55 695.5 Q63 706 82 706 L125 706 Q146 706 152.5 696 Q159 686 159 660 L159 508 L207 570 Q215 581 221.5 579 Q228 577 228 565 L228 499 Q228 486 223.5 477.5 Q219 469 208 455 L159 394 L159 134 Q159 121 163.5 116.5 Q168 112 176 112 L262 112 Q282 112 290 102.5 Q298 93 298 67 L298 45 Q298 21 288.5 10.5 Q279 0 259 0 L82 0 Q61 0 54 9 Q47 18 47 47 L47 241 Z " />
<glyph glyph-name="Nacute" unicode="&#x143;" horiz-adv-x="403" d="M30 659 Q30 687 37 696.5 Q44 706 67 706 L94 706 Q113 706 120 700.5 Q127 695 135 673 L239 379 Q245 362 248 358.5 Q251 355 255 355 Q258 355 259.5 359 Q261 363 261 375 L261 659 Q261 684 268 695 Q275 706 294 706 L335 706 Q352 706 362.5 697.5 Q373 689 373 658 L373 48 Q373 20 366 10 Q359 0 336 0 L309 0 Q290 0 283 5 Q276 10 268 33 L163 330 Q158 345 155 348.5 Q152 352 149 352 Q145 352 143.5 348 Q142 344 142 332 L142 47 Q142 22 135.5 11 Q129 0 110 0 L68 0 Q50 0 40 8 Q30 16 30 48 L30 659 Z M186 819 Q194 830 197.5 832.5 Q201 835 209 835 L290 835 Q305 835 305 821 Q305 812 294 804 L221 742 Q214 737 211 734.5 Q208 732 198 732 L144 732 Q133 732 133 742 Q133 749 138 755 L186 819 Z " />
<glyph glyph-name="Ncaron" unicode="&#x147;" horiz-adv-x="403" d="M30 659 Q30 687 37 696.5 Q44 706 67 706 L94 706 Q113 706 120 700.5 Q127 695 135 673 L239 379 Q245 362 248 358.5 Q251 355 255 355 Q258 355 259.5 359 Q261 363 261 375 L261 659 Q261 684 268 695 Q275 706 294 706 L335 706 Q352 706 362.5 697.5 Q373 689 373 658 L373 48 Q373 20 366 10 Q359 0 336 0 L309 0 Q290 0 283 5 Q276 10 268 33 L163 330 Q158 345 155 348.5 Q152 352 149 352 Q145 352 143.5 348 Q142 344 142 332 L142 47 Q142 22 135.5 11 Q129 0 110 0 L68 0 Q50 0 40 8 Q30 16 30 48 L30 659 Z M85 818 Q83 824 83 827 Q83 835 93 835 L139 835 Q146 835 151.5 833.5 Q157 832 163 824 L202 775 L239 824 Q245 832 250.5 833.5 Q256 835 264 835 L310 835 Q319 835 319 827 Q319 822 315 814 L280 748 Q275 738 270 735 Q265 732 252 732 L151 732 Q138 732 132.5 735 Q127 738 122 748 L85 818 Z " />
<glyph glyph-name="Ntilde" unicode="&#xd1;" horiz-adv-x="403" d="M30 659 Q30 687 37 696.5 Q44 706 67 706 L94 706 Q113 706 120 700.5 Q127 695 135 673 L239 379 Q245 362 248 358.5 Q251 355 255 355 Q258 355 259.5 359 Q261 363 261 375 L261 659 Q261 684 268 695 Q275 706 294 706 L335 706 Q352 706 362.5 697.5 Q373 689 373 658 L373 48 Q373 20 366 10 Q359 0 336 0 L309 0 Q290 0 283 5 Q276 10 268 33 L163 330 Q158 345 155 348.5 Q152 352 149 352 Q145 352 143.5 348 Q142 344 142 332 L142 47 Q142 22 135.5 11 Q129 0 110 0 L68 0 Q50 0 40 8 Q30 16 30 48 L30 659 Z M82 802 Q82 815 87.5 823.5 Q93 832 109 832 L146 832 Q151 832 155.5 831 Q160 830 164 829 L239 806 Q246 803 252 803 Q256 803 256 810 L256 815 Q256 823 261.5 827.5 Q267 832 273 832 L294 832 Q311 832 316 825.5 Q321 819 321 804 L321 767 Q321 754 316 745.5 Q311 737 294 737 L257 737 Q252 737 247.5 738 Q243 739 239 740 L164 763 Q156 766 151 766 Q147 766 147 759 L147 754 Q147 746 142 741.5 Q137 737 130 737 L109 737 Q93 737 87.5 743.5 Q82 750 82 765 L82 802 Z " />
<glyph glyph-name="Ncommaaccent" unicode="&#x145;" horiz-adv-x="403" d="M30 659 Q30 687 37 696.5 Q44 706 67 706 L94 706 Q113 706 120 700.5 Q127 695 135 673 L239 379 Q245 362 248 358.5 Q251 355 255 355 Q258 355 259.5 359 Q261 363 261 375 L261 659 Q261 684 268 695 Q275 706 294 706 L335 706 Q352 706 362.5 697.5 Q373 689 373 658 L373 48 Q373 20 366 10 Q359 0 336 0 L309 0 Q290 0 283 5 Q276 10 268 33 L163 330 Q158 345 155 348.5 Q152 352 149 352 Q145 352 143.5 348 Q142 344 142 332 L142 47 Q142 22 135.5 11 Q129 0 110 0 L68 0 Q50 0 40 8 Q30 16 30 48 L30 659 Z M183 -143 Q185 -137 185.5 -130.5 Q186 -124 179 -124 L172 -124 Q161 -124 157 -116.5 Q153 -109 153 -85 L153 -72 Q153 -46 160.5 -35.5 Q168 -25 188 -25 L223 -25 Q241 -25 248.5 -35 Q256 -45 256 -69 L256 -86 Q256 -100 255.5 -107.5 Q255 -115 253 -123 L227 -203 Q220 -224 204 -224 L175 -224 Q165 -224 161.5 -220 Q158 -216 163 -203 L183 -143 Z " />
<glyph glyph-name="Ograve" unicode="&#xd2;" horiz-adv-x="361" d="M180 -10 Q120 -10 87 16 Q54 42 39 89.5 Q24 137 21.5 204 Q19 271 19 354 Q19 437 21.5 503.5 Q24 570 39 616.5 Q54 663 87 688 Q120 713 180 713 Q240 713 273 688 Q306 663 321.5 616.5 Q337 570 339.5 503.5 Q342 437 342 354 Q342 271 339.5 204 Q337 137 321.5 89.5 Q306 42 273 16 Q240 -10 180 -10 Z M180 113 Q196 113 206 121.5 Q216 130 221 156 Q226 182 228 229.5 Q230 277 230 354 Q230 429 228 475.5 Q226 522 221 548 Q216 574 206 583 Q196 592 180 592 Q164 592 154.5 583 Q145 574 139.5 548 Q134 522 132.5 475.5 Q131 429 131 354 Q131 277 132.5 229.5 Q134 182 139.5 156 Q145 130 154.5 121.5 Q164 113 180 113 Z M73 804 Q62 813 62 821 Q62 835 77 835 L158 835 Q166 835 170 832 Q174 829 182 818 L229 755 Q234 749 234 742 Q234 732 223 732 L169 732 Q160 732 156.5 734.5 Q153 737 146 742 L73 804 Z " />
<glyph glyph-name="Oacute" unicode="&#xd3;" horiz-adv-x="361" d="M180 -10 Q120 -10 87 16 Q54 42 39 89.5 Q24 137 21.5 204 Q19 271 19 354 Q19 437 21.5 503.5 Q24 570 39 616.5 Q54 663 87 688 Q120 713 180 713 Q240 713 273 688 Q306 663 321.5 616.5 Q337 570 339.5 503.5 Q342 437 342 354 Q342 271 339.5 204 Q337 137 321.5 89.5 Q306 42 273 16 Q240 -10 180 -10 Z M180 113 Q196 113 206 121.5 Q216 130 221 156 Q226 182 228 229.5 Q230 277 230 354 Q230 429 228 475.5 Q226 522 221 548 Q216 574 206 583 Q196 592 180 592 Q164 592 154.5 583 Q145 574 139.5 548 Q134 522 132.5 475.5 Q131 429 131 354 Q131 277 132.5 229.5 Q134 182 139.5 156 Q145 130 154.5 121.5 Q164 113 180 113 Z M179 819 Q187 830 190.5 832.5 Q194 835 202 835 L283 835 Q298 835 298 821 Q298 812 287 804 L214 742 Q207 737 204 734.5 Q201 732 191 732 L137 732 Q126 732 126 742 Q126 749 131 755 L179 819 Z " />
<glyph glyph-name="Ocircumflex" unicode="&#xd4;" horiz-adv-x="361" d="M180 -10 Q120 -10 87 16 Q54 42 39 89.5 Q24 137 21.5 204 Q19 271 19 354 Q19 437 21.5 503.5 Q24 570 39 616.5 Q54 663 87 688 Q120 713 180 713 Q240 713 273 688 Q306 663 321.5 616.5 Q337 570 339.5 503.5 Q342 437 342 354 Q342 271 339.5 204 Q337 137 321.5 89.5 Q306 42 273 16 Q240 -10 180 -10 Z M180 113 Q196 113 206 121.5 Q216 130 221 156 Q226 182 228 229.5 Q230 277 230 354 Q230 429 228 475.5 Q226 522 221 548 Q216 574 206 583 Q196 592 180 592 Q164 592 154.5 583 Q145 574 139.5 548 Q134 522 132.5 475.5 Q131 429 131 354 Q131 277 132.5 229.5 Q134 182 139.5 156 Q145 130 154.5 121.5 Q164 113 180 113 Z M101 818 Q106 828 111.5 831.5 Q117 835 130 835 L231 835 Q244 835 249 831.5 Q254 828 259 818 L296 749 Q297 747 298 744.5 Q299 742 299 740 Q299 732 289 732 L243 732 Q235 732 230 733.5 Q225 735 219 743 L180 794 L142 743 Q136 735 130.5 733.5 Q125 732 118 732 L72 732 Q62 732 62 740 Q62 743 64 749 L101 818 Z " />
<glyph glyph-name="Otilde" unicode="&#xd5;" horiz-adv-x="361" d="M180 -10 Q120 -10 87 16 Q54 42 39 89.5 Q24 137 21.5 204 Q19 271 19 354 Q19 437 21.5 503.5 Q24 570 39 616.5 Q54 663 87 688 Q120 713 180 713 Q240 713 273 688 Q306 663 321.5 616.5 Q337 570 339.5 503.5 Q342 437 342 354 Q342 271 339.5 204 Q337 137 321.5 89.5 Q306 42 273 16 Q240 -10 180 -10 Z M180 113 Q196 113 206 121.5 Q216 130 221 156 Q226 182 228 229.5 Q230 277 230 354 Q230 429 228 475.5 Q226 522 221 548 Q216 574 206 583 Q196 592 180 592 Q164 592 154.5 583 Q145 574 139.5 548 Q134 522 132.5 475.5 Q131 429 131 354 Q131 277 132.5 229.5 Q134 182 139.5 156 Q145 130 154.5 121.5 Q164 113 180 113 Z M61 802 Q61 815 66.5 823.5 Q72 832 88 832 L125 832 Q130 832 134.5 831 Q139 830 143 829 L218 806 Q225 803 231 803 Q235 803 235 810 L235 815 Q235 823 240.5 827.5 Q246 832 252 832 L273 832 Q290 832 295 825.5 Q300 819 300 804 L300 767 Q300 754 295 745.5 Q290 737 273 737 L236 737 Q231 737 226.5 738 Q222 739 218 740 L143 763 Q135 766 130 766 Q126 766 126 759 L126 754 Q126 746 121 741.5 Q116 737 109 737 L88 737 Q72 737 66.5 743.5 Q61 750 61 765 L61 802 Z " />
<glyph glyph-name="Odieresis" unicode="&#xd6;" horiz-adv-x="361" d="M180 -10 Q120 -10 87 16 Q54 42 39 89.5 Q24 137 21.5 204 Q19 271 19 354 Q19 437 21.5 503.5 Q24 570 39 616.5 Q54 663 87 688 Q120 713 180 713 Q240 713 273 688 Q306 663 321.5 616.5 Q337 570 339.5 503.5 Q342 437 342 354 Q342 271 339.5 204 Q337 137 321.5 89.5 Q306 42 273 16 Q240 -10 180 -10 Z M180 113 Q196 113 206 121.5 Q216 130 221 156 Q226 182 228 229.5 Q230 277 230 354 Q230 429 228 475.5 Q226 522 221 548 Q216 574 206 583 Q196 592 180 592 Q164 592 154.5 583 Q145 574 139.5 548 Q134 522 132.5 475.5 Q131 429 131 354 Q131 277 132.5 229.5 Q134 182 139.5 156 Q145 130 154.5 121.5 Q164 113 180 113 Z M200 803 Q200 821 206 828.5 Q212 836 232 836 L257 836 Q277 836 283.5 828.5 Q290 821 290 803 L290 769 Q290 751 283.5 743.5 Q277 736 257 736 L232 736 Q212 736 206 743.5 Q200 751 200 769 L200 803 Z M72 803 Q72 821 78 828.5 Q84 836 104 836 L129 836 Q149 836 155.5 828.5 Q162 821 162 803 L162 769 Q162 751 155.5 743.5 Q149 736 129 736 L104 736 Q84 736 78 743.5 Q72 751 72 769 L72 803 Z " />
<glyph glyph-name="Omacron" unicode="&#x14c;" horiz-adv-x="361" d="M180 -10 Q120 -10 87 16 Q54 42 39 89.5 Q24 137 21.5 204 Q19 271 19 354 Q19 437 21.5 503.5 Q24 570 39 616.5 Q54 663 87 688 Q120 713 180 713 Q240 713 273 688 Q306 663 321.5 616.5 Q337 570 339.5 503.5 Q342 437 342 354 Q342 271 339.5 204 Q337 137 321.5 89.5 Q306 42 273 16 Q240 -10 180 -10 Z M180 113 Q196 113 206 121.5 Q216 130 221 156 Q226 182 228 229.5 Q230 277 230 354 Q230 429 228 475.5 Q226 522 221 548 Q216 574 206 583 Q196 592 180 592 Q164 592 154.5 583 Q145 574 139.5 548 Q134 522 132.5 475.5 Q131 429 131 354 Q131 277 132.5 229.5 Q134 182 139.5 156 Q145 130 154.5 121.5 Q164 113 180 113 Z M68 788 Q68 811 79 816 Q90 821 116 821 L247 821 Q273 821 283.5 816 Q294 811 294 788 L294 772 Q294 749 283.5 744 Q273 739 247 739 L116 739 Q90 739 79 744 Q68 749 68 772 L68 788 Z " />
<glyph glyph-name="Ohungarumlaut" unicode="&#x150;" horiz-adv-x="361" d="M180 -10 Q120 -10 87 16 Q54 42 39 89.5 Q24 137 21.5 204 Q19 271 19 354 Q19 437 21.5 503.5 Q24 570 39 616.5 Q54 663 87 688 Q120 713 180 713 Q240 713 273 688 Q306 663 321.5 616.5 Q337 570 339.5 503.5 Q342 437 342 354 Q342 271 339.5 204 Q337 137 321.5 89.5 Q306 42 273 16 Q240 -10 180 -10 Z M180 113 Q196 113 206 121.5 Q216 130 221 156 Q226 182 228 229.5 Q230 277 230 354 Q230 429 228 475.5 Q226 522 221 548 Q216 574 206 583 Q196 592 180 592 Q164 592 154.5 583 Q145 574 139.5 548 Q134 522 132.5 475.5 Q131 429 131 354 Q131 277 132.5 229.5 Q134 182 139.5 156 Q145 130 154.5 121.5 Q164 113 180 113 Z M236 813 Q244 827 246.5 831 Q249 835 257 835 L313 835 Q321 835 324.5 828.5 Q328 822 321 814 L264 748 Q256 738 252.5 735 Q249 732 241 732 L206 732 Q201 732 198 738.5 Q195 745 201 755 L236 813 Z M127 813 Q135 825 138.5 830 Q142 835 150 835 L204 835 Q212 835 215.5 828 Q219 821 213 814 L155 748 Q147 738 143.5 735 Q140 732 132 732 L98 732 Q92 732 88.5 738.5 Q85 745 91 755 L127 813 Z " />
<glyph glyph-name="Oslash" unicode="&#xd8;" horiz-adv-x="361" d="M180 -10 Q103 -10 67 34 L59 16 Q54 6 50 3 Q46 0 38 0 L13 0 Q-2 0 -4.5 5 Q-7 10 0 24 L35 102 Q23 150 21 213 Q19 276 19 354 Q19 437 21.5 503.5 Q24 570 39 616.5 Q54 663 87 688 Q120 713 180 713 Q220 713 247 702 Q274 691 292 670 L301 689 Q306 700 310.5 703 Q315 706 327 706 L346 706 Q357 706 363 702.5 Q369 699 362 685 L325 604 Q338 557 340 494.5 Q342 432 342 354 Q342 271 339.5 204 Q337 137 321.5 89.5 Q306 42 273 16 Q240 -10 180 -10 Z M180 113 Q196 113 206 121.5 Q216 130 221 156 Q226 182 228 229.5 Q230 277 230 354 L230 393 L135 185 Q139 141 149.5 127 Q160 113 180 113 Z M131 313 L225 521 Q220 563 210 577.5 Q200 592 180 592 Q164 592 154.5 583 Q145 574 139.5 548 Q134 522 132.5 475.5 Q131 429 131 354 L131 313 Z " />
<glyph glyph-name="OE" unicode="&#x152;" horiz-adv-x="515" d="M180 -10 Q120 -10 87 16 Q54 42 39 89.5 Q24 137 21.5 204 Q19 271 19 354 Q19 437 21.5 503.5 Q24 570 39 616.5 Q54 663 87 688 Q120 713 180 713 Q228 713 258 695 Q266 706 285 706 L465 706 Q485 706 492 698 Q499 690 499 664 L499 638 Q499 612 492 603 Q485 594 465 594 L361 594 Q349 594 345.5 589.5 Q342 585 342 571 L342 453 Q342 438 344.5 434.5 Q347 431 361 431 L414 431 Q431 431 438 424 Q445 417 445 395 L445 354 Q445 334 438 326.5 Q431 319 414 319 L361 319 Q350 319 346 316 Q342 313 342 303 L342 135 Q342 122 346 117 Q350 112 364 112 L469 112 Q491 112 499 102 Q507 92 507 66 L507 45 Q507 21 499 10.5 Q491 0 471 0 L285 0 Q266 0 258 7 Q229 -10 180 -10 Z M180 113 Q196 113 206 121.5 Q216 130 221 156 Q226 182 228 229.5 Q230 277 230 354 Q230 429 228 475.5 Q226 522 221 548 Q216 574 206 583 Q196 592 180 592 Q164 592 154.5 583 Q145 574 139.5 548 Q134 522 132.5 475.5 Q131 429 131 354 Q131 277 132.5 229.5 Q134 182 139.5 156 Q145 130 154.5 121.5 Q164 113 180 113 Z " />
<glyph glyph-name="Racute" unicode="&#x154;" horiz-adv-x="356" d="M151 302 Q142 302 142 292 L142 45 Q142 17 135.5 8.5 Q129 0 108 0 L63 0 Q42 0 36 8 Q30 16 30 45 L30 657 Q30 684 37 695 Q44 706 63 706 L195 706 Q265 706 305 658.5 Q345 611 345 500 Q345 426 328 387 Q311 348 282 326 L347 29 Q348 24 348.5 20.5 Q349 17 349 15 Q349 0 330 0 L259 0 Q245 0 240 5.5 Q235 11 231 31 L179 291 Q177 299 174 300.5 Q171 302 164 302 L151 302 Z M185 414 Q196 414 204.5 416.5 Q213 419 219 428 Q225 437 228.5 454.5 Q232 472 232 501 Q232 531 228.5 549.5 Q225 568 219 578 Q213 588 204.5 591 Q196 594 185 594 L159 594 Q151 594 146.5 591 Q142 588 142 575 L142 432 Q142 421 146 417.5 Q150 414 158 414 L185 414 Z M157 819 Q165 830 168.5 832.5 Q172 835 180 835 L261 835 Q276 835 276 821 Q276 812 265 804 L192 742 Q185 737 182 734.5 Q179 732 169 732 L115 732 Q104 732 104 742 Q104 749 109 755 L157 819 Z " />
<glyph glyph-name="Rcaron" unicode="&#x158;" horiz-adv-x="356" d="M151 302 Q142 302 142 292 L142 45 Q142 17 135.5 8.5 Q129 0 108 0 L63 0 Q42 0 36 8 Q30 16 30 45 L30 657 Q30 684 37 695 Q44 706 63 706 L195 706 Q265 706 305 658.5 Q345 611 345 500 Q345 426 328 387 Q311 348 282 326 L347 29 Q348 24 348.5 20.5 Q349 17 349 15 Q349 0 330 0 L259 0 Q245 0 240 5.5 Q235 11 231 31 L179 291 Q177 299 174 300.5 Q171 302 164 302 L151 302 Z M185 414 Q196 414 204.5 416.5 Q213 419 219 428 Q225 437 228.5 454.5 Q232 472 232 501 Q232 531 228.5 549.5 Q225 568 219 578 Q213 588 204.5 591 Q196 594 185 594 L159 594 Q151 594 146.5 591 Q142 588 142 575 L142 432 Q142 421 146 417.5 Q150 414 158 414 L185 414 Z M59 818 Q57 824 57 827 Q57 835 67 835 L113 835 Q120 835 125.5 833.5 Q131 832 137 824 L176 775 L213 824 Q219 832 224.5 833.5 Q230 835 238 835 L284 835 Q293 835 293 827 Q293 822 289 814 L254 748 Q249 738 244 735 Q239 732 226 732 L125 732 Q112 732 106.5 735 Q101 738 96 748 L59 818 Z " />
<glyph glyph-name="Rcommaaccent" unicode="&#x156;" horiz-adv-x="356" d="M151 302 Q142 302 142 292 L142 45 Q142 17 135.5 8.5 Q129 0 108 0 L63 0 Q42 0 36 8 Q30 16 30 45 L30 657 Q30 684 37 695 Q44 706 63 706 L195 706 Q265 706 305 658.5 Q345 611 345 500 Q345 426 328 387 Q311 348 282 326 L347 29 Q348 24 348.5 20.5 Q349 17 349 15 Q349 0 330 0 L259 0 Q245 0 240 5.5 Q235 11 231 31 L179 291 Q177 299 174 300.5 Q171 302 164 302 L151 302 Z M185 414 Q196 414 204.5 416.5 Q213 419 219 428 Q225 437 228.5 454.5 Q232 472 232 501 Q232 531 228.5 549.5 Q225 568 219 578 Q213 588 204.5 591 Q196 594 185 594 L159 594 Q151 594 146.5 591 Q142 588 142 575 L142 432 Q142 421 146 417.5 Q150 414 158 414 L185 414 Z M159 -143 Q161 -137 161.5 -130.5 Q162 -124 155 -124 L148 -124 Q137 -124 133 -116.5 Q129 -109 129 -85 L129 -72 Q129 -46 136.5 -35.5 Q144 -25 164 -25 L199 -25 Q217 -25 224.5 -35 Q232 -45 232 -69 L232 -86 Q232 -100 231.5 -107.5 Q231 -115 229 -123 L203 -203 Q196 -224 180 -224 L151 -224 Q141 -224 137.5 -220 Q134 -216 139 -203 L159 -143 Z " />
<glyph glyph-name="Sacute" unicode="&#x15a;" horiz-adv-x="317" d="M14 67 Q14 95 21 103.5 Q28 112 48 112 L157 112 Q180 112 186.5 131.5 Q193 151 179 177 L60 402 Q42 435 32 460.5 Q22 486 17 506.5 Q12 527 10.5 543 Q9 559 9 574 Q9 646 46 676 Q83 706 149 706 L251 706 Q281 706 281 668 L281 634 Q281 611 273 602.5 Q265 594 248 594 L154 594 Q128 594 120.5 572.5 Q113 551 131 518 L244 310 Q265 271 278 243.5 Q291 216 298 194.5 Q305 173 307.5 155 Q310 137 310 117 Q310 85 299.5 63 Q289 41 271.5 27 Q254 13 230.5 6.5 Q207 0 182 0 L49 0 Q29 0 21.5 8.5 Q14 17 14 43 L14 67 Z M147 819 Q155 830 158.5 832.5 Q162 835 170 835 L251 835 Q266 835 266 821 Q266 812 255 804 L182 742 Q175 737 172 734.5 Q169 732 159 732 L105 732 Q94 732 94 742 Q94 749 99 755 L147 819 Z " />
<glyph glyph-name="Scaron" unicode="&#x160;" horiz-adv-x="317" d="M14 67 Q14 95 21 103.5 Q28 112 48 112 L157 112 Q180 112 186.5 131.5 Q193 151 179 177 L60 402 Q42 435 32 460.5 Q22 486 17 506.5 Q12 527 10.5 543 Q9 559 9 574 Q9 646 46 676 Q83 706 149 706 L251 706 Q281 706 281 668 L281 634 Q281 611 273 602.5 Q265 594 248 594 L154 594 Q128 594 120.5 572.5 Q113 551 131 518 L244 310 Q265 271 278 243.5 Q291 216 298 194.5 Q305 173 307.5 155 Q310 137 310 117 Q310 85 299.5 63 Q289 41 271.5 27 Q254 13 230.5 6.5 Q207 0 182 0 L49 0 Q29 0 21.5 8.5 Q14 17 14 43 L14 67 Z M40 818 Q38 824 38 827 Q38 835 48 835 L94 835 Q101 835 106.5 833.5 Q112 832 118 824 L157 775 L194 824 Q200 832 205.5 833.5 Q211 835 219 835 L265 835 Q274 835 274 827 Q274 822 270 814 L235 748 Q230 738 225 735 Q220 732 207 732 L106 732 Q93 732 87.5 735 Q82 738 77 748 L40 818 Z " />
<glyph glyph-name="Scedilla" unicode="&#x15e;" horiz-adv-x="317" d="M77 -90 Q77 -71 85 -64.5 Q93 -58 118 -58 L135 -58 Q156 -58 156 -37 Q156 -32 154.5 -23 Q153 -14 149 0 L49 0 Q29 0 21.5 8.5 Q14 17 14 43 L14 67 Q14 95 21 103.5 Q28 112 48 112 L157 112 Q180 112 186.5 131.5 Q193 151 179 177 L60 402 Q42 435 32 460.5 Q22 486 17 506.5 Q12 527 10.5 543 Q9 559 9 574 Q9 646 46 676 Q83 706 149 706 L251 706 Q281 706 281 668 L281 634 Q281 611 273 602.5 Q265 594 248 594 L154 594 Q128 594 120.5 572.5 Q113 551 131 518 L244 310 Q265 271 278 243.5 Q291 216 298 194.5 Q305 173 307.5 155 Q310 137 310 117 Q310 88 301 66.5 Q292 45 277 31 Q262 17 241.5 9.5 Q221 2 198 0 Q203 -20 205 -32.5 Q207 -45 207 -58 Q207 -98 192.5 -121.5 Q178 -145 152 -145 L114 -145 Q90 -145 83.5 -137.5 Q77 -130 77 -103 L77 -90 Z " />
<glyph glyph-name="Scommaaccent" unicode="&#x218;" horiz-adv-x="317" d="M14 67 Q14 95 21 103.5 Q28 112 48 112 L157 112 Q180 112 186.5 131.5 Q193 151 179 177 L60 402 Q42 435 32 460.5 Q22 486 17 506.5 Q12 527 10.5 543 Q9 559 9 574 Q9 646 46 676 Q83 706 149 706 L251 706 Q281 706 281 668 L281 634 Q281 611 273 602.5 Q265 594 248 594 L154 594 Q128 594 120.5 572.5 Q113 551 131 518 L244 310 Q265 271 278 243.5 Q291 216 298 194.5 Q305 173 307.5 155 Q310 137 310 117 Q310 85 299.5 63 Q289 41 271.5 27 Q254 13 230.5 6.5 Q207 0 182 0 L49 0 Q29 0 21.5 8.5 Q14 17 14 43 L14 67 Z M140 -143 Q142 -137 142.5 -130.5 Q143 -124 136 -124 L129 -124 Q118 -124 114 -116.5 Q110 -109 110 -85 L110 -72 Q110 -46 117.5 -35.5 Q125 -25 145 -25 L180 -25 Q198 -25 205.5 -35 Q213 -45 213 -69 L213 -86 Q213 -100 212.5 -107.5 Q212 -115 210 -123 L184 -203 Q177 -224 161 -224 L132 -224 Q122 -224 118.5 -220 Q115 -216 120 -203 L140 -143 Z " />
<glyph glyph-name="Tcaron" unicode="&#x164;" horiz-adv-x="327" d="M107 573 Q107 587 103 590.5 Q99 594 93 594 L38 594 Q19 594 12.5 602 Q6 610 6 636 L6 659 Q6 687 13.5 696.5 Q21 706 41 706 L286 706 Q306 706 313 696.5 Q320 687 320 663 L320 637 Q320 611 313.5 602.5 Q307 594 287 594 L232 594 Q224 594 221.5 590 Q219 586 219 573 L219 47 Q219 19 212 9.5 Q205 0 185 0 L143 0 Q121 0 114 9 Q107 18 107 43 L107 573 Z M44 818 Q42 824 42 827 Q42 835 52 835 L98 835 Q105 835 110.5 833.5 Q116 832 122 824 L161 775 L198 824 Q204 832 209.5 833.5 Q215 835 223 835 L269 835 Q278 835 278 827 Q278 822 274 814 L239 748 Q234 738 229 735 Q224 732 211 732 L110 732 Q97 732 91.5 735 Q86 738 81 748 L44 818 Z " />
<glyph glyph-name="Tcommaaccent" unicode="&#x162;" horiz-adv-x="327" d="M107 573 Q107 587 103 590.5 Q99 594 93 594 L38 594 Q19 594 12.5 602 Q6 610 6 636 L6 659 Q6 687 13.5 696.5 Q21 706 41 706 L286 706 Q306 706 313 696.5 Q320 687 320 663 L320 637 Q320 611 313.5 602.5 Q307 594 287 594 L232 594 Q224 594 221.5 590 Q219 586 219 573 L219 47 Q219 19 212 9.5 Q205 0 185 0 L143 0 Q121 0 114 9 Q107 18 107 43 L107 573 Z M67 -90 Q67 -71 75 -64.5 Q83 -58 108 -58 L125 -58 Q146 -58 146 -37 Q146 -30 142.5 -14 Q139 2 131 28 L180 28 Q191 -7 194 -24 Q197 -41 197 -58 Q197 -98 182.5 -121.5 Q168 -145 142 -145 L104 -145 Q80 -145 73.5 -137.5 Q67 -130 67 -103 L67 -90 Z " />
<glyph glyph-name="uni021A" unicode="&#x21a;" horiz-adv-x="327" d="M107 573 Q107 587 103 590.5 Q99 594 93 594 L38 594 Q19 594 12.5 602 Q6 610 6 636 L6 659 Q6 687 13.5 696.5 Q21 706 41 706 L286 706 Q306 706 313 696.5 Q320 687 320 663 L320 637 Q320 611 313.5 602.5 Q307 594 287 594 L232 594 Q224 594 221.5 590 Q219 586 219 573 L219 47 Q219 19 212 9.5 Q205 0 185 0 L143 0 Q121 0 114 9 Q107 18 107 43 L107 573 Z M139 -143 Q141 -137 141.5 -130.5 Q142 -124 135 -124 L128 -124 Q117 -124 113 -116.5 Q109 -109 109 -85 L109 -72 Q109 -46 116.5 -35.5 Q124 -25 144 -25 L179 -25 Q197 -25 204.5 -35 Q212 -45 212 -69 L212 -86 Q212 -100 211.5 -107.5 Q211 -115 209 -123 L183 -203 Q176 -224 160 -224 L131 -224 Q121 -224 117.5 -220 Q114 -216 119 -203 L139 -143 Z " />
<glyph glyph-name="Ugrave" unicode="&#xd9;" horiz-adv-x="371" d="M24 659 Q24 686 32 696 Q40 706 61 706 L104 706 Q124 706 130 697 Q136 688 136 662 L136 172 Q136 143 148.5 126.5 Q161 110 187 110 Q210 110 222.5 126.5 Q235 143 235 173 L235 662 Q235 688 241.5 697 Q248 706 269 706 L314 706 Q335 706 341 697 Q347 688 347 662 L347 198 Q347 155 342 117 Q337 79 320 51 Q303 23 270.5 6.5 Q238 -10 183 -10 Q132 -10 101 3.5 Q70 17 53 43 Q36 69 30 106.5 Q24 144 24 193 L24 659 Z M75 804 Q64 813 64 821 Q64 835 79 835 L160 835 Q168 835 172 832 Q176 829 184 818 L231 755 Q236 749 236 742 Q236 732 225 732 L171 732 Q162 732 158.5 734.5 Q155 737 148 742 L75 804 Z " />
<glyph glyph-name="Uacute" unicode="&#xda;" horiz-adv-x="371" d="M24 659 Q24 686 32 696 Q40 706 61 706 L104 706 Q124 706 130 697 Q136 688 136 662 L136 172 Q136 143 148.5 126.5 Q161 110 187 110 Q210 110 222.5 126.5 Q235 143 235 173 L235 662 Q235 688 241.5 697 Q248 706 269 706 L314 706 Q335 706 341 697 Q347 688 347 662 L347 198 Q347 155 342 117 Q337 79 320 51 Q303 23 270.5 6.5 Q238 -10 183 -10 Q132 -10 101 3.5 Q70 17 53 43 Q36 69 30 106.5 Q24 144 24 193 L24 659 Z M189 819 Q197 830 200.5 832.5 Q204 835 212 835 L293 835 Q308 835 308 821 Q308 812 297 804 L224 742 Q217 737 214 734.5 Q211 732 201 732 L147 732 Q136 732 136 742 Q136 749 141 755 L189 819 Z " />
<glyph glyph-name="Ucircumflex" unicode="&#xdb;" horiz-adv-x="371" d="M24 659 Q24 686 32 696 Q40 706 61 706 L104 706 Q124 706 130 697 Q136 688 136 662 L136 172 Q136 143 148.5 126.5 Q161 110 187 110 Q210 110 222.5 126.5 Q235 143 235 173 L235 662 Q235 688 241.5 697 Q248 706 269 706 L314 706 Q335 706 341 697 Q347 688 347 662 L347 198 Q347 155 342 117 Q337 79 320 51 Q303 23 270.5 6.5 Q238 -10 183 -10 Q132 -10 101 3.5 Q70 17 53 43 Q36 69 30 106.5 Q24 144 24 193 L24 659 Z M107 818 Q112 828 117.5 831.5 Q123 835 136 835 L237 835 Q250 835 255 831.5 Q260 828 265 818 L302 749 Q303 747 304 744.5 Q305 742 305 740 Q305 732 295 732 L249 732 Q241 732 236 733.5 Q231 735 225 743 L186 794 L148 743 Q142 735 136.5 733.5 Q131 732 124 732 L78 732 Q68 732 68 740 Q68 743 70 749 L107 818 Z " />
<glyph glyph-name="Udieresis" unicode="&#xdc;" horiz-adv-x="371" d="M24 659 Q24 686 32 696 Q40 706 61 706 L104 706 Q124 706 130 697 Q136 688 136 662 L136 172 Q136 143 148.5 126.5 Q161 110 187 110 Q210 110 222.5 126.5 Q235 143 235 173 L235 662 Q235 688 241.5 697 Q248 706 269 706 L314 706 Q335 706 341 697 Q347 688 347 662 L347 198 Q347 155 342 117 Q337 79 320 51 Q303 23 270.5 6.5 Q238 -10 183 -10 Q132 -10 101 3.5 Q70 17 53 43 Q36 69 30 106.5 Q24 144 24 193 L24 659 Z M205 803 Q205 821 211 828.5 Q217 836 237 836 L262 836 Q282 836 288.5 828.5 Q295 821 295 803 L295 769 Q295 751 288.5 743.5 Q282 736 262 736 L237 736 Q217 736 211 743.5 Q205 751 205 769 L205 803 Z M77 803 Q77 821 83 828.5 Q89 836 109 836 L134 836 Q154 836 160.5 828.5 Q167 821 167 803 L167 769 Q167 751 160.5 743.5 Q154 736 134 736 L109 736 Q89 736 83 743.5 Q77 751 77 769 L77 803 Z " />
<glyph glyph-name="Umacron" unicode="&#x16a;" horiz-adv-x="371" d="M24 659 Q24 686 32 696 Q40 706 61 706 L104 706 Q124 706 130 697 Q136 688 136 662 L136 172 Q136 143 148.5 126.5 Q161 110 187 110 Q210 110 222.5 126.5 Q235 143 235 173 L235 662 Q235 688 241.5 697 Q248 706 269 706 L314 706 Q335 706 341 697 Q347 688 347 662 L347 198 Q347 155 342 117 Q337 79 320 51 Q303 23 270.5 6.5 Q238 -10 183 -10 Q132 -10 101 3.5 Q70 17 53 43 Q36 69 30 106.5 Q24 144 24 193 L24 659 Z M73 788 Q73 811 84 816 Q95 821 121 821 L252 821 Q278 821 288.5 816 Q299 811 299 788 L299 772 Q299 749 288.5 744 Q278 739 252 739 L121 739 Q95 739 84 744 Q73 749 73 772 L73 788 Z " />
<glyph glyph-name="Uring" unicode="&#x16e;" horiz-adv-x="371" d="M24 659 Q24 686 32 696 Q40 706 61 706 L104 706 Q124 706 130 697 Q136 688 136 662 L136 172 Q136 143 148.5 126.5 Q161 110 187 110 Q210 110 222.5 126.5 Q235 143 235 173 L235 662 Q235 688 241.5 697 Q248 706 269 706 L314 706 Q335 706 341 697 Q347 688 347 662 L347 198 Q347 155 342 117 Q337 79 320 51 Q303 23 270.5 6.5 Q238 -10 183 -10 Q132 -10 101 3.5 Q70 17 53 43 Q36 69 30 106.5 Q24 144 24 193 L24 659 Z M187 696 Q151 696 126.5 721.5 Q102 747 102 784 Q102 824 126 849.5 Q150 875 187 875 Q223 875 246.5 849.5 Q270 824 270 783 Q270 745 246 720.5 Q222 696 187 696 Z M186 740 Q203 740 214 753 Q225 766 225 783 Q225 801 214 814.5 Q203 828 186 828 Q168 828 157.5 815 Q147 802 147 784 Q147 766 157.5 753 Q168 740 186 740 Z " />
<glyph glyph-name="Uhungarumlaut" unicode="&#x170;" horiz-adv-x="371" d="M24 659 Q24 686 32 696 Q40 706 61 706 L104 706 Q124 706 130 697 Q136 688 136 662 L136 172 Q136 143 148.5 126.5 Q161 110 187 110 Q210 110 222.5 126.5 Q235 143 235 173 L235 662 Q235 688 241.5 697 Q248 706 269 706 L314 706 Q335 706 341 697 Q347 688 347 662 L347 198 Q347 155 342 117 Q337 79 320 51 Q303 23 270.5 6.5 Q238 -10 183 -10 Q132 -10 101 3.5 Q70 17 53 43 Q36 69 30 106.5 Q24 144 24 193 L24 659 Z M233 813 Q241 827 243.5 831 Q246 835 254 835 L310 835 Q318 835 321.5 828.5 Q325 822 318 814 L261 748 Q253 738 249.5 735 Q246 732 238 732 L203 732 Q198 732 195 738.5 Q192 745 198 755 L233 813 Z M124 813 Q132 825 135.5 830 Q139 835 147 835 L201 835 Q209 835 212.5 828 Q216 821 210 814 L152 748 Q144 738 140.5 735 Q137 732 129 732 L95 732 Q89 732 85.5 738.5 Q82 745 88 755 L124 813 Z " />
<glyph glyph-name="Uogonek" unicode="&#x172;" horiz-adv-x="371" d="M308 -111 Q308 -138 301.5 -146.5 Q295 -155 271 -155 L219 -155 Q190 -155 171.5 -137 Q153 -119 153 -93 Q153 -68 167 -47 Q181 -26 206 -9 Q200 -10 194.5 -10 Q189 -10 183 -10 Q132 -10 101 3.5 Q70 17 53 43 Q36 69 30 106.5 Q24 144 24 193 L24 659 Q24 686 32 696 Q40 706 61 706 L104 706 Q124 706 130 697 Q136 688 136 662 L136 172 Q136 143 148.5 126.5 Q161 110 187 110 Q210 110 222.5 126.5 Q235 143 235 173 L235 662 Q235 688 241.5 697 Q248 706 269 706 L314 706 Q335 706 341 697 Q347 688 347 662 L347 189 Q347 124 331.5 82.5 Q316 41 273 5 Q257 -9 244.5 -26.5 Q232 -44 232 -56 Q232 -73 253 -73 L267 -73 Q292 -73 300 -80 Q308 -87 308 -106 L308 -111 Z " />
<glyph glyph-name="Yacute" unicode="&#xdd;" horiz-adv-x="356" d="M122 261 L5 669 Q1 682 4 694 Q7 706 24 706 L84 706 Q95 706 101 701.5 Q107 697 112 680 L170 443 Q172 435 173.5 433 Q175 431 178 431 Q181 431 182.5 433 Q184 435 186 443 L244 680 Q249 697 255 701.5 Q261 706 272 706 L332 706 Q349 706 352 694 Q355 682 351 669 L234 261 L234 45 Q234 17 227.5 8.5 Q221 0 199 0 L156 0 Q135 0 128.5 8.5 Q122 17 122 45 L122 261 Z M161 819 Q169 830 172.5 832.5 Q176 835 184 835 L265 835 Q280 835 280 821 Q280 812 269 804 L196 742 Q189 737 186 734.5 Q183 732 173 732 L119 732 Q108 732 108 742 Q108 749 113 755 L161 819 Z " />
<glyph glyph-name="Ydieresis" unicode="&#x178;" horiz-adv-x="356" d="M122 261 L5 669 Q1 682 4 694 Q7 706 24 706 L84 706 Q95 706 101 701.5 Q107 697 112 680 L170 443 Q172 435 173.5 433 Q175 431 178 431 Q181 431 182.5 433 Q184 435 186 443 L244 680 Q249 697 255 701.5 Q261 706 272 706 L332 706 Q349 706 352 694 Q355 682 351 669 L234 261 L234 45 Q234 17 227.5 8.5 Q221 0 199 0 L156 0 Q135 0 128.5 8.5 Q122 17 122 45 L122 261 Z M200 803 Q200 821 206 828.5 Q212 836 232 836 L257 836 Q277 836 283.5 828.5 Q290 821 290 803 L290 769 Q290 751 283.5 743.5 Q277 736 257 736 L232 736 Q212 736 206 743.5 Q200 751 200 769 L200 803 Z M72 803 Q72 821 78 828.5 Q84 836 104 836 L129 836 Q149 836 155.5 828.5 Q162 821 162 803 L162 769 Q162 751 155.5 743.5 Q149 736 129 736 L104 736 Q84 736 78 743.5 Q72 751 72 769 L72 803 Z " />
<glyph glyph-name="Zacute" unicode="&#x179;" horiz-adv-x="321" d="M9 109 Q9 115 9.5 121 Q10 127 11.5 135 Q13 143 17 154 Q21 165 28 182 L198 575 Q201 583 199.5 588.5 Q198 594 189 594 L54 594 Q42 594 35.5 595.5 Q29 597 25 601.5 Q21 606 20 614.5 Q19 623 19 637 L19 661 Q19 688 25 697 Q31 706 53 706 L279 706 Q311 706 311 664 L311 591 Q311 581 307.5 567 Q304 553 296 534 L124 137 Q119 128 121 120 Q123 112 134 112 L278 112 Q298 112 305 103 Q312 94 312 66 L312 43 Q312 18 304 9 Q296 0 273 0 L43 0 Q23 0 16 8 Q9 16 9 42 L9 109 Z M152 819 Q160 830 163.5 832.5 Q167 835 175 835 L256 835 Q271 835 271 821 Q271 812 260 804 L187 742 Q180 737 177 734.5 Q174 732 164 732 L110 732 Q99 732 99 742 Q99 749 104 755 L152 819 Z " />
<glyph glyph-name="Zcaron" unicode="&#x17d;" horiz-adv-x="321" d="M9 109 Q9 115 9.5 121 Q10 127 11.5 135 Q13 143 17 154 Q21 165 28 182 L198 575 Q201 583 199.5 588.5 Q198 594 189 594 L54 594 Q42 594 35.5 595.5 Q29 597 25 601.5 Q21 606 20 614.5 Q19 623 19 637 L19 661 Q19 688 25 697 Q31 706 53 706 L279 706 Q311 706 311 664 L311 591 Q311 581 307.5 567 Q304 553 296 534 L124 137 Q119 128 121 120 Q123 112 134 112 L278 112 Q298 112 305 103 Q312 94 312 66 L312 43 Q312 18 304 9 Q296 0 273 0 L43 0 Q23 0 16 8 Q9 16 9 42 L9 109 Z M53 818 Q51 824 51 827 Q51 835 61 835 L107 835 Q114 835 119.5 833.5 Q125 832 131 824 L170 775 L207 824 Q213 832 218.5 833.5 Q224 835 232 835 L278 835 Q287 835 287 827 Q287 822 283 814 L248 748 Q243 738 238 735 Q233 732 220 732 L119 732 Q106 732 100.5 735 Q95 738 90 748 L53 818 Z " />
<glyph glyph-name="Zdotaccent" unicode="&#x17b;" horiz-adv-x="321" d="M9 109 Q9 115 9.5 121 Q10 127 11.5 135 Q13 143 17 154 Q21 165 28 182 L198 575 Q201 583 199.5 588.5 Q198 594 189 594 L54 594 Q42 594 35.5 595.5 Q29 597 25 601.5 Q21 606 20 614.5 Q19 623 19 637 L19 661 Q19 688 25 697 Q31 706 53 706 L279 706 Q311 706 311 664 L311 591 Q311 581 307.5 567 Q304 553 296 534 L124 137 Q119 128 121 120 Q123 112 134 112 L278 112 Q298 112 305 103 Q312 94 312 66 L312 43 Q312 18 304 9 Q296 0 273 0 L43 0 Q23 0 16 8 Q9 16 9 42 L9 109 Z M122 802 Q122 820 128 827.5 Q134 835 154 835 L177 835 Q197 835 203.5 827.5 Q210 820 210 802 L210 770 Q210 752 203.5 744.5 Q197 737 177 737 L154 737 Q134 737 128 744.5 Q122 752 122 770 L122 802 Z " />
<glyph glyph-name="Eth" unicode="&#xd0;" horiz-adv-x="385" d="M45 329 Q21 329 10.5 334.5 Q0 340 0 362 L0 388 Q0 410 10.5 415.5 Q21 421 45 421 L45 658 Q45 684 52 695 Q59 706 78 706 L236 706 Q280 706 306 687.5 Q332 669 345.5 627 Q359 585 362.5 517.5 Q366 450 366 353 Q366 238 360.5 168.5 Q355 99 340 61.5 Q325 24 298.5 12 Q272 0 230 0 L82 0 Q59 0 52 8 Q45 16 45 45 L45 329 Z M157 421 L164 421 Q190 421 200.5 416 Q211 411 211 388 L211 362 Q211 339 200.5 334 Q190 329 164 329 L157 329 L157 140 Q157 120 163.5 116 Q170 112 194 112 Q213 112 225 118 Q237 124 243.5 147.5 Q250 171 252 217 Q254 263 254 343 Q254 431 252.5 481.5 Q251 532 244.5 557 Q238 582 225.5 588 Q213 594 191 594 Q171 594 164 589 Q157 584 157 562 L157 421 Z " />
<glyph glyph-name="Thorn" unicode="&#xde;" horiz-adv-x="352" d="M30 658 Q30 686 37 696 Q44 706 64 706 L110 706 Q128 706 135 695.5 Q142 685 142 658 L142 594 L209 594 Q280 594 312.5 537 Q345 480 345 368 Q345 262 316.5 206 Q288 150 226 150 L142 150 L142 45 Q142 17 135.5 8.5 Q129 0 108 0 L63 0 Q42 0 36 8 Q30 16 30 45 L30 658 Z M192 262 Q214 262 223 284.5 Q232 307 232 369 Q232 434 223 458 Q214 482 192 482 L159 482 Q152 482 147 479.5 Q142 477 142 467 L142 280 Q142 269 146 265.5 Q150 262 158 262 L192 262 Z " />
<glyph glyph-name="a" unicode="a" horiz-adv-x="378" d="M90 665 Q93 688 102.5 697 Q112 706 134 706 L241 706 Q260 706 269.5 696.5 Q279 687 282 664 L372 21 Q375 0 356 0 L280 0 Q272 0 268 4 Q264 8 262 19 L240 175 Q238 186 234.5 189 Q231 192 222 192 L153 192 Q145 192 141 189 Q137 186 135 175 L117 17 Q115 6 111.5 3 Q108 0 97 0 L24 0 Q3 0 6 21 L90 665 Z M208 302 Q225 302 223 315 L195 572 Q194 588 187 588 Q179 588 178 571 L152 315 Q152 302 166 302 L208 302 Z " />
<glyph glyph-name="b" unicode="b" horiz-adv-x="374" d="M30 660 Q30 686 37 696 Q44 706 63 706 L236 706 Q270 706 291.5 692 Q313 678 325.5 654 Q338 630 343 597.5 Q348 565 348 528 Q348 461 334.5 424 Q321 387 290 368 Q323 355 340 310 Q357 265 357 190 Q357 149 350.5 114.5 Q344 80 330 54.5 Q316 29 293 14.5 Q270 0 236 0 L63 0 Q43 0 36.5 9.5 Q30 19 30 47 L30 660 Z M191 416 Q220 416 229 439.5 Q238 463 238 507 Q238 557 225 577 Q212 597 191 597 L160 597 Q149 597 145.5 593 Q142 589 142 576 L142 438 Q142 426 145.5 421 Q149 416 160 416 L191 416 Z M191 109 Q223 109 234 133.5 Q245 158 245 210 Q245 267 231 290.5 Q217 314 191 314 L160 314 Q149 314 145.5 309.5 Q142 305 142 292 L142 130 Q142 119 145.5 114 Q149 109 160 109 L191 109 Z " />
<glyph glyph-name="c" unicode="c" horiz-adv-x="299" d="M146 0 Q106 0 81 13.5 Q56 27 42.5 64.5 Q29 102 24 168.5 Q19 235 19 340 Q19 445 21.5 515.5 Q24 586 36 628.5 Q48 671 72.5 688.5 Q97 706 141 706 L261 706 Q279 706 286.5 697.5 Q294 689 294 669 L294 634 Q294 609 287 601.5 Q280 594 259 594 L180 594 Q163 594 153.5 587.5 Q144 581 139 556 Q134 531 132.5 483 Q131 435 131 351 Q131 268 132.5 220.5 Q134 173 139 149 Q144 125 153.5 118.5 Q163 112 178 112 L259 112 Q278 112 285.5 104 Q293 96 293 76 L293 38 Q293 17 285.5 8.5 Q278 0 261 0 L146 0 Z " />
<glyph glyph-name="d" unicode="d" horiz-adv-x="370" d="M30 658 Q30 684 37 695 Q44 706 63 706 L221 706 Q265 706 291 687.5 Q317 669 330.5 627 Q344 585 347.5 517.5 Q351 450 351 353 Q351 238 345.5 168.5 Q340 99 325 61.5 Q310 24 283.5 12 Q257 0 215 0 L67 0 Q44 0 37 8 Q30 16 30 45 L30 658 Z M142 140 Q142 120 148.5 116 Q155 112 179 112 Q198 112 210 118 Q222 124 228.5 147.5 Q235 171 237 217 Q239 263 239 343 Q239 431 237.5 481.5 Q236 532 229.5 557 Q223 582 210.5 588 Q198 594 176 594 Q156 594 149 589 Q142 584 142 562 L142 140 Z " />
<glyph glyph-name="e" unicode="e" horiz-adv-x="315" d="M30 659 Q30 685 37.5 695.5 Q45 706 65 706 L265 706 Q285 706 292 698 Q299 690 299 664 L299 638 Q299 612 292 603 Q285 594 265 594 L161 594 Q149 594 145.5 589.5 Q142 585 142 571 L142 453 Q142 438 144.5 434.5 Q147 431 161 431 L214 431 Q231 431 238 424 Q245 417 245 395 L245 354 Q245 334 238 326.5 Q231 319 214 319 L161 319 Q150 319 146 316 Q142 313 142 303 L142 135 Q142 122 146 117 Q150 112 164 112 L269 112 Q291 112 299 102 Q307 92 307 66 L307 45 Q307 21 299 10.5 Q291 0 271 0 L65 0 Q44 0 37 9.5 Q30 19 30 47 L30 659 Z " />
<glyph glyph-name="f" unicode="f" horiz-adv-x="296" d="M30 657 Q30 686 37 696 Q44 706 64 706 L253 706 Q274 706 282 696 Q290 686 290 660 L290 636 Q290 612 283 603 Q276 594 258 594 L161 594 Q148 594 145 589 Q142 584 142 565 L142 450 Q142 439 145 435 Q148 431 156 431 L214 431 Q234 431 240 422.5 Q246 414 246 389 L246 365 Q246 339 239.5 329 Q233 319 213 319 L161 319 Q148 319 145 314 Q142 309 142 292 L142 44 Q142 19 135.5 9.5 Q129 0 112 0 L63 0 Q43 0 36.5 9 Q30 18 30 44 L30 657 Z " />
<glyph glyph-name="g" unicode="g" horiz-adv-x="369" d="M247 298 Q247 314 241.5 319.5 Q236 325 228 325 L203 325 Q189 325 186.5 333.5 Q184 342 184 358 L184 394 Q184 417 190.5 427 Q197 437 223 437 L318 437 Q338 437 344.5 425.5 Q351 414 351 390 L351 202 Q351 157 344.5 119 Q338 81 320 53 Q302 25 271 9 Q240 -7 191 -7 Q127 -7 92 15 Q57 37 41 81.5 Q25 126 22.5 193 Q20 260 20 350 Q20 437 22 503.5 Q24 570 35 615 Q46 660 69 683 Q92 706 135 706 L278 706 Q298 706 306 698 Q314 690 314 661 L314 640 Q314 614 307.5 604 Q301 594 282 594 L195 594 Q174 594 162 590 Q150 586 143 562.5 Q136 539 134 489 Q132 439 132 347 L132 179 Q132 139 149 123 Q166 107 192 107 Q217 107 232 125 Q247 143 247 181 L247 298 Z " />
<glyph glyph-name="h" unicode="h" horiz-adv-x="392" d="M30 660 Q30 686 37.5 696 Q45 706 64 706 L111 706 Q128 706 135 695 Q142 684 142 661 L142 450 Q142 437 146 433.5 Q150 430 158 430 L234 430 Q242 430 246 433.5 Q250 437 250 450 L250 661 Q250 684 257 695 Q264 706 281 706 L328 706 Q347 706 354.5 696 Q362 686 362 660 L362 47 Q362 20 355 10 Q348 0 328 0 L282 0 Q262 0 256 11 Q250 22 250 45 L250 297 Q250 310 246.5 314.5 Q243 319 233 319 L159 319 Q148 319 145 314.5 Q142 310 142 297 L142 45 Q142 22 136 11 Q130 0 109 0 L64 0 Q44 0 37 10 Q30 20 30 47 L30 660 Z " />
<glyph glyph-name="i" unicode="i" horiz-adv-x="172" d="M30 658 Q30 686 37 696 Q44 706 64 706 L110 706 Q128 706 135 695.5 Q142 685 142 658 L142 44 Q142 15 134.5 7.5 Q127 0 107 0 L67 0 Q44 0 37 9 Q30 18 30 47 L30 658 Z " />
<glyph glyph-name="j" unicode="j" horiz-adv-x="243" d="M5 71 Q5 99 12.5 106 Q20 113 39 113 L61 113 Q87 113 97 121.5 Q107 130 107 159 L107 661 Q107 688 114 697 Q121 706 143 706 L183 706 Q206 706 212.5 697 Q219 688 219 662 L219 177 Q219 143 214 113.5 Q209 84 195 58 Q178 28 152 14 Q126 0 80 0 L42 0 Q19 0 12 8 Q5 16 5 43 L5 71 Z " />
<glyph glyph-name="k" unicode="k" horiz-adv-x="383" d="M30 658 Q30 686 37 696 Q44 706 64 706 L110 706 Q128 706 135 695.5 Q142 685 142 658 L142 484 Q142 480 143 476.5 Q144 473 148 473 Q152 473 158 484 L246 665 Q256 687 262.5 696.5 Q269 706 286 706 L365 706 Q378 706 378 693 Q378 690 377 685.5 Q376 681 371 673 L270 474 Q268 469 265.5 463.5 Q263 458 263 453 Q263 447 263.5 442.5 Q264 438 266 432 L373 32 Q379 11 374.5 5.5 Q370 0 356 0 L282 0 Q268 0 262.5 6 Q257 12 252 31 L193 297 Q190 310 187.5 316 Q185 322 180 322 Q174 322 169 313.5 Q164 305 152 278 Q142 254 142 216 L142 44 Q142 15 134.5 7.5 Q127 0 107 0 L67 0 Q44 0 37 9 Q30 18 30 47 L30 658 Z " />
<glyph glyph-name="l" unicode="l" horiz-adv-x="286" d="M30 660 Q30 685 37.5 695.5 Q45 706 64 706 L108 706 Q129 706 135.5 696 Q142 686 142 660 L142 134 Q142 121 146.5 116.5 Q151 112 159 112 L245 112 Q265 112 273 102.5 Q281 93 281 67 L281 45 Q281 21 271.5 10.5 Q262 0 242 0 L64 0 Q43 0 36.5 9 Q30 18 30 47 L30 660 Z " />
<glyph glyph-name="m" unicode="m" horiz-adv-x="485" d="M30 662 Q30 688 36.5 697 Q43 706 63 706 L110 706 Q135 706 143 701 Q151 696 157 673 L234 397 Q237 387 243 387 Q248 387 251 397 L328 673 Q334 696 342 701 Q350 706 375 706 L421 706 Q441 706 448 697 Q455 688 455 662 L455 45 Q455 16 448.5 8 Q442 0 420 0 L377 0 Q356 0 349.5 9.5 Q343 19 343 44 L343 344 Q343 355 342 362 Q341 369 336 369 Q330 369 326.5 359 Q323 349 320 335 L276 134 Q271 114 263 108 Q255 102 243 102 Q230 102 222 108 Q214 114 209 134 L165 334 Q161 351 158.5 360 Q156 369 149 369 Q144 369 143 362 Q142 355 142 344 L142 44 Q142 19 135.5 9.5 Q129 0 108 0 L64 0 Q42 0 36 8 Q30 16 30 45 L30 662 Z " />
<glyph glyph-name="n" unicode="n" horiz-adv-x="403" d="M30 659 Q30 687 37 696.5 Q44 706 67 706 L94 706 Q113 706 120 700.5 Q127 695 135 673 L239 379 Q245 362 248 358.5 Q251 355 255 355 Q258 355 259.5 359 Q261 363 261 375 L261 659 Q261 684 268 695 Q275 706 294 706 L335 706 Q352 706 362.5 697.5 Q373 689 373 658 L373 48 Q373 20 366 10 Q359 0 336 0 L309 0 Q290 0 283 5 Q276 10 268 33 L163 330 Q158 345 155 348.5 Q152 352 149 352 Q145 352 143.5 348 Q142 344 142 332 L142 47 Q142 22 135.5 11 Q129 0 110 0 L68 0 Q50 0 40 8 Q30 16 30 48 L30 659 Z " />
<glyph glyph-name="o" unicode="o" horiz-adv-x="361" d="M180 -10 Q120 -10 87 16 Q54 42 39 89.5 Q24 137 21.5 204 Q19 271 19 354 Q19 437 21.5 503.5 Q24 570 39 616.5 Q54 663 87 688 Q120 713 180 713 Q240 713 273 688 Q306 663 321.5 616.5 Q337 570 339.5 503.5 Q342 437 342 354 Q342 271 339.5 204 Q337 137 321.5 89.5 Q306 42 273 16 Q240 -10 180 -10 Z M180 113 Q196 113 206 121.5 Q216 130 221 156 Q226 182 228 229.5 Q230 277 230 354 Q230 429 228 475.5 Q226 522 221 548 Q216 574 206 583 Q196 592 180 592 Q164 592 154.5 583 Q145 574 139.5 548 Q134 522 132.5 475.5 Q131 429 131 354 Q131 277 132.5 229.5 Q134 182 139.5 156 Q145 130 154.5 121.5 Q164 113 180 113 Z " />
<glyph glyph-name="p" unicode="p" horiz-adv-x="354" d="M30 657 Q30 684 37 695 Q44 706 63 706 L209 706 Q280 706 312.5 649 Q345 592 345 480 Q345 374 316.5 318 Q288 262 226 262 L142 262 L142 45 Q142 17 135.5 8.5 Q129 0 108 0 L63 0 Q42 0 36 8 Q30 16 30 45 L30 657 Z M192 374 Q214 374 223 396.5 Q232 419 232 481 Q232 546 223 570 Q214 594 192 594 L159 594 Q151 594 146.5 591 Q142 588 142 575 L142 392 Q142 381 146 377.5 Q150 374 158 374 L192 374 Z " />
<glyph glyph-name="q" unicode="q" horiz-adv-x="361" d="M180 -10 Q120 -10 87 16 Q54 42 39 89.5 Q24 137 21.5 204 Q19 271 19 354 Q19 437 21.5 503.5 Q24 570 39 616.5 Q54 663 87 688 Q120 713 180 713 Q240 713 273 688 Q306 663 321.5 616.5 Q337 570 339.5 503.5 Q342 437 342 354 Q342 247 336 167 Q330 87 298 41 L353 -19 Q364 -30 363 -38 Q362 -46 348 -53 L295 -77 Q282 -83 274 -79.5 Q266 -76 254 -61 L213 -7 Q198 -10 180 -10 Z M180 113 Q196 113 206 121.5 Q216 130 221 156 Q226 182 228 229.5 Q230 277 230 354 Q230 429 228 475.5 Q226 522 221 548 Q216 574 206 583 Q196 592 180 592 Q164 592 154.5 583 Q145 574 139.5 548 Q134 522 132.5 475.5 Q131 429 131 354 Q131 277 132.5 229.5 Q134 182 139.5 156 Q145 130 154.5 121.5 Q164 113 180 113 Z " />
<glyph glyph-name="r" unicode="r" horiz-adv-x="356" d="M151 302 Q142 302 142 292 L142 45 Q142 17 135.5 8.5 Q129 0 108 0 L63 0 Q42 0 36 8 Q30 16 30 45 L30 657 Q30 684 37 695 Q44 706 63 706 L195 706 Q265 706 305 658.5 Q345 611 345 500 Q345 426 328 387 Q311 348 282 326 L347 29 Q348 24 348.5 20.5 Q349 17 349 15 Q349 0 330 0 L259 0 Q245 0 240 5.5 Q235 11 231 31 L179 291 Q177 299 174 300.5 Q171 302 164 302 L151 302 Z M185 414 Q196 414 204.5 416.5 Q213 419 219 428 Q225 437 228.5 454.5 Q232 472 232 501 Q232 531 228.5 549.5 Q225 568 219 578 Q213 588 204.5 591 Q196 594 185 594 L159 594 Q151 594 146.5 591 Q142 588 142 575 L142 432 Q142 421 146 417.5 Q150 414 158 414 L185 414 Z " />
<glyph glyph-name="s" unicode="s" horiz-adv-x="317" d="M14 67 Q14 95 21 103.5 Q28 112 48 112 L157 112 Q180 112 186.5 131.5 Q193 151 179 177 L60 402 Q42 435 32 460.5 Q22 486 17 506.5 Q12 527 10.5 543 Q9 559 9 574 Q9 646 46 676 Q83 706 149 706 L251 706 Q281 706 281 668 L281 634 Q281 611 273 602.5 Q265 594 248 594 L154 594 Q128 594 120.5 572.5 Q113 551 131 518 L244 310 Q265 271 278 243.5 Q291 216 298 194.5 Q305 173 307.5 155 Q310 137 310 117 Q310 85 299.5 63 Q289 41 271.5 27 Q254 13 230.5 6.5 Q207 0 182 0 L49 0 Q29 0 21.5 8.5 Q14 17 14 43 L14 67 Z " />
<glyph glyph-name="t" unicode="t" horiz-adv-x="327" d="M107 573 Q107 587 103 590.5 Q99 594 93 594 L38 594 Q19 594 12.5 602 Q6 610 6 636 L6 659 Q6 687 13.5 696.5 Q21 706 41 706 L286 706 Q306 706 313 696.5 Q320 687 320 663 L320 637 Q320 611 313.5 602.5 Q307 594 287 594 L232 594 Q224 594 221.5 590 Q219 586 219 573 L219 47 Q219 19 212 9.5 Q205 0 185 0 L143 0 Q121 0 114 9 Q107 18 107 43 L107 573 Z " />
<glyph glyph-name="u" unicode="u" horiz-adv-x="371" d="M24 659 Q24 686 32 696 Q40 706 61 706 L104 706 Q124 706 130 697 Q136 688 136 662 L136 172 Q136 143 148.5 126.5 Q161 110 187 110 Q210 110 222.5 126.5 Q235 143 235 173 L235 662 Q235 688 241.5 697 Q248 706 269 706 L314 706 Q335 706 341 697 Q347 688 347 662 L347 198 Q347 155 342 117 Q337 79 320 51 Q303 23 270.5 6.5 Q238 -10 183 -10 Q132 -10 101 3.5 Q70 17 53 43 Q36 69 30 106.5 Q24 144 24 193 L24 659 Z " />
<glyph glyph-name="v" unicode="v" horiz-adv-x="373" d="M7 676 Q5 692 8.5 699 Q12 706 26 706 L91 706 Q104 706 110 700.5 Q116 695 119 672 L177 246 Q178 230 187 230 Q195 230 196 246 L254 672 Q257 695 263 700.5 Q269 706 282 706 L347 706 Q361 706 364.5 698.5 Q368 691 366 675 L261 29 Q258 12 252.5 6 Q247 0 233 0 L141 0 Q127 0 121.5 6 Q116 12 113 29 L7 676 Z " />
<glyph glyph-name="w" unicode="w" horiz-adv-x="576" d="M8 667 Q6 681 7.5 689 Q9 697 12.5 700.5 Q16 704 22 705 Q28 706 35 706 L93 706 Q106 706 110.5 699.5 Q115 693 118 675 L176 299 Q179 285 185 285 Q190 285 194 299 L245 534 L231 668 Q229 682 232.5 694 Q236 706 257 706 L319 706 Q333 706 338 699 Q343 692 345 675 L391 300 Q392 285 399 285 Q406 285 408 300 L458 678 Q461 706 482 706 L546 706 Q561 706 566.5 698.5 Q572 691 568 668 L456 31 Q453 14 446.5 7 Q440 0 426 0 L360 0 Q343 0 337.5 6 Q332 12 330 32 L294 298 Q293 302 292.5 306 Q292 310 289 310 Q286 310 284.5 306.5 Q283 303 282 299 L217 21 Q215 10 209 5 Q203 0 189 0 L136 0 Q122 0 117 5 Q112 10 110 26 L8 667 Z " />
<glyph glyph-name="x" unicode="x" horiz-adv-x="354" d="M77 366 L9 668 Q1 706 30 706 L95 706 Q116 706 122 677 L168 448 Q171 434 177 434 Q182 434 185 448 L231 677 Q237 706 259 706 L323 706 Q353 706 345 668 L276 366 L345 39 Q350 19 346.5 9.5 Q343 0 328 0 L261 0 Q237 0 233 26 L186 275 Q183 288 177 288 Q170 288 167 275 L121 26 Q117 0 93 0 L26 0 Q11 0 7.5 9.5 Q4 19 9 39 L77 366 Z " />
<glyph glyph-name="y" unicode="y" horiz-adv-x="356" d="M122 261 L5 669 Q1 682 4 694 Q7 706 24 706 L84 706 Q95 706 101 701.5 Q107 697 112 680 L170 443 Q172 435 173.5 433 Q175 431 178 431 Q181 431 182.5 433 Q184 435 186 443 L244 680 Q249 697 255 701.5 Q261 706 272 706 L332 706 Q349 706 352 694 Q355 682 351 669 L234 261 L234 45 Q234 17 227.5 8.5 Q221 0 199 0 L156 0 Q135 0 128.5 8.5 Q122 17 122 45 L122 261 Z " />
<glyph glyph-name="z" unicode="z" horiz-adv-x="321" d="M9 109 Q9 115 9.5 121 Q10 127 11.5 135 Q13 143 17 154 Q21 165 28 182 L198 575 Q201 583 199.5 588.5 Q198 594 189 594 L54 594 Q42 594 35.5 595.5 Q29 597 25 601.5 Q21 606 20 614.5 Q19 623 19 637 L19 661 Q19 688 25 697 Q31 706 53 706 L279 706 Q311 706 311 664 L311 591 Q311 581 307.5 567 Q304 553 296 534 L124 137 Q119 128 121 120 Q123 112 134 112 L278 112 Q298 112 305 103 Q312 94 312 66 L312 43 Q312 18 304 9 Q296 0 273 0 L43 0 Q23 0 16 8 Q9 16 9 42 L9 109 Z " />
<glyph glyph-name="agrave" unicode="&#xe0;" horiz-adv-x="378" d="M90 665 Q93 688 102.5 697 Q112 706 134 706 L241 706 Q260 706 269.5 696.5 Q279 687 282 664 L372 21 Q375 0 356 0 L280 0 Q272 0 268 4 Q264 8 262 19 L240 175 Q238 186 234.5 189 Q231 192 222 192 L153 192 Q145 192 141 189 Q137 186 135 175 L117 17 Q115 6 111.5 3 Q108 0 97 0 L24 0 Q3 0 6 21 L90 665 Z M208 302 Q225 302 223 315 L195 572 Q194 588 187 588 Q179 588 178 571 L152 315 Q152 302 166 302 L208 302 Z M83 804 Q72 813 72 821 Q72 835 87 835 L168 835 Q176 835 180 832 Q184 829 192 818 L239 755 Q244 749 244 742 Q244 732 233 732 L179 732 Q170 732 166.5 734.5 Q163 737 156 742 L83 804 Z " />
<glyph glyph-name="aacute" unicode="&#xe1;" horiz-adv-x="378" d="M90 665 Q93 688 102.5 697 Q112 706 134 706 L241 706 Q260 706 269.5 696.5 Q279 687 282 664 L372 21 Q375 0 356 0 L280 0 Q272 0 268 4 Q264 8 262 19 L240 175 Q238 186 234.5 189 Q231 192 222 192 L153 192 Q145 192 141 189 Q137 186 135 175 L117 17 Q115 6 111.5 3 Q108 0 97 0 L24 0 Q3 0 6 21 L90 665 Z M208 302 Q225 302 223 315 L195 572 Q194 588 187 588 Q179 588 178 571 L152 315 Q152 302 166 302 L208 302 Z M185 819 Q193 830 196.5 832.5 Q200 835 208 835 L289 835 Q304 835 304 821 Q304 812 293 804 L220 742 Q213 737 210 734.5 Q207 732 197 732 L143 732 Q132 732 132 742 Q132 749 137 755 L185 819 Z " />
<glyph glyph-name="acircumflex" unicode="&#xe2;" horiz-adv-x="378" d="M90 665 Q93 688 102.5 697 Q112 706 134 706 L241 706 Q260 706 269.5 696.5 Q279 687 282 664 L372 21 Q375 0 356 0 L280 0 Q272 0 268 4 Q264 8 262 19 L240 175 Q238 186 234.5 189 Q231 192 222 192 L153 192 Q145 192 141 189 Q137 186 135 175 L117 17 Q115 6 111.5 3 Q108 0 97 0 L24 0 Q3 0 6 21 L90 665 Z M208 302 Q225 302 223 315 L195 572 Q194 588 187 588 Q179 588 178 571 L152 315 Q152 302 166 302 L208 302 Z M111 818 Q116 828 121.5 831.5 Q127 835 140 835 L241 835 Q254 835 259 831.5 Q264 828 269 818 L306 749 Q307 747 308 744.5 Q309 742 309 740 Q309 732 299 732 L253 732 Q245 732 240 733.5 Q235 735 229 743 L190 794 L152 743 Q146 735 140.5 733.5 Q135 732 128 732 L82 732 Q72 732 72 740 Q72 743 74 749 L111 818 Z " />
<glyph glyph-name="atilde" unicode="&#xe3;" horiz-adv-x="378" d="M90 665 Q93 688 102.5 697 Q112 706 134 706 L241 706 Q260 706 269.5 696.5 Q279 687 282 664 L372 21 Q375 0 356 0 L280 0 Q272 0 268 4 Q264 8 262 19 L240 175 Q238 186 234.5 189 Q231 192 222 192 L153 192 Q145 192 141 189 Q137 186 135 175 L117 17 Q115 6 111.5 3 Q108 0 97 0 L24 0 Q3 0 6 21 L90 665 Z M208 302 Q225 302 223 315 L195 572 Q194 588 187 588 Q179 588 178 571 L152 315 Q152 302 166 302 L208 302 Z M65 802 Q65 815 70.5 823.5 Q76 832 92 832 L129 832 Q134 832 138.5 831 Q143 830 147 829 L222 806 Q229 803 235 803 Q239 803 239 810 L239 815 Q239 823 244.5 827.5 Q250 832 256 832 L277 832 Q294 832 299 825.5 Q304 819 304 804 L304 767 Q304 754 299 745.5 Q294 737 277 737 L240 737 Q235 737 230.5 738 Q226 739 222 740 L147 763 Q139 766 134 766 Q130 766 130 759 L130 754 Q130 746 125 741.5 Q120 737 113 737 L92 737 Q76 737 70.5 743.5 Q65 750 65 765 L65 802 Z " />
<glyph glyph-name="adieresis" unicode="&#xe4;" horiz-adv-x="378" d="M90 665 Q93 688 102.5 697 Q112 706 134 706 L241 706 Q260 706 269.5 696.5 Q279 687 282 664 L372 21 Q375 0 356 0 L280 0 Q272 0 268 4 Q264 8 262 19 L240 175 Q238 186 234.5 189 Q231 192 222 192 L153 192 Q145 192 141 189 Q137 186 135 175 L117 17 Q115 6 111.5 3 Q108 0 97 0 L24 0 Q3 0 6 21 L90 665 Z M208 302 Q225 302 223 315 L195 572 Q194 588 187 588 Q179 588 178 571 L152 315 Q152 302 166 302 L208 302 Z M209 803 Q209 821 215 828.5 Q221 836 241 836 L266 836 Q286 836 292.5 828.5 Q299 821 299 803 L299 769 Q299 751 292.5 743.5 Q286 736 266 736 L241 736 Q221 736 215 743.5 Q209 751 209 769 L209 803 Z M81 803 Q81 821 87 828.5 Q93 836 113 836 L138 836 Q158 836 164.5 828.5 Q171 821 171 803 L171 769 Q171 751 164.5 743.5 Q158 736 138 736 L113 736 Q93 736 87 743.5 Q81 751 81 769 L81 803 Z " />
<glyph glyph-name="amacron" unicode="&#x101;" horiz-adv-x="378" d="M90 665 Q93 688 102.5 697 Q112 706 134 706 L241 706 Q260 706 269.5 696.5 Q279 687 282 664 L372 21 Q375 0 356 0 L280 0 Q272 0 268 4 Q264 8 262 19 L240 175 Q238 186 234.5 189 Q231 192 222 192 L153 192 Q145 192 141 189 Q137 186 135 175 L117 17 Q115 6 111.5 3 Q108 0 97 0 L24 0 Q3 0 6 21 L90 665 Z M208 302 Q225 302 223 315 L195 572 Q194 588 187 588 Q179 588 178 571 L152 315 Q152 302 166 302 L208 302 Z M76 788 Q76 811 87 816 Q98 821 124 821 L255 821 Q281 821 291.5 816 Q302 811 302 788 L302 772 Q302 749 291.5 744 Q281 739 255 739 L124 739 Q98 739 87 744 Q76 749 76 772 L76 788 Z " />
<glyph glyph-name="abreve" unicode="&#x103;" horiz-adv-x="378" d="M90 665 Q93 688 102.5 697 Q112 706 134 706 L241 706 Q260 706 269.5 696.5 Q279 687 282 664 L372 21 Q375 0 356 0 L280 0 Q272 0 268 4 Q264 8 262 19 L240 175 Q238 186 234.5 189 Q231 192 222 192 L153 192 Q145 192 141 189 Q137 186 135 175 L117 17 Q115 6 111.5 3 Q108 0 97 0 L24 0 Q3 0 6 21 L90 665 Z M208 302 Q225 302 223 315 L195 572 Q194 588 187 588 Q179 588 178 571 L152 315 Q152 302 166 302 L208 302 Z M98 850 Q105 850 107.5 846 Q110 842 112 836 Q114 829 117.5 823.5 Q121 818 129.5 813.5 Q138 809 152.5 806.5 Q167 804 190 804 Q212 804 226 806.5 Q240 809 248.5 813.5 Q257 818 260.5 823.5 Q264 829 266 836 Q269 850 279 850 L308 850 Q314 850 317 845.5 Q320 841 320 836 Q320 819 314 800.5 Q308 782 293.5 767 Q279 752 254 742.5 Q229 733 190 733 Q151 733 125.5 742.5 Q100 752 85 767 Q70 782 64 800.5 Q58 819 58 836 Q58 841 61 845.5 Q64 850 70 850 L98 850 Z " />
<glyph glyph-name="aring" unicode="&#xe5;" horiz-adv-x="378" d="M90 665 Q94 698 114 703 Q101 726 101 752 Q101 792 125 817.5 Q149 843 186 843 Q222 843 245.5 817.5 Q269 792 269 751 Q269 723 257 704 Q278 697 282 664 L372 21 Q375 0 356 0 L280 0 Q272 0 268 4 Q264 8 262 19 L240 175 Q238 186 234.5 189 Q231 192 222 192 L153 192 Q145 192 141 189 Q137 186 135 175 L117 17 Q115 6 111.5 3 Q108 0 97 0 L24 0 Q3 0 6 21 L90 665 Z M208 302 Q225 302 223 315 L195 572 Q194 588 187 588 Q179 588 178 571 L152 315 Q152 302 166 302 L208 302 Z M185 708 Q202 708 213 721 Q224 734 224 751 Q224 769 213 782.5 Q202 796 185 796 Q167 796 156.5 783 Q146 770 146 752 Q146 734 156.5 721 Q167 708 185 708 Z " />
<glyph glyph-name="aogonek" unicode="&#x105;" horiz-adv-x="378" d="M380 -111 Q380 -138 373.5 -146.5 Q367 -155 343 -155 L291 -155 Q262 -155 243.5 -137 Q225 -119 225 -93 Q225 -64 243.5 -40.5 Q262 -17 294 0 L280 0 Q272 0 268 4 Q264 8 262 19 L240 175 Q238 186 234.5 189 Q231 192 222 192 L153 192 Q145 192 141 189 Q137 186 135 175 L117 17 Q115 6 111.5 3 Q108 0 97 0 L24 0 Q3 0 6 21 L90 665 Q93 688 102.5 697 Q112 706 134 706 L241 706 Q260 706 269.5 696.5 Q279 687 282 664 L372 21 Q374 10 369 5.5 Q364 1 356 -3 Q329 -17 316.5 -30.5 Q304 -44 304 -56 Q304 -73 325 -73 L339 -73 Q364 -73 372 -80 Q380 -87 380 -106 L380 -111 Z M208 302 Q225 302 223 315 L195 572 Q194 588 187 588 Q179 588 178 571 L152 315 Q152 302 166 302 L208 302 Z " />
<glyph glyph-name="ae" unicode="&#xe6;" horiz-adv-x="525" d="M135 665 Q140 688 150.5 697 Q161 706 183 706 L475 706 Q495 706 502 698 Q509 690 509 664 L509 638 Q509 612 502 603 Q495 594 475 594 L371 594 Q359 594 355.5 589.5 Q352 585 352 571 L352 453 Q352 438 354.5 434.5 Q357 431 371 431 L424 431 Q442 431 448.5 424 Q455 417 455 395 L455 354 Q455 334 448 326.5 Q441 319 424 319 L371 319 Q360 319 356 316 Q352 313 352 303 L352 135 Q352 122 356 117 Q360 112 375 112 L479 112 Q501 112 509 102 Q517 92 517 66 L517 45 Q517 21 509 10.5 Q501 0 481 0 L255 0 Q247 0 243.5 4 Q240 8 240 19 L240 175 Q240 186 236 189 Q232 192 224 192 L175 192 Q167 192 162.5 189 Q158 186 156 175 L123 17 Q121 6 116.5 3 Q112 0 101 0 L21 0 Q3 0 6 19 L135 665 Z M226 304 Q235 304 237.5 307.5 Q240 311 240 322 L240 578 Q240 594 233 594 Q226 594 223 577 L181 320 Q178 304 192 304 L226 304 Z " />
<glyph glyph-name="cacute" unicode="&#x107;" horiz-adv-x="299" d="M146 0 Q106 0 81 13.5 Q56 27 42.5 64.5 Q29 102 24 168.5 Q19 235 19 340 Q19 445 21.5 515.5 Q24 586 36 628.5 Q48 671 72.5 688.5 Q97 706 141 706 L261 706 Q279 706 286.5 697.5 Q294 689 294 669 L294 634 Q294 609 287 601.5 Q280 594 259 594 L180 594 Q163 594 153.5 587.5 Q144 581 139 556 Q134 531 132.5 483 Q131 435 131 351 Q131 268 132.5 220.5 Q134 173 139 149 Q144 125 153.5 118.5 Q163 112 178 112 L259 112 Q278 112 285.5 104 Q293 96 293 76 L293 38 Q293 17 285.5 8.5 Q278 0 261 0 L146 0 Z M167 819 Q175 830 178.5 832.5 Q182 835 190 835 L271 835 Q286 835 286 821 Q286 812 275 804 L202 742 Q195 737 192 734.5 Q189 732 179 732 L125 732 Q114 732 114 742 Q114 749 119 755 L167 819 Z " />
<glyph glyph-name="ccaron" unicode="&#x10d;" horiz-adv-x="299" d="M146 0 Q106 0 81 13.5 Q56 27 42.5 64.5 Q29 102 24 168.5 Q19 235 19 340 Q19 445 21.5 515.5 Q24 586 36 628.5 Q48 671 72.5 688.5 Q97 706 141 706 L261 706 Q279 706 286.5 697.5 Q294 689 294 669 L294 634 Q294 609 287 601.5 Q280 594 259 594 L180 594 Q163 594 153.5 587.5 Q144 581 139 556 Q134 531 132.5 483 Q131 435 131 351 Q131 268 132.5 220.5 Q134 173 139 149 Q144 125 153.5 118.5 Q163 112 178 112 L259 112 Q278 112 285.5 104 Q293 96 293 76 L293 38 Q293 17 285.5 8.5 Q278 0 261 0 L146 0 Z M57 818 Q55 824 55 827 Q55 835 65 835 L111 835 Q118 835 123.5 833.5 Q129 832 135 824 L174 775 L211 824 Q217 832 222.5 833.5 Q228 835 236 835 L282 835 Q291 835 291 827 Q291 822 287 814 L252 748 Q247 738 242 735 Q237 732 224 732 L123 732 Q110 732 104.5 735 Q99 738 94 748 L57 818 Z " />
<glyph glyph-name="ccedilla" unicode="&#xe7;" horiz-adv-x="299" d="M90 -90 Q90 -71 98 -64.5 Q106 -58 131 -58 L148 -58 Q169 -58 169 -37 Q169 -32 167.5 -23 Q166 -14 162 0 L146 0 Q106 0 81 13.5 Q56 27 42.5 64.5 Q29 102 24 168.5 Q19 235 19 340 Q19 445 21.5 515.5 Q24 586 36 628.5 Q48 671 72.5 688.5 Q97 706 141 706 L261 706 Q279 706 286.5 697.5 Q294 689 294 669 L294 634 Q294 609 287 601.5 Q280 594 259 594 L180 594 Q163 594 153.5 587.5 Q144 581 139 556 Q134 531 132.5 483 Q131 435 131 351 Q131 268 132.5 220.5 Q134 173 139 149 Q144 125 153.5 118.5 Q163 112 178 112 L259 112 Q278 112 285.5 104 Q293 96 293 76 L293 38 Q293 17 285.5 8.5 Q278 0 261 0 L211 0 Q216 -20 218 -32.5 Q220 -45 220 -58 Q220 -98 205.5 -121.5 Q191 -145 165 -145 L127 -145 Q103 -145 96.5 -137.5 Q90 -130 90 -103 L90 -90 Z " />
<glyph glyph-name="dcaron" unicode="&#x10f;" horiz-adv-x="370" d="M30 658 Q30 684 37 695 Q44 706 63 706 L221 706 Q265 706 291 687.5 Q317 669 330.5 627 Q344 585 347.5 517.5 Q351 450 351 353 Q351 238 345.5 168.5 Q340 99 325 61.5 Q310 24 283.5 12 Q257 0 215 0 L67 0 Q44 0 37 8 Q30 16 30 45 L30 658 Z M142 140 Q142 120 148.5 116 Q155 112 179 112 Q198 112 210 118 Q222 124 228.5 147.5 Q235 171 237 217 Q239 263 239 343 Q239 431 237.5 481.5 Q236 532 229.5 557 Q223 582 210.5 588 Q198 594 176 594 Q156 594 149 589 Q142 584 142 562 L142 140 Z M70 818 Q68 824 68 827 Q68 835 78 835 L124 835 Q131 835 136.5 833.5 Q142 832 148 824 L187 775 L224 824 Q230 832 235.5 833.5 Q241 835 249 835 L295 835 Q304 835 304 827 Q304 822 300 814 L265 748 Q260 738 255 735 Q250 732 237 732 L136 732 Q123 732 117.5 735 Q112 738 107 748 L70 818 Z " />
<glyph glyph-name="dcroat" unicode="&#x111;" horiz-adv-x="385" d="M45 329 Q21 329 10.5 334.5 Q0 340 0 362 L0 388 Q0 410 10.5 415.5 Q21 421 45 421 L45 658 Q45 684 52 695 Q59 706 78 706 L236 706 Q280 706 306 687.5 Q332 669 345.5 627 Q359 585 362.5 517.5 Q366 450 366 353 Q366 238 360.5 168.5 Q355 99 340 61.5 Q325 24 298.5 12 Q272 0 230 0 L82 0 Q59 0 52 8 Q45 16 45 45 L45 329 Z M157 421 L164 421 Q190 421 200.5 416 Q211 411 211 388 L211 362 Q211 339 200.5 334 Q190 329 164 329 L157 329 L157 140 Q157 120 163.5 116 Q170 112 194 112 Q213 112 225 118 Q237 124 243.5 147.5 Q250 171 252 217 Q254 263 254 343 Q254 431 252.5 481.5 Q251 532 244.5 557 Q238 582 225.5 588 Q213 594 191 594 Q171 594 164 589 Q157 584 157 562 L157 421 Z " />
<glyph glyph-name="egrave" unicode="&#xe8;" horiz-adv-x="315" d="M30 659 Q30 685 37.5 695.5 Q45 706 65 706 L265 706 Q285 706 292 698 Q299 690 299 664 L299 638 Q299 612 292 603 Q285 594 265 594 L161 594 Q149 594 145.5 589.5 Q142 585 142 571 L142 453 Q142 438 144.5 434.5 Q147 431 161 431 L214 431 Q231 431 238 424 Q245 417 245 395 L245 354 Q245 334 238 326.5 Q231 319 214 319 L161 319 Q150 319 146 316 Q142 313 142 303 L142 135 Q142 122 146 117 Q150 112 164 112 L269 112 Q291 112 299 102 Q307 92 307 66 L307 45 Q307 21 299 10.5 Q291 0 271 0 L65 0 Q44 0 37 9.5 Q30 19 30 47 L30 659 Z M54 804 Q43 813 43 821 Q43 835 58 835 L139 835 Q147 835 151 832 Q155 829 163 818 L210 755 Q215 749 215 742 Q215 732 204 732 L150 732 Q141 732 137.5 734.5 Q134 737 127 742 L54 804 Z " />
<glyph glyph-name="eacute" unicode="&#xe9;" horiz-adv-x="315" d="M30 659 Q30 685 37.5 695.5 Q45 706 65 706 L265 706 Q285 706 292 698 Q299 690 299 664 L299 638 Q299 612 292 603 Q285 594 265 594 L161 594 Q149 594 145.5 589.5 Q142 585 142 571 L142 453 Q142 438 144.5 434.5 Q147 431 161 431 L214 431 Q231 431 238 424 Q245 417 245 395 L245 354 Q245 334 238 326.5 Q231 319 214 319 L161 319 Q150 319 146 316 Q142 313 142 303 L142 135 Q142 122 146 117 Q150 112 164 112 L269 112 Q291 112 299 102 Q307 92 307 66 L307 45 Q307 21 299 10.5 Q291 0 271 0 L65 0 Q44 0 37 9.5 Q30 19 30 47 L30 659 Z M151 819 Q159 830 162.5 832.5 Q166 835 174 835 L255 835 Q270 835 270 821 Q270 812 259 804 L186 742 Q179 737 176 734.5 Q173 732 163 732 L109 732 Q98 732 98 742 Q98 749 103 755 L151 819 Z " />
<glyph glyph-name="ecircumflex" unicode="&#xea;" horiz-adv-x="315" d="M30 659 Q30 685 37.5 695.5 Q45 706 65 706 L265 706 Q285 706 292 698 Q299 690 299 664 L299 638 Q299 612 292 603 Q285 594 265 594 L161 594 Q149 594 145.5 589.5 Q142 585 142 571 L142 453 Q142 438 144.5 434.5 Q147 431 161 431 L214 431 Q231 431 238 424 Q245 417 245 395 L245 354 Q245 334 238 326.5 Q231 319 214 319 L161 319 Q150 319 146 316 Q142 313 142 303 L142 135 Q142 122 146 117 Q150 112 164 112 L269 112 Q291 112 299 102 Q307 92 307 66 L307 45 Q307 21 299 10.5 Q291 0 271 0 L65 0 Q44 0 37 9.5 Q30 19 30 47 L30 659 Z M69 818 Q74 828 79.5 831.5 Q85 835 98 835 L199 835 Q212 835 217 831.5 Q222 828 227 818 L264 749 Q265 747 266 744.5 Q267 742 267 740 Q267 732 257 732 L211 732 Q203 732 198 733.5 Q193 735 187 743 L148 794 L110 743 Q104 735 98.5 733.5 Q93 732 86 732 L40 732 Q30 732 30 740 Q30 743 32 749 L69 818 Z " />
<glyph glyph-name="ecaron" unicode="&#x11b;" horiz-adv-x="315" d="M30 659 Q30 685 37.5 695.5 Q45 706 65 706 L265 706 Q285 706 292 698 Q299 690 299 664 L299 638 Q299 612 292 603 Q285 594 265 594 L161 594 Q149 594 145.5 589.5 Q142 585 142 571 L142 453 Q142 438 144.5 434.5 Q147 431 161 431 L214 431 Q231 431 238 424 Q245 417 245 395 L245 354 Q245 334 238 326.5 Q231 319 214 319 L161 319 Q150 319 146 316 Q142 313 142 303 L142 135 Q142 122 146 117 Q150 112 164 112 L269 112 Q291 112 299 102 Q307 92 307 66 L307 45 Q307 21 299 10.5 Q291 0 271 0 L65 0 Q44 0 37 9.5 Q30 19 30 47 L30 659 Z M35 818 Q33 824 33 827 Q33 835 43 835 L89 835 Q96 835 101.5 833.5 Q107 832 113 824 L152 775 L189 824 Q195 832 200.5 833.5 Q206 835 214 835 L260 835 Q269 835 269 827 Q269 822 265 814 L230 748 Q225 738 220 735 Q215 732 202 732 L101 732 Q88 732 82.5 735 Q77 738 72 748 L35 818 Z " />
<glyph glyph-name="edieresis" unicode="&#xeb;" horiz-adv-x="315" d="M30 659 Q30 685 37.5 695.5 Q45 706 65 706 L265 706 Q285 706 292 698 Q299 690 299 664 L299 638 Q299 612 292 603 Q285 594 265 594 L161 594 Q149 594 145.5 589.5 Q142 585 142 571 L142 453 Q142 438 144.5 434.5 Q147 431 161 431 L214 431 Q231 431 238 424 Q245 417 245 395 L245 354 Q245 334 238 326.5 Q231 319 214 319 L161 319 Q150 319 146 316 Q142 313 142 303 L142 135 Q142 122 146 117 Q150 112 164 112 L269 112 Q291 112 299 102 Q307 92 307 66 L307 45 Q307 21 299 10.5 Q291 0 271 0 L65 0 Q44 0 37 9.5 Q30 19 30 47 L30 659 Z M176 803 Q176 821 182 828.5 Q188 836 208 836 L233 836 Q253 836 259.5 828.5 Q266 821 266 803 L266 769 Q266 751 259.5 743.5 Q253 736 233 736 L208 736 Q188 736 182 743.5 Q176 751 176 769 L176 803 Z M48 803 Q48 821 54 828.5 Q60 836 80 836 L105 836 Q125 836 131.5 828.5 Q138 821 138 803 L138 769 Q138 751 131.5 743.5 Q125 736 105 736 L80 736 Q60 736 54 743.5 Q48 751 48 769 L48 803 Z " />
<glyph glyph-name="emacron" unicode="&#x113;" horiz-adv-x="315" d="M30 659 Q30 685 37.5 695.5 Q45 706 65 706 L265 706 Q285 706 292 698 Q299 690 299 664 L299 638 Q299 612 292 603 Q285 594 265 594 L161 594 Q149 594 145.5 589.5 Q142 585 142 571 L142 453 Q142 438 144.5 434.5 Q147 431 161 431 L214 431 Q231 431 238 424 Q245 417 245 395 L245 354 Q245 334 238 326.5 Q231 319 214 319 L161 319 Q150 319 146 316 Q142 313 142 303 L142 135 Q142 122 146 117 Q150 112 164 112 L269 112 Q291 112 299 102 Q307 92 307 66 L307 45 Q307 21 299 10.5 Q291 0 271 0 L65 0 Q44 0 37 9.5 Q30 19 30 47 L30 659 Z M43 788 Q43 811 54 816 Q65 821 91 821 L222 821 Q248 821 258.5 816 Q269 811 269 788 L269 772 Q269 749 258.5 744 Q248 739 222 739 L91 739 Q65 739 54 744 Q43 749 43 772 L43 788 Z " />
<glyph glyph-name="edotaccent" unicode="&#x117;" horiz-adv-x="315" d="M30 659 Q30 685 37.5 695.5 Q45 706 65 706 L265 706 Q285 706 292 698 Q299 690 299 664 L299 638 Q299 612 292 603 Q285 594 265 594 L161 594 Q149 594 145.5 589.5 Q142 585 142 571 L142 453 Q142 438 144.5 434.5 Q147 431 161 431 L214 431 Q231 431 238 424 Q245 417 245 395 L245 354 Q245 334 238 326.5 Q231 319 214 319 L161 319 Q150 319 146 316 Q142 313 142 303 L142 135 Q142 122 146 117 Q150 112 164 112 L269 112 Q291 112 299 102 Q307 92 307 66 L307 45 Q307 21 299 10.5 Q291 0 271 0 L65 0 Q44 0 37 9.5 Q30 19 30 47 L30 659 Z M108 802 Q108 820 114 827.5 Q120 835 140 835 L163 835 Q183 835 189.5 827.5 Q196 820 196 802 L196 770 Q196 752 189.5 744.5 Q183 737 163 737 L140 737 Q120 737 114 744.5 Q108 752 108 770 L108 802 Z " />
<glyph glyph-name="eogonek" unicode="&#x119;" horiz-adv-x="315" d="M30 659 Q30 685 37.5 695.5 Q45 706 65 706 L265 706 Q285 706 292 698 Q299 690 299 664 L299 638 Q299 612 292 603 Q285 594 265 594 L161 594 Q149 594 145.5 589.5 Q142 585 142 571 L142 453 Q142 438 144.5 434.5 Q147 431 161 431 L214 431 Q231 431 238 424 Q245 417 245 395 L245 354 Q245 334 238 326.5 Q231 319 214 319 L161 319 Q150 319 146 316 Q142 313 142 303 L142 135 Q142 122 146 117 Q150 112 164 112 L269 112 Q291 112 299 102 Q307 92 307 66 L307 38 Q307 27 305.5 21 Q304 15 300 10.5 Q296 6 289 2 Q282 -2 272 -8 Q253 -19 239.5 -31.5 Q226 -44 226 -56 Q226 -73 247 -73 L261 -73 Q286 -73 294 -80 Q302 -87 302 -106 L302 -111 Q302 -138 295.5 -146.5 Q289 -155 265 -155 L213 -155 Q184 -155 165.5 -137 Q147 -119 147 -93 Q147 -64 165.5 -40.5 Q184 -17 216 0 L65 0 Q44 0 37 9.5 Q30 19 30 47 L30 659 Z " />
<glyph glyph-name="gbreve" unicode="&#x11f;" horiz-adv-x="369" d="M247 298 Q247 314 241.5 319.5 Q236 325 228 325 L203 325 Q189 325 186.5 333.5 Q184 342 184 358 L184 394 Q184 417 190.5 427 Q197 437 223 437 L318 437 Q338 437 344.5 425.5 Q351 414 351 390 L351 202 Q351 157 344.5 119 Q338 81 320 53 Q302 25 271 9 Q240 -7 191 -7 Q127 -7 92 15 Q57 37 41 81.5 Q25 126 22.5 193 Q20 260 20 350 Q20 437 22 503.5 Q24 570 35 615 Q46 660 69 683 Q92 706 135 706 L278 706 Q298 706 306 698 Q314 690 314 661 L314 640 Q314 614 307.5 604 Q301 594 282 594 L195 594 Q174 594 162 590 Q150 586 143 562.5 Q136 539 134 489 Q132 439 132 347 L132 179 Q132 139 149 123 Q166 107 192 107 Q217 107 232 125 Q247 143 247 181 L247 298 Z M94 850 Q101 850 103.5 846 Q106 842 108 836 Q110 829 113.5 823.5 Q117 818 125.5 813.5 Q134 809 148.5 806.5 Q163 804 186 804 Q208 804 222 806.5 Q236 809 244.5 813.5 Q253 818 256.5 823.5 Q260 829 262 836 Q265 850 275 850 L304 850 Q310 850 313 845.5 Q316 841 316 836 Q316 819 310 800.5 Q304 782 289.5 767 Q275 752 250 742.5 Q225 733 186 733 Q147 733 121.5 742.5 Q96 752 81 767 Q66 782 60 800.5 Q54 819 54 836 Q54 841 57 845.5 Q60 850 66 850 L94 850 Z " />
<glyph glyph-name="gcommaaccent" unicode="&#x123;" horiz-adv-x="369" d="M247 298 Q247 314 241.5 319.5 Q236 325 228 325 L203 325 Q189 325 186.5 333.5 Q184 342 184 358 L184 394 Q184 417 190.5 427 Q197 437 223 437 L318 437 Q338 437 344.5 425.5 Q351 414 351 390 L351 202 Q351 157 344.5 119 Q338 81 320 53 Q302 25 271 9 Q240 -7 191 -7 Q127 -7 92 15 Q57 37 41 81.5 Q25 126 22.5 193 Q20 260 20 350 Q20 437 22 503.5 Q24 570 35 615 Q46 660 69 683 Q92 706 135 706 L278 706 Q298 706 306 698 Q314 690 314 661 L314 640 Q314 614 307.5 604 Q301 594 282 594 L195 594 Q174 594 162 590 Q150 586 143 562.5 Q136 539 134 489 Q132 439 132 347 L132 179 Q132 139 149 123 Q166 107 192 107 Q217 107 232 125 Q247 143 247 181 L247 298 Z M163 -143 Q165 -137 165.5 -130.5 Q166 -124 159 -124 L152 -124 Q141 -124 137 -116.5 Q133 -109 133 -85 L133 -72 Q133 -46 140.5 -35.5 Q148 -25 168 -25 L203 -25 Q221 -25 228.5 -35 Q236 -45 236 -69 L236 -86 Q236 -100 235.5 -107.5 Q235 -115 233 -123 L207 -203 Q200 -224 184 -224 L155 -224 Q145 -224 141.5 -220 Q138 -216 143 -203 L163 -143 Z " />
<glyph glyph-name="igrave" unicode="&#xec;" horiz-adv-x="172" d="M30 658 Q30 686 37 696 Q44 706 64 706 L110 706 Q128 706 135 695.5 Q142 685 142 658 L142 44 Q142 15 134.5 7.5 Q127 0 107 0 L67 0 Q44 0 37 9 Q30 18 30 47 L30 658 Z M-7 804 Q-18 813 -18 821 Q-18 835 -3 835 L78 835 Q86 835 90 832 Q94 829 102 818 L149 755 Q154 749 154 742 Q154 732 143 732 L89 732 Q80 732 76.5 734.5 Q73 737 66 742 L-7 804 Z " />
<glyph glyph-name="iacute" unicode="&#xed;" horiz-adv-x="172" d="M30 658 Q30 686 37 696 Q44 706 64 706 L110 706 Q128 706 135 695.5 Q142 685 142 658 L142 44 Q142 15 134.5 7.5 Q127 0 107 0 L67 0 Q44 0 37 9 Q30 18 30 47 L30 658 Z M60 819 Q68 830 71.5 832.5 Q75 835 83 835 L164 835 Q179 835 179 821 Q179 812 168 804 L95 742 Q88 737 85 734.5 Q82 732 72 732 L18 732 Q7 732 7 742 Q7 749 12 755 L60 819 Z " />
<glyph glyph-name="icircumflex" unicode="&#xee;" horiz-adv-x="172" d="M30 658 Q30 686 37 696 Q44 706 64 706 L110 706 Q128 706 135 695.5 Q142 685 142 658 L142 44 Q142 15 134.5 7.5 Q127 0 107 0 L67 0 Q44 0 37 9 Q30 18 30 47 L30 658 Z M7 818 Q12 828 17.5 831.5 Q23 835 36 835 L137 835 Q150 835 155 831.5 Q160 828 165 818 L202 749 Q203 747 204 744.5 Q205 742 205 740 Q205 732 195 732 L149 732 Q141 732 136 733.5 Q131 735 125 743 L86 794 L48 743 Q42 735 36.5 733.5 Q31 732 24 732 L-22 732 Q-32 732 -32 740 Q-32 743 -30 749 L7 818 Z " />
<glyph glyph-name="idieresis" unicode="&#xef;" horiz-adv-x="172" d="M30 658 Q30 686 37 696 Q44 706 64 706 L110 706 Q128 706 135 695.5 Q142 685 142 658 L142 44 Q142 15 134.5 7.5 Q127 0 107 0 L67 0 Q44 0 37 9 Q30 18 30 47 L30 658 Z M107 803 Q107 821 113 828.5 Q119 836 139 836 L164 836 Q184 836 190.5 828.5 Q197 821 197 803 L197 769 Q197 751 190.5 743.5 Q184 736 164 736 L139 736 Q119 736 113 743.5 Q107 751 107 769 L107 803 Z M-21 803 Q-21 821 -15 828.5 Q-9 836 11 836 L36 836 Q56 836 62.5 828.5 Q69 821 69 803 L69 769 Q69 751 62.5 743.5 Q56 736 36 736 L11 736 Q-9 736 -15 743.5 Q-21 751 -21 769 L-21 803 Z " />
<glyph glyph-name="imacron" unicode="&#x12b;" horiz-adv-x="172" d="M30 658 Q30 686 37 696 Q44 706 64 706 L110 706 Q128 706 135 695.5 Q142 685 142 658 L142 44 Q142 15 134.5 7.5 Q127 0 107 0 L67 0 Q44 0 37 9 Q30 18 30 47 L30 658 Z M-26 788 Q-26 811 -15 816 Q-4 821 22 821 L153 821 Q179 821 189.5 816 Q200 811 200 788 L200 772 Q200 749 189.5 744 Q179 739 153 739 L22 739 Q-4 739 -15 744 Q-26 749 -26 772 L-26 788 Z " />
<glyph glyph-name="iogonek" unicode="&#x12f;" horiz-adv-x="172" d="M147 -111 Q147 -138 140.5 -146.5 Q134 -155 110 -155 L58 -155 Q29 -155 10.5 -137 Q-8 -119 -8 -93 Q-8 -64 10.5 -40.5 Q29 -17 61 0 Q42 1 36 10 Q30 19 30 47 L30 658 Q30 686 37 696 Q44 706 64 706 L110 706 Q128 706 135 695.5 Q142 685 142 658 L142 45 Q142 32 140.5 24.5 Q139 17 136 12 Q133 7 128 3.5 Q123 0 116 -4 Q94 -18 82.5 -31.5 Q71 -45 71 -56 Q71 -73 92 -73 L106 -73 Q131 -73 139 -80 Q147 -87 147 -106 L147 -111 Z " />
<glyph glyph-name="dotlessi" unicode="&#x131;" horiz-adv-x="172" d="M30 658 Q30 686 37 696 Q44 706 64 706 L110 706 Q128 706 135 695.5 Q142 685 142 658 L142 44 Q142 15 134.5 7.5 Q127 0 107 0 L67 0 Q44 0 37 9 Q30 18 30 47 L30 658 Z M43 802 Q43 820 49 827.5 Q55 835 75 835 L98 835 Q118 835 124.5 827.5 Q131 820 131 802 L131 770 Q131 752 124.5 744.5 Q118 737 98 737 L75 737 Q55 737 49 744.5 Q43 752 43 770 L43 802 Z " />
<glyph glyph-name="kcommaaccent" unicode="&#x137;" horiz-adv-x="383" d="M30 658 Q30 686 37 696 Q44 706 64 706 L110 706 Q128 706 135 695.5 Q142 685 142 658 L142 484 Q142 480 143 476.5 Q144 473 148 473 Q152 473 158 484 L246 665 Q256 687 262.5 696.5 Q269 706 286 706 L365 706 Q378 706 378 693 Q378 690 377 685.5 Q376 681 371 673 L270 474 Q268 469 265.5 463.5 Q263 458 263 453 Q263 447 263.5 442.5 Q264 438 266 432 L373 32 Q379 11 374.5 5.5 Q370 0 356 0 L282 0 Q268 0 262.5 6 Q257 12 252 31 L193 297 Q190 310 187.5 316 Q185 322 180 322 Q174 322 169 313.5 Q164 305 152 278 Q142 254 142 216 L142 44 Q142 15 134.5 7.5 Q127 0 107 0 L67 0 Q44 0 37 9 Q30 18 30 47 L30 658 Z M168 -143 Q170 -137 170.5 -130.5 Q171 -124 164 -124 L157 -124 Q146 -124 142 -116.5 Q138 -109 138 -85 L138 -72 Q138 -46 145.5 -35.5 Q153 -25 173 -25 L208 -25 Q226 -25 233.5 -35 Q241 -45 241 -69 L241 -86 Q241 -100 240.5 -107.5 Q240 -115 238 -123 L212 -203 Q205 -224 189 -224 L160 -224 Q150 -224 146.5 -220 Q143 -216 148 -203 L168 -143 Z " />
<glyph glyph-name="lacute" unicode="&#x13a;" horiz-adv-x="286" d="M30 660 Q30 685 37.5 695.5 Q45 706 64 706 L108 706 Q129 706 135.5 696 Q142 686 142 660 L142 134 Q142 121 146.5 116.5 Q151 112 159 112 L245 112 Q265 112 273 102.5 Q281 93 281 67 L281 45 Q281 21 271.5 10.5 Q262 0 242 0 L64 0 Q43 0 36.5 9 Q30 18 30 47 L30 660 Z M96 819 Q104 830 107.5 832.5 Q111 835 119 835 L200 835 Q215 835 215 821 Q215 812 204 804 L131 742 Q124 737 121 734.5 Q118 732 108 732 L54 732 Q43 732 43 742 Q43 749 48 755 L96 819 Z " />
<glyph glyph-name="lcaron" unicode="&#x13e;" horiz-adv-x="286" d="M201 562 Q204 568 204 572 Q204 581 196 581 L189 581 Q178 581 175 588.5 Q172 596 172 620 L172 659 Q172 685 179.5 695.5 Q187 706 207 706 L238 706 Q256 706 263.5 696 Q271 686 271 662 L271 619 Q271 605 270 597.5 Q269 590 267 582 L240 501 Q234 481 217 481 L191 481 Q177 481 177 489 Q177 493 180 501 L201 562 Z M30 660 Q30 685 37.5 695.5 Q45 706 64 706 L108 706 Q129 706 135.5 696 Q142 686 142 660 L142 134 Q142 121 146.5 116.5 Q151 112 159 112 L245 112 Q265 112 273 102.5 Q281 93 281 67 L281 45 Q281 21 271.5 10.5 Q262 0 242 0 L64 0 Q43 0 36.5 9 Q30 18 30 47 L30 660 Z " />
<glyph glyph-name="lcommaaccent" unicode="&#x13c;" horiz-adv-x="286" d="M30 660 Q30 685 37.5 695.5 Q45 706 64 706 L108 706 Q129 706 135.5 696 Q142 686 142 660 L142 134 Q142 121 146.5 116.5 Q151 112 159 112 L245 112 Q265 112 273 102.5 Q281 93 281 67 L281 45 Q281 21 271.5 10.5 Q262 0 242 0 L64 0 Q43 0 36.5 9 Q30 18 30 47 L30 660 Z M115 -143 Q117 -137 117.5 -130.5 Q118 -124 111 -124 L104 -124 Q93 -124 89 -116.5 Q85 -109 85 -85 L85 -72 Q85 -46 92.5 -35.5 Q100 -25 120 -25 L155 -25 Q173 -25 180.5 -35 Q188 -45 188 -69 L188 -86 Q188 -100 187.5 -107.5 Q187 -115 185 -123 L159 -203 Q152 -224 136 -224 L107 -224 Q97 -224 93.5 -220 Q90 -216 95 -203 L115 -143 Z " />
<glyph glyph-name="lslash" unicode="&#x142;" horiz-adv-x="303" d="M47 241 L21 206 Q13 195 6.5 197 Q0 199 0 211 L0 276 Q0 288 4.5 297 Q9 306 20 320 L47 355 L47 660 Q47 685 55 695.5 Q63 706 82 706 L125 706 Q146 706 152.5 696 Q159 686 159 660 L159 508 L207 570 Q215 581 221.5 579 Q228 577 228 565 L228 499 Q228 486 223.5 477.5 Q219 469 208 455 L159 394 L159 134 Q159 121 163.5 116.5 Q168 112 176 112 L262 112 Q282 112 290 102.5 Q298 93 298 67 L298 45 Q298 21 288.5 10.5 Q279 0 259 0 L82 0 Q61 0 54 9 Q47 18 47 47 L47 241 Z " />
<glyph glyph-name="nacute" unicode="&#x144;" horiz-adv-x="403" d="M30 659 Q30 687 37 696.5 Q44 706 67 706 L94 706 Q113 706 120 700.5 Q127 695 135 673 L239 379 Q245 362 248 358.5 Q251 355 255 355 Q258 355 259.5 359 Q261 363 261 375 L261 659 Q261 684 268 695 Q275 706 294 706 L335 706 Q352 706 362.5 697.5 Q373 689 373 658 L373 48 Q373 20 366 10 Q359 0 336 0 L309 0 Q290 0 283 5 Q276 10 268 33 L163 330 Q158 345 155 348.5 Q152 352 149 352 Q145 352 143.5 348 Q142 344 142 332 L142 47 Q142 22 135.5 11 Q129 0 110 0 L68 0 Q50 0 40 8 Q30 16 30 48 L30 659 Z M186 819 Q194 830 197.5 832.5 Q201 835 209 835 L290 835 Q305 835 305 821 Q305 812 294 804 L221 742 Q214 737 211 734.5 Q208 732 198 732 L144 732 Q133 732 133 742 Q133 749 138 755 L186 819 Z " />
<glyph glyph-name="ncaron" unicode="&#x148;" horiz-adv-x="403" d="M30 659 Q30 687 37 696.5 Q44 706 67 706 L94 706 Q113 706 120 700.5 Q127 695 135 673 L239 379 Q245 362 248 358.5 Q251 355 255 355 Q258 355 259.5 359 Q261 363 261 375 L261 659 Q261 684 268 695 Q275 706 294 706 L335 706 Q352 706 362.5 697.5 Q373 689 373 658 L373 48 Q373 20 366 10 Q359 0 336 0 L309 0 Q290 0 283 5 Q276 10 268 33 L163 330 Q158 345 155 348.5 Q152 352 149 352 Q145 352 143.5 348 Q142 344 142 332 L142 47 Q142 22 135.5 11 Q129 0 110 0 L68 0 Q50 0 40 8 Q30 16 30 48 L30 659 Z M85 818 Q83 824 83 827 Q83 835 93 835 L139 835 Q146 835 151.5 833.5 Q157 832 163 824 L202 775 L239 824 Q245 832 250.5 833.5 Q256 835 264 835 L310 835 Q319 835 319 827 Q319 822 315 814 L280 748 Q275 738 270 735 Q265 732 252 732 L151 732 Q138 732 132.5 735 Q127 738 122 748 L85 818 Z " />
<glyph glyph-name="ntilde" unicode="&#xf1;" horiz-adv-x="403" d="M30 659 Q30 687 37 696.5 Q44 706 67 706 L94 706 Q113 706 120 700.5 Q127 695 135 673 L239 379 Q245 362 248 358.5 Q251 355 255 355 Q258 355 259.5 359 Q261 363 261 375 L261 659 Q261 684 268 695 Q275 706 294 706 L335 706 Q352 706 362.5 697.5 Q373 689 373 658 L373 48 Q373 20 366 10 Q359 0 336 0 L309 0 Q290 0 283 5 Q276 10 268 33 L163 330 Q158 345 155 348.5 Q152 352 149 352 Q145 352 143.5 348 Q142 344 142 332 L142 47 Q142 22 135.5 11 Q129 0 110 0 L68 0 Q50 0 40 8 Q30 16 30 48 L30 659 Z M82 802 Q82 815 87.5 823.5 Q93 832 109 832 L146 832 Q151 832 155.5 831 Q160 830 164 829 L239 806 Q246 803 252 803 Q256 803 256 810 L256 815 Q256 823 261.5 827.5 Q267 832 273 832 L294 832 Q311 832 316 825.5 Q321 819 321 804 L321 767 Q321 754 316 745.5 Q311 737 294 737 L257 737 Q252 737 247.5 738 Q243 739 239 740 L164 763 Q156 766 151 766 Q147 766 147 759 L147 754 Q147 746 142 741.5 Q137 737 130 737 L109 737 Q93 737 87.5 743.5 Q82 750 82 765 L82 802 Z " />
<glyph glyph-name="ncommaaccent" unicode="&#x146;" horiz-adv-x="403" d="M30 659 Q30 687 37 696.5 Q44 706 67 706 L94 706 Q113 706 120 700.5 Q127 695 135 673 L239 379 Q245 362 248 358.5 Q251 355 255 355 Q258 355 259.5 359 Q261 363 261 375 L261 659 Q261 684 268 695 Q275 706 294 706 L335 706 Q352 706 362.5 697.5 Q373 689 373 658 L373 48 Q373 20 366 10 Q359 0 336 0 L309 0 Q290 0 283 5 Q276 10 268 33 L163 330 Q158 345 155 348.5 Q152 352 149 352 Q145 352 143.5 348 Q142 344 142 332 L142 47 Q142 22 135.5 11 Q129 0 110 0 L68 0 Q50 0 40 8 Q30 16 30 48 L30 659 Z M183 -143 Q185 -137 185.5 -130.5 Q186 -124 179 -124 L172 -124 Q161 -124 157 -116.5 Q153 -109 153 -85 L153 -72 Q153 -46 160.5 -35.5 Q168 -25 188 -25 L223 -25 Q241 -25 248.5 -35 Q256 -45 256 -69 L256 -86 Q256 -100 255.5 -107.5 Q255 -115 253 -123 L227 -203 Q220 -224 204 -224 L175 -224 Q165 -224 161.5 -220 Q158 -216 163 -203 L183 -143 Z " />
<glyph glyph-name="ograve" unicode="&#xf2;" horiz-adv-x="361" d="M180 -10 Q120 -10 87 16 Q54 42 39 89.5 Q24 137 21.5 204 Q19 271 19 354 Q19 437 21.5 503.5 Q24 570 39 616.5 Q54 663 87 688 Q120 713 180 713 Q240 713 273 688 Q306 663 321.5 616.5 Q337 570 339.5 503.5 Q342 437 342 354 Q342 271 339.5 204 Q337 137 321.5 89.5 Q306 42 273 16 Q240 -10 180 -10 Z M180 113 Q196 113 206 121.5 Q216 130 221 156 Q226 182 228 229.5 Q230 277 230 354 Q230 429 228 475.5 Q226 522 221 548 Q216 574 206 583 Q196 592 180 592 Q164 592 154.5 583 Q145 574 139.5 548 Q134 522 132.5 475.5 Q131 429 131 354 Q131 277 132.5 229.5 Q134 182 139.5 156 Q145 130 154.5 121.5 Q164 113 180 113 Z M73 804 Q62 813 62 821 Q62 835 77 835 L158 835 Q166 835 170 832 Q174 829 182 818 L229 755 Q234 749 234 742 Q234 732 223 732 L169 732 Q160 732 156.5 734.5 Q153 737 146 742 L73 804 Z " />
<glyph glyph-name="oacute" unicode="&#xf3;" horiz-adv-x="361" d="M180 -10 Q120 -10 87 16 Q54 42 39 89.5 Q24 137 21.5 204 Q19 271 19 354 Q19 437 21.5 503.5 Q24 570 39 616.5 Q54 663 87 688 Q120 713 180 713 Q240 713 273 688 Q306 663 321.5 616.5 Q337 570 339.5 503.5 Q342 437 342 354 Q342 271 339.5 204 Q337 137 321.5 89.5 Q306 42 273 16 Q240 -10 180 -10 Z M180 113 Q196 113 206 121.5 Q216 130 221 156 Q226 182 228 229.5 Q230 277 230 354 Q230 429 228 475.5 Q226 522 221 548 Q216 574 206 583 Q196 592 180 592 Q164 592 154.5 583 Q145 574 139.5 548 Q134 522 132.5 475.5 Q131 429 131 354 Q131 277 132.5 229.5 Q134 182 139.5 156 Q145 130 154.5 121.5 Q164 113 180 113 Z M179 819 Q187 830 190.5 832.5 Q194 835 202 835 L283 835 Q298 835 298 821 Q298 812 287 804 L214 742 Q207 737 204 734.5 Q201 732 191 732 L137 732 Q126 732 126 742 Q126 749 131 755 L179 819 Z " />
<glyph glyph-name="ocircumflex" unicode="&#xf4;" horiz-adv-x="361" d="M180 -10 Q120 -10 87 16 Q54 42 39 89.5 Q24 137 21.5 204 Q19 271 19 354 Q19 437 21.5 503.5 Q24 570 39 616.5 Q54 663 87 688 Q120 713 180 713 Q240 713 273 688 Q306 663 321.5 616.5 Q337 570 339.5 503.5 Q342 437 342 354 Q342 271 339.5 204 Q337 137 321.5 89.5 Q306 42 273 16 Q240 -10 180 -10 Z M180 113 Q196 113 206 121.5 Q216 130 221 156 Q226 182 228 229.5 Q230 277 230 354 Q230 429 228 475.5 Q226 522 221 548 Q216 574 206 583 Q196 592 180 592 Q164 592 154.5 583 Q145 574 139.5 548 Q134 522 132.5 475.5 Q131 429 131 354 Q131 277 132.5 229.5 Q134 182 139.5 156 Q145 130 154.5 121.5 Q164 113 180 113 Z M101 818 Q106 828 111.5 831.5 Q117 835 130 835 L231 835 Q244 835 249 831.5 Q254 828 259 818 L296 749 Q297 747 298 744.5 Q299 742 299 740 Q299 732 289 732 L243 732 Q235 732 230 733.5 Q225 735 219 743 L180 794 L142 743 Q136 735 130.5 733.5 Q125 732 118 732 L72 732 Q62 732 62 740 Q62 743 64 749 L101 818 Z " />
<glyph glyph-name="otilde" unicode="&#xf5;" horiz-adv-x="361" d="M180 -10 Q120 -10 87 16 Q54 42 39 89.5 Q24 137 21.5 204 Q19 271 19 354 Q19 437 21.5 503.5 Q24 570 39 616.5 Q54 663 87 688 Q120 713 180 713 Q240 713 273 688 Q306 663 321.5 616.5 Q337 570 339.5 503.5 Q342 437 342 354 Q342 271 339.5 204 Q337 137 321.5 89.5 Q306 42 273 16 Q240 -10 180 -10 Z M180 113 Q196 113 206 121.5 Q216 130 221 156 Q226 182 228 229.5 Q230 277 230 354 Q230 429 228 475.5 Q226 522 221 548 Q216 574 206 583 Q196 592 180 592 Q164 592 154.5 583 Q145 574 139.5 548 Q134 522 132.5 475.5 Q131 429 131 354 Q131 277 132.5 229.5 Q134 182 139.5 156 Q145 130 154.5 121.5 Q164 113 180 113 Z M61 802 Q61 815 66.5 823.5 Q72 832 88 832 L125 832 Q130 832 134.5 831 Q139 830 143 829 L218 806 Q225 803 231 803 Q235 803 235 810 L235 815 Q235 823 240.5 827.5 Q246 832 252 832 L273 832 Q290 832 295 825.5 Q300 819 300 804 L300 767 Q300 754 295 745.5 Q290 737 273 737 L236 737 Q231 737 226.5 738 Q222 739 218 740 L143 763 Q135 766 130 766 Q126 766 126 759 L126 754 Q126 746 121 741.5 Q116 737 109 737 L88 737 Q72 737 66.5 743.5 Q61 750 61 765 L61 802 Z " />
<glyph glyph-name="odieresis" unicode="&#xf6;" horiz-adv-x="361" d="M180 -10 Q120 -10 87 16 Q54 42 39 89.5 Q24 137 21.5 204 Q19 271 19 354 Q19 437 21.5 503.5 Q24 570 39 616.5 Q54 663 87 688 Q120 713 180 713 Q240 713 273 688 Q306 663 321.5 616.5 Q337 570 339.5 503.5 Q342 437 342 354 Q342 271 339.5 204 Q337 137 321.5 89.5 Q306 42 273 16 Q240 -10 180 -10 Z M180 113 Q196 113 206 121.5 Q216 130 221 156 Q226 182 228 229.5 Q230 277 230 354 Q230 429 228 475.5 Q226 522 221 548 Q216 574 206 583 Q196 592 180 592 Q164 592 154.5 583 Q145 574 139.5 548 Q134 522 132.5 475.5 Q131 429 131 354 Q131 277 132.5 229.5 Q134 182 139.5 156 Q145 130 154.5 121.5 Q164 113 180 113 Z M200 803 Q200 821 206 828.5 Q212 836 232 836 L257 836 Q277 836 283.5 828.5 Q290 821 290 803 L290 769 Q290 751 283.5 743.5 Q277 736 257 736 L232 736 Q212 736 206 743.5 Q200 751 200 769 L200 803 Z M72 803 Q72 821 78 828.5 Q84 836 104 836 L129 836 Q149 836 155.5 828.5 Q162 821 162 803 L162 769 Q162 751 155.5 743.5 Q149 736 129 736 L104 736 Q84 736 78 743.5 Q72 751 72 769 L72 803 Z " />
<glyph glyph-name="omacron" unicode="&#x14d;" horiz-adv-x="361" d="M180 -10 Q120 -10 87 16 Q54 42 39 89.5 Q24 137 21.5 204 Q19 271 19 354 Q19 437 21.5 503.5 Q24 570 39 616.5 Q54 663 87 688 Q120 713 180 713 Q240 713 273 688 Q306 663 321.5 616.5 Q337 570 339.5 503.5 Q342 437 342 354 Q342 271 339.5 204 Q337 137 321.5 89.5 Q306 42 273 16 Q240 -10 180 -10 Z M180 113 Q196 113 206 121.5 Q216 130 221 156 Q226 182 228 229.5 Q230 277 230 354 Q230 429 228 475.5 Q226 522 221 548 Q216 574 206 583 Q196 592 180 592 Q164 592 154.5 583 Q145 574 139.5 548 Q134 522 132.5 475.5 Q131 429 131 354 Q131 277 132.5 229.5 Q134 182 139.5 156 Q145 130 154.5 121.5 Q164 113 180 113 Z M68 788 Q68 811 79 816 Q90 821 116 821 L247 821 Q273 821 283.5 816 Q294 811 294 788 L294 772 Q294 749 283.5 744 Q273 739 247 739 L116 739 Q90 739 79 744 Q68 749 68 772 L68 788 Z " />
<glyph glyph-name="ohungarumlaut" unicode="&#x151;" horiz-adv-x="361" d="M180 -10 Q120 -10 87 16 Q54 42 39 89.5 Q24 137 21.5 204 Q19 271 19 354 Q19 437 21.5 503.5 Q24 570 39 616.5 Q54 663 87 688 Q120 713 180 713 Q240 713 273 688 Q306 663 321.5 616.5 Q337 570 339.5 503.5 Q342 437 342 354 Q342 271 339.5 204 Q337 137 321.5 89.5 Q306 42 273 16 Q240 -10 180 -10 Z M180 113 Q196 113 206 121.5 Q216 130 221 156 Q226 182 228 229.5 Q230 277 230 354 Q230 429 228 475.5 Q226 522 221 548 Q216 574 206 583 Q196 592 180 592 Q164 592 154.5 583 Q145 574 139.5 548 Q134 522 132.5 475.5 Q131 429 131 354 Q131 277 132.5 229.5 Q134 182 139.5 156 Q145 130 154.5 121.5 Q164 113 180 113 Z M236 813 Q244 827 246.5 831 Q249 835 257 835 L313 835 Q321 835 324.5 828.5 Q328 822 321 814 L264 748 Q256 738 252.5 735 Q249 732 241 732 L206 732 Q201 732 198 738.5 Q195 745 201 755 L236 813 Z M127 813 Q135 825 138.5 830 Q142 835 150 835 L204 835 Q212 835 215.5 828 Q219 821 213 814 L155 748 Q147 738 143.5 735 Q140 732 132 732 L98 732 Q92 732 88.5 738.5 Q85 745 91 755 L127 813 Z " />
<glyph glyph-name="oslash" unicode="&#xf8;" horiz-adv-x="361" d="M180 -10 Q103 -10 67 34 L59 16 Q54 6 50 3 Q46 0 38 0 L13 0 Q-2 0 -4.5 5 Q-7 10 0 24 L35 102 Q23 150 21 213 Q19 276 19 354 Q19 437 21.5 503.5 Q24 570 39 616.5 Q54 663 87 688 Q120 713 180 713 Q220 713 247 702 Q274 691 292 670 L301 689 Q306 700 310.5 703 Q315 706 327 706 L346 706 Q357 706 363 702.5 Q369 699 362 685 L325 604 Q338 557 340 494.5 Q342 432 342 354 Q342 271 339.5 204 Q337 137 321.5 89.5 Q306 42 273 16 Q240 -10 180 -10 Z M180 113 Q196 113 206 121.5 Q216 130 221 156 Q226 182 228 229.5 Q230 277 230 354 L230 393 L135 185 Q139 141 149.5 127 Q160 113 180 113 Z M131 313 L225 521 Q220 563 210 577.5 Q200 592 180 592 Q164 592 154.5 583 Q145 574 139.5 548 Q134 522 132.5 475.5 Q131 429 131 354 L131 313 Z " />
<glyph glyph-name="oe" unicode="&#x153;" horiz-adv-x="515" d="M180 -10 Q120 -10 87 16 Q54 42 39 89.5 Q24 137 21.5 204 Q19 271 19 354 Q19 437 21.5 503.5 Q24 570 39 616.5 Q54 663 87 688 Q120 713 180 713 Q228 713 258 695 Q266 706 285 706 L465 706 Q485 706 492 698 Q499 690 499 664 L499 638 Q499 612 492 603 Q485 594 465 594 L361 594 Q349 594 345.5 589.5 Q342 585 342 571 L342 453 Q342 438 344.5 434.5 Q347 431 361 431 L414 431 Q431 431 438 424 Q445 417 445 395 L445 354 Q445 334 438 326.5 Q431 319 414 319 L361 319 Q350 319 346 316 Q342 313 342 303 L342 135 Q342 122 346 117 Q350 112 364 112 L469 112 Q491 112 499 102 Q507 92 507 66 L507 45 Q507 21 499 10.5 Q491 0 471 0 L285 0 Q266 0 258 7 Q229 -10 180 -10 Z M180 113 Q196 113 206 121.5 Q216 130 221 156 Q226 182 228 229.5 Q230 277 230 354 Q230 429 228 475.5 Q226 522 221 548 Q216 574 206 583 Q196 592 180 592 Q164 592 154.5 583 Q145 574 139.5 548 Q134 522 132.5 475.5 Q131 429 131 354 Q131 277 132.5 229.5 Q134 182 139.5 156 Q145 130 154.5 121.5 Q164 113 180 113 Z " />
<glyph glyph-name="racute" unicode="&#x155;" horiz-adv-x="356" d="M151 302 Q142 302 142 292 L142 45 Q142 17 135.5 8.5 Q129 0 108 0 L63 0 Q42 0 36 8 Q30 16 30 45 L30 657 Q30 684 37 695 Q44 706 63 706 L195 706 Q265 706 305 658.5 Q345 611 345 500 Q345 426 328 387 Q311 348 282 326 L347 29 Q348 24 348.5 20.5 Q349 17 349 15 Q349 0 330 0 L259 0 Q245 0 240 5.5 Q235 11 231 31 L179 291 Q177 299 174 300.5 Q171 302 164 302 L151 302 Z M185 414 Q196 414 204.5 416.5 Q213 419 219 428 Q225 437 228.5 454.5 Q232 472 232 501 Q232 531 228.5 549.5 Q225 568 219 578 Q213 588 204.5 591 Q196 594 185 594 L159 594 Q151 594 146.5 591 Q142 588 142 575 L142 432 Q142 421 146 417.5 Q150 414 158 414 L185 414 Z M157 819 Q165 830 168.5 832.5 Q172 835 180 835 L261 835 Q276 835 276 821 Q276 812 265 804 L192 742 Q185 737 182 734.5 Q179 732 169 732 L115 732 Q104 732 104 742 Q104 749 109 755 L157 819 Z " />
<glyph glyph-name="rcaron" unicode="&#x159;" horiz-adv-x="356" d="M151 302 Q142 302 142 292 L142 45 Q142 17 135.5 8.5 Q129 0 108 0 L63 0 Q42 0 36 8 Q30 16 30 45 L30 657 Q30 684 37 695 Q44 706 63 706 L195 706 Q265 706 305 658.5 Q345 611 345 500 Q345 426 328 387 Q311 348 282 326 L347 29 Q348 24 348.5 20.5 Q349 17 349 15 Q349 0 330 0 L259 0 Q245 0 240 5.5 Q235 11 231 31 L179 291 Q177 299 174 300.5 Q171 302 164 302 L151 302 Z M185 414 Q196 414 204.5 416.5 Q213 419 219 428 Q225 437 228.5 454.5 Q232 472 232 501 Q232 531 228.5 549.5 Q225 568 219 578 Q213 588 204.5 591 Q196 594 185 594 L159 594 Q151 594 146.5 591 Q142 588 142 575 L142 432 Q142 421 146 417.5 Q150 414 158 414 L185 414 Z M59 818 Q57 824 57 827 Q57 835 67 835 L113 835 Q120 835 125.5 833.5 Q131 832 137 824 L176 775 L213 824 Q219 832 224.5 833.5 Q230 835 238 835 L284 835 Q293 835 293 827 Q293 822 289 814 L254 748 Q249 738 244 735 Q239 732 226 732 L125 732 Q112 732 106.5 735 Q101 738 96 748 L59 818 Z " />
<glyph glyph-name="rcommaaccent" unicode="&#x157;" horiz-adv-x="356" d="M151 302 Q142 302 142 292 L142 45 Q142 17 135.5 8.5 Q129 0 108 0 L63 0 Q42 0 36 8 Q30 16 30 45 L30 657 Q30 684 37 695 Q44 706 63 706 L195 706 Q265 706 305 658.5 Q345 611 345 500 Q345 426 328 387 Q311 348 282 326 L347 29 Q348 24 348.5 20.5 Q349 17 349 15 Q349 0 330 0 L259 0 Q245 0 240 5.5 Q235 11 231 31 L179 291 Q177 299 174 300.5 Q171 302 164 302 L151 302 Z M185 414 Q196 414 204.5 416.5 Q213 419 219 428 Q225 437 228.5 454.5 Q232 472 232 501 Q232 531 228.5 549.5 Q225 568 219 578 Q213 588 204.5 591 Q196 594 185 594 L159 594 Q151 594 146.5 591 Q142 588 142 575 L142 432 Q142 421 146 417.5 Q150 414 158 414 L185 414 Z M159 -143 Q161 -137 161.5 -130.5 Q162 -124 155 -124 L148 -124 Q137 -124 133 -116.5 Q129 -109 129 -85 L129 -72 Q129 -46 136.5 -35.5 Q144 -25 164 -25 L199 -25 Q217 -25 224.5 -35 Q232 -45 232 -69 L232 -86 Q232 -100 231.5 -107.5 Q231 -115 229 -123 L203 -203 Q196 -224 180 -224 L151 -224 Q141 -224 137.5 -220 Q134 -216 139 -203 L159 -143 Z " />
<glyph glyph-name="sacute" unicode="&#x15b;" horiz-adv-x="317" d="M14 67 Q14 95 21 103.5 Q28 112 48 112 L157 112 Q180 112 186.5 131.5 Q193 151 179 177 L60 402 Q42 435 32 460.5 Q22 486 17 506.5 Q12 527 10.5 543 Q9 559 9 574 Q9 646 46 676 Q83 706 149 706 L251 706 Q281 706 281 668 L281 634 Q281 611 273 602.5 Q265 594 248 594 L154 594 Q128 594 120.5 572.5 Q113 551 131 518 L244 310 Q265 271 278 243.5 Q291 216 298 194.5 Q305 173 307.5 155 Q310 137 310 117 Q310 85 299.5 63 Q289 41 271.5 27 Q254 13 230.5 6.5 Q207 0 182 0 L49 0 Q29 0 21.5 8.5 Q14 17 14 43 L14 67 Z M147 819 Q155 830 158.5 832.5 Q162 835 170 835 L251 835 Q266 835 266 821 Q266 812 255 804 L182 742 Q175 737 172 734.5 Q169 732 159 732 L105 732 Q94 732 94 742 Q94 749 99 755 L147 819 Z " />
<glyph glyph-name="scaron" unicode="&#x161;" horiz-adv-x="317" d="M14 67 Q14 95 21 103.5 Q28 112 48 112 L157 112 Q180 112 186.5 131.5 Q193 151 179 177 L60 402 Q42 435 32 460.5 Q22 486 17 506.5 Q12 527 10.5 543 Q9 559 9 574 Q9 646 46 676 Q83 706 149 706 L251 706 Q281 706 281 668 L281 634 Q281 611 273 602.5 Q265 594 248 594 L154 594 Q128 594 120.5 572.5 Q113 551 131 518 L244 310 Q265 271 278 243.5 Q291 216 298 194.5 Q305 173 307.5 155 Q310 137 310 117 Q310 85 299.5 63 Q289 41 271.5 27 Q254 13 230.5 6.5 Q207 0 182 0 L49 0 Q29 0 21.5 8.5 Q14 17 14 43 L14 67 Z M40 818 Q38 824 38 827 Q38 835 48 835 L94 835 Q101 835 106.5 833.5 Q112 832 118 824 L157 775 L194 824 Q200 832 205.5 833.5 Q211 835 219 835 L265 835 Q274 835 274 827 Q274 822 270 814 L235 748 Q230 738 225 735 Q220 732 207 732 L106 732 Q93 732 87.5 735 Q82 738 77 748 L40 818 Z " />
<glyph glyph-name="scedilla" unicode="&#x15f;" horiz-adv-x="317" d="M77 -90 Q77 -71 85 -64.5 Q93 -58 118 -58 L135 -58 Q156 -58 156 -37 Q156 -32 154.5 -23 Q153 -14 149 0 L49 0 Q29 0 21.5 8.5 Q14 17 14 43 L14 67 Q14 95 21 103.5 Q28 112 48 112 L157 112 Q180 112 186.5 131.5 Q193 151 179 177 L60 402 Q42 435 32 460.5 Q22 486 17 506.5 Q12 527 10.5 543 Q9 559 9 574 Q9 646 46 676 Q83 706 149 706 L251 706 Q281 706 281 668 L281 634 Q281 611 273 602.5 Q265 594 248 594 L154 594 Q128 594 120.5 572.5 Q113 551 131 518 L244 310 Q265 271 278 243.5 Q291 216 298 194.5 Q305 173 307.5 155 Q310 137 310 117 Q310 88 301 66.5 Q292 45 277 31 Q262 17 241.5 9.5 Q221 2 198 0 Q203 -20 205 -32.5 Q207 -45 207 -58 Q207 -98 192.5 -121.5 Q178 -145 152 -145 L114 -145 Q90 -145 83.5 -137.5 Q77 -130 77 -103 L77 -90 Z " />
<glyph glyph-name="scommaaccent" unicode="&#x219;" horiz-adv-x="317" d="M14 67 Q14 95 21 103.5 Q28 112 48 112 L157 112 Q180 112 186.5 131.5 Q193 151 179 177 L60 402 Q42 435 32 460.5 Q22 486 17 506.5 Q12 527 10.5 543 Q9 559 9 574 Q9 646 46 676 Q83 706 149 706 L251 706 Q281 706 281 668 L281 634 Q281 611 273 602.5 Q265 594 248 594 L154 594 Q128 594 120.5 572.5 Q113 551 131 518 L244 310 Q265 271 278 243.5 Q291 216 298 194.5 Q305 173 307.5 155 Q310 137 310 117 Q310 85 299.5 63 Q289 41 271.5 27 Q254 13 230.5 6.5 Q207 0 182 0 L49 0 Q29 0 21.5 8.5 Q14 17 14 43 L14 67 Z M140 -143 Q142 -137 142.5 -130.5 Q143 -124 136 -124 L129 -124 Q118 -124 114 -116.5 Q110 -109 110 -85 L110 -72 Q110 -46 117.5 -35.5 Q125 -25 145 -25 L180 -25 Q198 -25 205.5 -35 Q213 -45 213 -69 L213 -86 Q213 -100 212.5 -107.5 Q212 -115 210 -123 L184 -203 Q177 -224 161 -224 L132 -224 Q122 -224 118.5 -220 Q115 -216 120 -203 L140 -143 Z " />
<glyph glyph-name="germandbls" unicode="&#xdf;" horiz-adv-x="385" d="M30 660 Q30 686 37 696 Q44 706 63 706 L250 706 Q284 706 306 692 Q328 678 341 654 Q354 630 359.5 597.5 Q365 565 365 528 Q365 461 349 424 Q333 387 303 368 Q335 355 355 310 Q375 265 375 190 Q375 149 368 114.5 Q361 80 346 54.5 Q331 29 307.5 14.5 Q284 0 250 0 L190 0 Q179 0 175 4 Q171 8 171 21 L171 85 Q171 98 175 105 Q179 112 190 112 L208 112 Q240 112 250 133.5 Q260 155 260 207 Q260 264 248 286 Q236 308 210 308 L205 308 Q194 308 189.5 312 Q185 316 185 329 L185 395 Q185 421 205 421 L209 421 Q238 421 245.5 443.5 Q253 466 253 510 Q253 560 241 577 Q229 594 209 594 L160 594 Q149 594 145.5 590 Q142 586 142 573 L142 48 Q142 20 135.5 10 Q129 0 109 0 L63 0 Q43 0 36.5 10 Q30 20 30 48 L30 660 Z " />
<glyph glyph-name="tcaron" unicode="&#x165;" horiz-adv-x="327" d="M107 573 Q107 587 103 590.5 Q99 594 93 594 L38 594 Q19 594 12.5 602 Q6 610 6 636 L6 659 Q6 687 13.5 696.5 Q21 706 41 706 L286 706 Q306 706 313 696.5 Q320 687 320 663 L320 637 Q320 611 313.5 602.5 Q307 594 287 594 L232 594 Q224 594 221.5 590 Q219 586 219 573 L219 47 Q219 19 212 9.5 Q205 0 185 0 L143 0 Q121 0 114 9 Q107 18 107 43 L107 573 Z M44 818 Q42 824 42 827 Q42 835 52 835 L98 835 Q105 835 110.5 833.5 Q116 832 122 824 L161 775 L198 824 Q204 832 209.5 833.5 Q215 835 223 835 L269 835 Q278 835 278 827 Q278 822 274 814 L239 748 Q234 738 229 735 Q224 732 211 732 L110 732 Q97 732 91.5 735 Q86 738 81 748 L44 818 Z " />
<glyph glyph-name="tcommaaccent" unicode="&#x163;" horiz-adv-x="327" d="M107 573 Q107 587 103 590.5 Q99 594 93 594 L38 594 Q19 594 12.5 602 Q6 610 6 636 L6 659 Q6 687 13.5 696.5 Q21 706 41 706 L286 706 Q306 706 313 696.5 Q320 687 320 663 L320 637 Q320 611 313.5 602.5 Q307 594 287 594 L232 594 Q224 594 221.5 590 Q219 586 219 573 L219 47 Q219 19 212 9.5 Q205 0 185 0 L143 0 Q121 0 114 9 Q107 18 107 43 L107 573 Z M67 -90 Q67 -71 75 -64.5 Q83 -58 108 -58 L125 -58 Q146 -58 146 -37 Q146 -30 142.5 -14 Q139 2 131 28 L180 28 Q191 -7 194 -24 Q197 -41 197 -58 Q197 -98 182.5 -121.5 Q168 -145 142 -145 L104 -145 Q80 -145 73.5 -137.5 Q67 -130 67 -103 L67 -90 Z " />
<glyph glyph-name="uni021B" unicode="&#x21b;" horiz-adv-x="327" d="M107 573 Q107 587 103 590.5 Q99 594 93 594 L38 594 Q19 594 12.5 602 Q6 610 6 636 L6 659 Q6 687 13.5 696.5 Q21 706 41 706 L286 706 Q306 706 313 696.5 Q320 687 320 663 L320 637 Q320 611 313.5 602.5 Q307 594 287 594 L232 594 Q224 594 221.5 590 Q219 586 219 573 L219 47 Q219 19 212 9.5 Q205 0 185 0 L143 0 Q121 0 114 9 Q107 18 107 43 L107 573 Z M139 -143 Q141 -137 141.5 -130.5 Q142 -124 135 -124 L128 -124 Q117 -124 113 -116.5 Q109 -109 109 -85 L109 -72 Q109 -46 116.5 -35.5 Q124 -25 144 -25 L179 -25 Q197 -25 204.5 -35 Q212 -45 212 -69 L212 -86 Q212 -100 211.5 -107.5 Q211 -115 209 -123 L183 -203 Q176 -224 160 -224 L131 -224 Q121 -224 117.5 -220 Q114 -216 119 -203 L139 -143 Z " />
<glyph glyph-name="ugrave" unicode="&#xf9;" horiz-adv-x="371" d="M24 659 Q24 686 32 696 Q40 706 61 706 L104 706 Q124 706 130 697 Q136 688 136 662 L136 172 Q136 143 148.5 126.5 Q161 110 187 110 Q210 110 222.5 126.5 Q235 143 235 173 L235 662 Q235 688 241.5 697 Q248 706 269 706 L314 706 Q335 706 341 697 Q347 688 347 662 L347 198 Q347 155 342 117 Q337 79 320 51 Q303 23 270.5 6.5 Q238 -10 183 -10 Q132 -10 101 3.5 Q70 17 53 43 Q36 69 30 106.5 Q24 144 24 193 L24 659 Z M75 804 Q64 813 64 821 Q64 835 79 835 L160 835 Q168 835 172 832 Q176 829 184 818 L231 755 Q236 749 236 742 Q236 732 225 732 L171 732 Q162 732 158.5 734.5 Q155 737 148 742 L75 804 Z " />
<glyph glyph-name="uacute" unicode="&#xfa;" horiz-adv-x="371" d="M24 659 Q24 686 32 696 Q40 706 61 706 L104 706 Q124 706 130 697 Q136 688 136 662 L136 172 Q136 143 148.5 126.5 Q161 110 187 110 Q210 110 222.5 126.5 Q235 143 235 173 L235 662 Q235 688 241.5 697 Q248 706 269 706 L314 706 Q335 706 341 697 Q347 688 347 662 L347 198 Q347 155 342 117 Q337 79 320 51 Q303 23 270.5 6.5 Q238 -10 183 -10 Q132 -10 101 3.5 Q70 17 53 43 Q36 69 30 106.5 Q24 144 24 193 L24 659 Z M189 819 Q197 830 200.5 832.5 Q204 835 212 835 L293 835 Q308 835 308 821 Q308 812 297 804 L224 742 Q217 737 214 734.5 Q211 732 201 732 L147 732 Q136 732 136 742 Q136 749 141 755 L189 819 Z " />
<glyph glyph-name="ucircumflex" unicode="&#xfb;" horiz-adv-x="371" d="M24 659 Q24 686 32 696 Q40 706 61 706 L104 706 Q124 706 130 697 Q136 688 136 662 L136 172 Q136 143 148.5 126.5 Q161 110 187 110 Q210 110 222.5 126.5 Q235 143 235 173 L235 662 Q235 688 241.5 697 Q248 706 269 706 L314 706 Q335 706 341 697 Q347 688 347 662 L347 198 Q347 155 342 117 Q337 79 320 51 Q303 23 270.5 6.5 Q238 -10 183 -10 Q132 -10 101 3.5 Q70 17 53 43 Q36 69 30 106.5 Q24 144 24 193 L24 659 Z M107 818 Q112 828 117.5 831.5 Q123 835 136 835 L237 835 Q250 835 255 831.5 Q260 828 265 818 L302 749 Q303 747 304 744.5 Q305 742 305 740 Q305 732 295 732 L249 732 Q241 732 236 733.5 Q231 735 225 743 L186 794 L148 743 Q142 735 136.5 733.5 Q131 732 124 732 L78 732 Q68 732 68 740 Q68 743 70 749 L107 818 Z " />
<glyph glyph-name="udieresis" unicode="&#xfc;" horiz-adv-x="371" d="M24 659 Q24 686 32 696 Q40 706 61 706 L104 706 Q124 706 130 697 Q136 688 136 662 L136 172 Q136 143 148.5 126.5 Q161 110 187 110 Q210 110 222.5 126.5 Q235 143 235 173 L235 662 Q235 688 241.5 697 Q248 706 269 706 L314 706 Q335 706 341 697 Q347 688 347 662 L347 198 Q347 155 342 117 Q337 79 320 51 Q303 23 270.5 6.5 Q238 -10 183 -10 Q132 -10 101 3.5 Q70 17 53 43 Q36 69 30 106.5 Q24 144 24 193 L24 659 Z M205 803 Q205 821 211 828.5 Q217 836 237 836 L262 836 Q282 836 288.5 828.5 Q295 821 295 803 L295 769 Q295 751 288.5 743.5 Q282 736 262 736 L237 736 Q217 736 211 743.5 Q205 751 205 769 L205 803 Z M77 803 Q77 821 83 828.5 Q89 836 109 836 L134 836 Q154 836 160.5 828.5 Q167 821 167 803 L167 769 Q167 751 160.5 743.5 Q154 736 134 736 L109 736 Q89 736 83 743.5 Q77 751 77 769 L77 803 Z " />
<glyph glyph-name="umacron" unicode="&#x16b;" horiz-adv-x="371" d="M24 659 Q24 686 32 696 Q40 706 61 706 L104 706 Q124 706 130 697 Q136 688 136 662 L136 172 Q136 143 148.5 126.5 Q161 110 187 110 Q210 110 222.5 126.5 Q235 143 235 173 L235 662 Q235 688 241.5 697 Q248 706 269 706 L314 706 Q335 706 341 697 Q347 688 347 662 L347 198 Q347 155 342 117 Q337 79 320 51 Q303 23 270.5 6.5 Q238 -10 183 -10 Q132 -10 101 3.5 Q70 17 53 43 Q36 69 30 106.5 Q24 144 24 193 L24 659 Z M73 788 Q73 811 84 816 Q95 821 121 821 L252 821 Q278 821 288.5 816 Q299 811 299 788 L299 772 Q299 749 288.5 744 Q278 739 252 739 L121 739 Q95 739 84 744 Q73 749 73 772 L73 788 Z " />
<glyph glyph-name="uring" unicode="&#x16f;" horiz-adv-x="371" d="M24 659 Q24 686 32 696 Q40 706 61 706 L104 706 Q124 706 130 697 Q136 688 136 662 L136 172 Q136 143 148.5 126.5 Q161 110 187 110 Q210 110 222.5 126.5 Q235 143 235 173 L235 662 Q235 688 241.5 697 Q248 706 269 706 L314 706 Q335 706 341 697 Q347 688 347 662 L347 198 Q347 155 342 117 Q337 79 320 51 Q303 23 270.5 6.5 Q238 -10 183 -10 Q132 -10 101 3.5 Q70 17 53 43 Q36 69 30 106.5 Q24 144 24 193 L24 659 Z M187 696 Q151 696 126.5 721.5 Q102 747 102 784 Q102 824 126 849.5 Q150 875 187 875 Q223 875 246.5 849.5 Q270 824 270 783 Q270 745 246 720.5 Q222 696 187 696 Z M186 740 Q203 740 214 753 Q225 766 225 783 Q225 801 214 814.5 Q203 828 186 828 Q168 828 157.5 815 Q147 802 147 784 Q147 766 157.5 753 Q168 740 186 740 Z " />
<glyph glyph-name="uhungarumlaut" unicode="&#x171;" horiz-adv-x="371" d="M24 659 Q24 686 32 696 Q40 706 61 706 L104 706 Q124 706 130 697 Q136 688 136 662 L136 172 Q136 143 148.5 126.5 Q161 110 187 110 Q210 110 222.5 126.5 Q235 143 235 173 L235 662 Q235 688 241.5 697 Q248 706 269 706 L314 706 Q335 706 341 697 Q347 688 347 662 L347 198 Q347 155 342 117 Q337 79 320 51 Q303 23 270.5 6.5 Q238 -10 183 -10 Q132 -10 101 3.5 Q70 17 53 43 Q36 69 30 106.5 Q24 144 24 193 L24 659 Z M233 813 Q241 827 243.5 831 Q246 835 254 835 L310 835 Q318 835 321.5 828.5 Q325 822 318 814 L261 748 Q253 738 249.5 735 Q246 732 238 732 L203 732 Q198 732 195 738.5 Q192 745 198 755 L233 813 Z M124 813 Q132 825 135.5 830 Q139 835 147 835 L201 835 Q209 835 212.5 828 Q216 821 210 814 L152 748 Q144 738 140.5 735 Q137 732 129 732 L95 732 Q89 732 85.5 738.5 Q82 745 88 755 L124 813 Z " />
<glyph glyph-name="uogonek" unicode="&#x173;" horiz-adv-x="371" d="M308 -111 Q308 -138 301.5 -146.5 Q295 -155 271 -155 L219 -155 Q190 -155 171.5 -137 Q153 -119 153 -93 Q153 -68 167 -47 Q181 -26 206 -9 Q200 -10 194.5 -10 Q189 -10 183 -10 Q132 -10 101 3.5 Q70 17 53 43 Q36 69 30 106.5 Q24 144 24 193 L24 659 Q24 686 32 696 Q40 706 61 706 L104 706 Q124 706 130 697 Q136 688 136 662 L136 172 Q136 143 148.5 126.5 Q161 110 187 110 Q210 110 222.5 126.5 Q235 143 235 173 L235 662 Q235 688 241.5 697 Q248 706 269 706 L314 706 Q335 706 341 697 Q347 688 347 662 L347 189 Q347 124 331.5 82.5 Q316 41 273 5 Q257 -9 244.5 -26.5 Q232 -44 232 -56 Q232 -73 253 -73 L267 -73 Q292 -73 300 -80 Q308 -87 308 -106 L308 -111 Z " />
<glyph glyph-name="yacute" unicode="&#xfd;" horiz-adv-x="356" d="M122 261 L5 669 Q1 682 4 694 Q7 706 24 706 L84 706 Q95 706 101 701.5 Q107 697 112 680 L170 443 Q172 435 173.5 433 Q175 431 178 431 Q181 431 182.5 433 Q184 435 186 443 L244 680 Q249 697 255 701.5 Q261 706 272 706 L332 706 Q349 706 352 694 Q355 682 351 669 L234 261 L234 45 Q234 17 227.5 8.5 Q221 0 199 0 L156 0 Q135 0 128.5 8.5 Q122 17 122 45 L122 261 Z M161 819 Q169 830 172.5 832.5 Q176 835 184 835 L265 835 Q280 835 280 821 Q280 812 269 804 L196 742 Q189 737 186 734.5 Q183 732 173 732 L119 732 Q108 732 108 742 Q108 749 113 755 L161 819 Z " />
<glyph glyph-name="ydieresis" unicode="&#xff;" horiz-adv-x="356" d="M122 261 L5 669 Q1 682 4 694 Q7 706 24 706 L84 706 Q95 706 101 701.5 Q107 697 112 680 L170 443 Q172 435 173.5 433 Q175 431 178 431 Q181 431 182.5 433 Q184 435 186 443 L244 680 Q249 697 255 701.5 Q261 706 272 706 L332 706 Q349 706 352 694 Q355 682 351 669 L234 261 L234 45 Q234 17 227.5 8.5 Q221 0 199 0 L156 0 Q135 0 128.5 8.5 Q122 17 122 45 L122 261 Z M200 803 Q200 821 206 828.5 Q212 836 232 836 L257 836 Q277 836 283.5 828.5 Q290 821 290 803 L290 769 Q290 751 283.5 743.5 Q277 736 257 736 L232 736 Q212 736 206 743.5 Q200 751 200 769 L200 803 Z M72 803 Q72 821 78 828.5 Q84 836 104 836 L129 836 Q149 836 155.5 828.5 Q162 821 162 803 L162 769 Q162 751 155.5 743.5 Q149 736 129 736 L104 736 Q84 736 78 743.5 Q72 751 72 769 L72 803 Z " />
<glyph glyph-name="zacute" unicode="&#x17a;" horiz-adv-x="321" d="M9 109 Q9 115 9.5 121 Q10 127 11.5 135 Q13 143 17 154 Q21 165 28 182 L198 575 Q201 583 199.5 588.5 Q198 594 189 594 L54 594 Q42 594 35.5 595.5 Q29 597 25 601.5 Q21 606 20 614.5 Q19 623 19 637 L19 661 Q19 688 25 697 Q31 706 53 706 L279 706 Q311 706 311 664 L311 591 Q311 581 307.5 567 Q304 553 296 534 L124 137 Q119 128 121 120 Q123 112 134 112 L278 112 Q298 112 305 103 Q312 94 312 66 L312 43 Q312 18 304 9 Q296 0 273 0 L43 0 Q23 0 16 8 Q9 16 9 42 L9 109 Z M152 819 Q160 830 163.5 832.5 Q167 835 175 835 L256 835 Q271 835 271 821 Q271 812 260 804 L187 742 Q180 737 177 734.5 Q174 732 164 732 L110 732 Q99 732 99 742 Q99 749 104 755 L152 819 Z " />
<glyph glyph-name="zcaron" unicode="&#x17e;" horiz-adv-x="321" d="M9 109 Q9 115 9.5 121 Q10 127 11.5 135 Q13 143 17 154 Q21 165 28 182 L198 575 Q201 583 199.5 588.5 Q198 594 189 594 L54 594 Q42 594 35.5 595.5 Q29 597 25 601.5 Q21 606 20 614.5 Q19 623 19 637 L19 661 Q19 688 25 697 Q31 706 53 706 L279 706 Q311 706 311 664 L311 591 Q311 581 307.5 567 Q304 553 296 534 L124 137 Q119 128 121 120 Q123 112 134 112 L278 112 Q298 112 305 103 Q312 94 312 66 L312 43 Q312 18 304 9 Q296 0 273 0 L43 0 Q23 0 16 8 Q9 16 9 42 L9 109 Z M53 818 Q51 824 51 827 Q51 835 61 835 L107 835 Q114 835 119.5 833.5 Q125 832 131 824 L170 775 L207 824 Q213 832 218.5 833.5 Q224 835 232 835 L278 835 Q287 835 287 827 Q287 822 283 814 L248 748 Q243 738 238 735 Q233 732 220 732 L119 732 Q106 732 100.5 735 Q95 738 90 748 L53 818 Z " />
<glyph glyph-name="zdotaccent" unicode="&#x17c;" horiz-adv-x="321" d="M9 109 Q9 115 9.5 121 Q10 127 11.5 135 Q13 143 17 154 Q21 165 28 182 L198 575 Q201 583 199.5 588.5 Q198 594 189 594 L54 594 Q42 594 35.5 595.5 Q29 597 25 601.5 Q21 606 20 614.5 Q19 623 19 637 L19 661 Q19 688 25 697 Q31 706 53 706 L279 706 Q311 706 311 664 L311 591 Q311 581 307.5 567 Q304 553 296 534 L124 137 Q119 128 121 120 Q123 112 134 112 L278 112 Q298 112 305 103 Q312 94 312 66 L312 43 Q312 18 304 9 Q296 0 273 0 L43 0 Q23 0 16 8 Q9 16 9 42 L9 109 Z M122 802 Q122 820 128 827.5 Q134 835 154 835 L177 835 Q197 835 203.5 827.5 Q210 820 210 802 L210 770 Q210 752 203.5 744.5 Q197 737 177 737 L154 737 Q134 737 128 744.5 Q122 752 122 770 L122 802 Z " />
<glyph glyph-name="eth" unicode="&#xf0;" horiz-adv-x="385" d="M45 329 Q21 329 10.5 334.5 Q0 340 0 362 L0 388 Q0 410 10.5 415.5 Q21 421 45 421 L45 658 Q45 684 52 695 Q59 706 78 706 L236 706 Q280 706 306 687.5 Q332 669 345.5 627 Q359 585 362.5 517.5 Q366 450 366 353 Q366 238 360.5 168.5 Q355 99 340 61.5 Q325 24 298.5 12 Q272 0 230 0 L82 0 Q59 0 52 8 Q45 16 45 45 L45 329 Z M157 421 L164 421 Q190 421 200.5 416 Q211 411 211 388 L211 362 Q211 339 200.5 334 Q190 329 164 329 L157 329 L157 140 Q157 120 163.5 116 Q170 112 194 112 Q213 112 225 118 Q237 124 243.5 147.5 Q250 171 252 217 Q254 263 254 343 Q254 431 252.5 481.5 Q251 532 244.5 557 Q238 582 225.5 588 Q213 594 191 594 Q171 594 164 589 Q157 584 157 562 L157 421 Z " />
<glyph glyph-name="thorn" unicode="&#xfe;" horiz-adv-x="352" d="M30 658 Q30 686 37 696 Q44 706 64 706 L110 706 Q128 706 135 695.5 Q142 685 142 658 L142 594 L209 594 Q280 594 312.5 537 Q345 480 345 368 Q345 262 316.5 206 Q288 150 226 150 L142 150 L142 45 Q142 17 135.5 8.5 Q129 0 108 0 L63 0 Q42 0 36 8 Q30 16 30 45 L30 658 Z M192 262 Q214 262 223 284.5 Q232 307 232 369 Q232 434 223 458 Q214 482 192 482 L159 482 Q152 482 147 479.5 Q142 477 142 467 L142 280 Q142 269 146 265.5 Q150 262 158 262 L192 262 Z " />
<glyph glyph-name="fi" unicode="&#xfb01;" horiz-adv-x="296" d="M30 657 Q30 686 37 696 Q44 706 64 706 L253 706 Q274 706 282 696 Q290 686 290 660 L290 636 Q290 612 283 603 Q276 594 258 594 L161 594 Q148 594 145 589 Q142 584 142 565 L142 450 Q142 439 145 435 Q148 431 156 431 L214 431 Q234 431 240 422.5 Q246 414 246 389 L246 365 Q246 339 239.5 329 Q233 319 213 319 L161 319 Q148 319 145 314 Q142 309 142 292 L142 44 Q142 19 135.5 9.5 Q129 0 112 0 L63 0 Q43 0 36.5 9 Q30 18 30 44 L30 657 Z M317 658 Q317 686 324 696 Q331 706 351 706 L397 706 Q415 706 422 695.5 Q429 685 429 658 L429 44 Q429 15 421.5 7.5 Q414 0 394 0 L354 0 Q331 0 324 9 Q317 18 317 47 L317 658 Z " />
<glyph glyph-name="fl" unicode="&#xfb02;" horiz-adv-x="296" d="M30 657 Q30 686 37 696 Q44 706 64 706 L253 706 Q274 706 282 696 Q290 686 290 660 L290 636 Q290 612 283 603 Q276 594 258 594 L161 594 Q148 594 145 589 Q142 584 142 565 L142 450 Q142 439 145 435 Q148 431 156 431 L214 431 Q234 431 240 422.5 Q246 414 246 389 L246 365 Q246 339 239.5 329 Q233 319 213 319 L161 319 Q148 319 145 314 Q142 309 142 292 L142 44 Q142 19 135.5 9.5 Q129 0 112 0 L63 0 Q43 0 36.5 9 Q30 18 30 44 L30 657 Z M323 660 Q323 685 330.5 695.5 Q338 706 357 706 L401 706 Q422 706 428.5 696 Q435 686 435 660 L435 134 Q435 121 439.5 116.5 Q444 112 452 112 L538 112 Q558 112 566 102.5 Q574 93 574 67 L574 45 Q574 21 564.5 10.5 Q555 0 535 0 L357 0 Q336 0 329.5 9 Q323 18 323 47 L323 660 Z " />
<glyph glyph-name="ampersand" unicode="&#x26;" horiz-adv-x="397" d="M224 424 L224 451 Q224 465 231 474.5 Q238 484 256 484 L304 484 Q337 484 337 452 L337 423 L357 423 Q377 423 383.5 415.5 Q390 408 390 391 L390 346 Q390 326 382.5 319 Q375 312 359 312 L337 312 L337 197 Q337 138 331.5 99 Q326 60 309 36.5 Q292 13 260 3.5 Q228 -6 175 -6 Q120 -6 89 7 Q58 20 42.5 47.5 Q27 75 23.5 117.5 Q20 160 20 218 Q20 261 23.5 289 Q27 317 35 335 Q43 353 55.5 362 Q68 371 85 376 Q71 381 60 390 Q49 399 41.5 417 Q34 435 29.5 464.5 Q25 494 25 540 Q25 600 37 633.5 Q49 667 67.5 683 Q86 699 110 702.5 Q134 706 158 706 L287 706 Q324 706 324 671 L324 628 Q324 610 315 602 Q306 594 283 594 L175 594 Q134 594 134 558 L134 472 Q134 446 144.5 435 Q155 424 178 424 L224 424 Z M224 314 L166 314 Q152 314 143 302 Q134 290 134 263 L134 152 Q134 132 143 119.5 Q152 107 178 107 Q206 107 215 118.5 Q224 130 224 154 L224 314 Z " />
<glyph glyph-name="grave" unicode="&#x60;" horiz-adv-x="166" d="M5 804 Q-6 813 -6 821 Q-6 835 9 835 L90 835 Q98 835 102 832 Q106 829 114 818 L161 755 Q166 749 166 742 Q166 732 155 732 L101 732 Q92 732 88.5 734.5 Q85 737 78 742 L5 804 Z " />
<glyph glyph-name="acute" unicode="&#xb4;" horiz-adv-x="197" d="M56 819 Q64 830 67.5 832.5 Q71 835 79 835 L160 835 Q175 835 175 821 Q175 812 164 804 L91 742 Q84 737 81 734.5 Q78 732 68 732 L14 732 Q3 732 3 742 Q3 749 8 755 L56 819 Z " />
<glyph glyph-name="circumflex" unicode="&#x2c6;" horiz-adv-x="251" d="M46 818 Q51 828 56.5 831.5 Q62 835 75 835 L176 835 Q189 835 194 831.5 Q199 828 204 818 L241 749 Q242 747 243 744.5 Q244 742 244 740 Q244 732 234 732 L188 732 Q180 732 175 733.5 Q170 735 164 743 L125 794 L87 743 Q81 735 75.5 733.5 Q70 732 63 732 L17 732 Q7 732 7 740 Q7 743 9 749 L46 818 Z " />
<glyph glyph-name="caron" unicode="&#x2c7;" horiz-adv-x="241" d="M5 818 Q3 824 3 827 Q3 835 13 835 L59 835 Q66 835 71.5 833.5 Q77 832 83 824 L122 775 L159 824 Q165 832 170.5 833.5 Q176 835 184 835 L230 835 Q239 835 239 827 Q239 822 235 814 L200 748 Q195 738 190 735 Q185 732 172 732 L71 732 Q58 732 52.5 735 Q47 738 42 748 L5 818 Z " />
<glyph glyph-name="commaaccent" unicode="&#xf6c3;" horiz-adv-x="200" d="M82 -143 Q84 -137 84.5 -130.5 Q85 -124 78 -124 L71 -124 Q60 -124 56 -116.5 Q52 -109 52 -85 L52 -72 Q52 -46 59.5 -35.5 Q67 -25 87 -25 L122 -25 Q140 -25 147.5 -35 Q155 -45 155 -69 L155 -86 Q155 -100 154.5 -107.5 Q154 -115 152 -123 L126 -203 Q119 -224 103 -224 L74 -224 Q64 -224 60.5 -220 Q57 -216 62 -203 L82 -143 Z " />
<glyph glyph-name="tilde" unicode="&#x2dc;" horiz-adv-x="259" d="M10 802 Q10 815 15.5 823.5 Q21 832 37 832 L74 832 Q79 832 83.5 831 Q88 830 92 829 L167 806 Q174 803 180 803 Q184 803 184 810 L184 815 Q184 823 189.5 827.5 Q195 832 201 832 L222 832 Q239 832 244 825.5 Q249 819 249 804 L249 767 Q249 754 244 745.5 Q239 737 222 737 L185 737 Q180 737 175.5 738 Q171 739 167 740 L92 763 Q84 766 79 766 Q75 766 75 759 L75 754 Q75 746 70 741.5 Q65 737 58 737 L37 737 Q21 737 15.5 743.5 Q10 750 10 765 L10 802 Z " />
<glyph glyph-name="dieresis" unicode="&#xa8;" horiz-adv-x="245" d="M142 803 Q142 821 148 828.5 Q154 836 174 836 L199 836 Q219 836 225.5 828.5 Q232 821 232 803 L232 769 Q232 751 225.5 743.5 Q219 736 199 736 L174 736 Q154 736 148 743.5 Q142 751 142 769 L142 803 Z M14 803 Q14 821 20 828.5 Q26 836 46 836 L71 836 Q91 836 97.5 828.5 Q104 821 104 803 L104 769 Q104 751 97.5 743.5 Q91 736 71 736 L46 736 Q26 736 20 743.5 Q14 751 14 769 L14 803 Z " />
<glyph glyph-name="macron" unicode="&#xaf;" horiz-adv-x="249" d="M11 788 Q11 811 22 816 Q33 821 59 821 L190 821 Q216 821 226.5 816 Q237 811 237 788 L237 772 Q237 749 226.5 744 Q216 739 190 739 L59 739 Q33 739 22 744 Q11 749 11 772 L11 788 Z " />
<glyph glyph-name="breve" unicode="&#x2d8;" horiz-adv-x="388" d="M64 850 Q71 850 73.5 846 Q76 842 78 836 Q80 829 83.5 823.5 Q87 818 95.5 813.5 Q104 809 118.5 806.5 Q133 804 156 804 Q178 804 192 806.5 Q206 809 214.5 813.5 Q223 818 226.5 823.5 Q230 829 232 836 Q235 850 245 850 L274 850 Q280 850 283 845.5 Q286 841 286 836 Q286 819 280 800.5 Q274 782 259.5 767 Q245 752 220 742.5 Q195 733 156 733 Q117 733 91.5 742.5 Q66 752 51 767 Q36 782 30 800.5 Q24 819 24 836 Q24 841 27 845.5 Q30 850 36 850 L64 850 Z " />
<glyph glyph-name="ring" unicode="&#x2da;" horiz-adv-x="168" d="M85 664 Q49 664 24.5 689.5 Q0 715 0 752 Q0 792 24 817.5 Q48 843 85 843 Q121 843 144.5 817.5 Q168 792 168 751 Q168 713 144 688.5 Q120 664 85 664 Z M84 708 Q101 708 112 721 Q123 734 123 751 Q123 769 112 782.5 Q101 796 84 796 Q66 796 55.5 783 Q45 770 45 752 Q45 734 55.5 721 Q66 708 84 708 Z " />
<glyph glyph-name="hungarumlaut" unicode="&#x2dd;" horiz-adv-x="223" d="M147 813 Q155 827 157.5 831 Q160 835 168 835 L224 835 Q232 835 235.5 828.5 Q239 822 232 814 L175 748 Q167 738 163.5 735 Q160 732 152 732 L117 732 Q112 732 109 738.5 Q106 745 112 755 L147 813 Z M38 813 Q46 825 49.5 830 Q53 835 61 835 L115 835 Q123 835 126.5 828 Q130 821 124 814 L66 748 Q58 738 54.5 735 Q51 732 43 732 L9 732 Q3 732 -0.5 738.5 Q-4 745 2 755 L38 813 Z " />
<glyph glyph-name="dotaccent" unicode="&#x2d9;" horiz-adv-x="117" d="M15 802 Q15 820 21 827.5 Q27 835 47 835 L70 835 Q90 835 96.5 827.5 Q103 820 103 802 L103 770 Q103 752 96.5 744.5 Q90 737 70 737 L47 737 Q27 737 21 744.5 Q15 752 15 770 L15 802 Z " />
<glyph glyph-name="cedilla" unicode="&#xb8;" horiz-adv-x="130" d="M0 -90 Q0 -71 8 -64.5 Q16 -58 41 -58 L58 -58 Q79 -58 79 -37 Q79 -30 75.5 -14 Q72 2 64 28 L113 28 Q124 -7 127 -24 Q130 -41 130 -58 Q130 -98 115.5 -121.5 Q101 -145 75 -145 L37 -145 Q13 -145 6.5 -137.5 Q0 -130 0 -103 L0 -90 Z " />
<glyph glyph-name="ogonek" unicode="&#x2db;" horiz-adv-x="197" d="M177 -111 Q177 -138 170.5 -146.5 Q164 -155 140 -155 L88 -155 Q59 -155 40.5 -137 Q22 -119 22 -93 Q22 -64 40.5 -40.5 Q59 -17 91 0 L146 0 Q101 -30 101 -56 Q101 -73 122 -73 L136 -73 Q161 -73 169 -80 Q177 -87 177 -106 L177 -111 Z " />
<glyph glyph-name="comma" unicode="&#x2c;" horiz-adv-x="142" d="M42 -18 Q48 -5 44.5 -2.5 Q41 0 37 0 L31 0 Q14 0 14 26 L14 67 Q14 93 19 104 Q24 115 46 115 L96 115 Q118 115 123 104 Q128 93 128 67 L128 44 Q128 36 126.5 25 Q125 14 117 -6 L97 -60 Q89 -81 75 -81 L34 -81 Q23 -81 21 -77 Q19 -73 23 -63 L42 -18 Z " />
<glyph glyph-name="semicolon" unicode="&#x3b;" horiz-adv-x="142" d="M14 355 Q14 381 19 392 Q24 403 46 403 L96 403 Q118 403 123 392 Q128 381 128 355 L128 336 Q128 310 123 299 Q118 288 96 288 L46 288 Q24 288 19 299 Q14 310 14 336 L14 355 Z M42 -18 Q48 -5 44.5 -2.5 Q41 0 37 0 L31 0 Q14 0 14 26 L14 67 Q14 93 19 104 Q24 115 46 115 L96 115 Q118 115 123 104 Q128 93 128 67 L128 44 Q128 36 126.5 25 Q125 14 117 -6 L97 -60 Q89 -81 75 -81 L34 -81 Q23 -81 21 -77 Q19 -73 23 -63 L42 -18 Z " />
<glyph glyph-name="colon" unicode="&#x3a;" horiz-adv-x="142" d="M14 355 Q14 381 19 392 Q24 403 46 403 L96 403 Q118 403 123 392 Q128 381 128 355 L128 336 Q128 310 123 299 Q118 288 96 288 L46 288 Q24 288 19 299 Q14 310 14 336 L14 355 Z M14 67 Q14 93 19 104 Q24 115 46 115 L96 115 Q118 115 123 104 Q128 93 128 67 L128 48 Q128 22 123 11 Q118 0 96 0 L46 0 Q24 0 19 11 Q14 22 14 48 L14 67 Z " />
<glyph glyph-name="period" unicode="&#x2e;" horiz-adv-x="142" d="M14 67 Q14 93 19 104 Q24 115 46 115 L96 115 Q118 115 123 104 Q128 93 128 67 L128 48 Q128 22 123 11 Q118 0 96 0 L46 0 Q24 0 19 11 Q14 22 14 48 L14 67 Z " />
<glyph glyph-name="ellipsis" unicode="&#x2026;" horiz-adv-x="425" d="M297 67 Q297 93 302 104 Q307 115 329 115 L379 115 Q401 115 406 104 Q411 93 411 67 L411 48 Q411 22 406 11 Q401 0 379 0 L329 0 Q307 0 302 11 Q297 22 297 48 L297 67 Z M155 67 Q155 93 160 104 Q165 115 188 115 L237 115 Q260 115 265 104 Q270 93 270 67 L270 48 Q270 22 265 11 Q260 0 237 0 L188 0 Q165 0 160 11 Q155 22 155 48 L155 67 Z M14 67 Q14 93 19 104 Q24 115 47 115 L96 115 Q119 115 124 104 Q129 93 129 67 L129 48 Q129 22 124 11 Q119 0 96 0 L47 0 Q24 0 19 11 Q14 22 14 48 L14 67 Z " />
<glyph glyph-name="hyphen" unicode="&#x2d;" horiz-adv-x="223" d="M11 393 Q11 419 17.5 427.5 Q24 436 44 436 L179 436 Q199 436 206 427.5 Q213 419 213 393 L213 354 Q213 328 206 319.5 Q199 311 179 311 L44 311 Q24 311 17.5 319.5 Q11 328 11 354 L11 393 Z " />
<glyph glyph-name="exclam" unicode="&#x21;" horiz-adv-x="173" d="M31 661 Q30 685 38 695.5 Q46 706 63 706 L109 706 Q129 706 136 696 Q143 686 143 660 L139 218 Q139 193 132 184 Q125 175 107 175 L73 175 Q54 175 46.5 183.5 Q39 192 38 218 L31 661 Z M33 67 Q33 93 38 104 Q43 115 66 115 L111 115 Q133 115 138 104 Q143 93 143 67 L143 48 Q143 22 138 11 Q133 0 111 0 L66 0 Q43 0 38 11 Q33 22 33 48 L33 67 Z " />
<glyph glyph-name="exclamdown" unicode="&#xa1;" horiz-adv-x="173" d="M30 658 Q30 684 35 695 Q40 706 62 706 L107 706 Q130 706 135 695 Q140 684 140 658 L140 638 Q140 613 135 602 Q130 591 107 591 L62 591 Q40 591 35 602 Q30 613 30 638 L30 658 Z M34 487 Q34 513 41 522 Q48 531 66 531 L100 531 Q119 531 126.5 522 Q134 513 135 487 L142 44 Q143 0 110 0 L63 0 Q43 0 36.5 9.5 Q30 19 30 45 L34 487 Z " />
<glyph glyph-name="question" unicode="&#x3f;" horiz-adv-x="273" d="M73 317 Q73 339 74.5 348 Q76 357 84 372 L125 459 Q134 477 138.5 488 Q143 499 145 507.5 Q147 516 147.5 523 Q148 530 148 541 Q148 562 141 578 Q134 594 113 594 L47 594 Q12 594 12 638 L12 661 Q12 706 47 706 L150 706 Q177 706 197.5 701 Q218 696 232 680.5 Q246 665 253.5 636 Q261 607 261 560 Q261 538 260 521.5 Q259 505 256 491 Q253 477 247.5 462.5 Q242 448 233 429 L192 342 Q185 327 183.5 315 Q182 303 182 281 L182 205 Q182 186 174.5 180 Q167 174 149 174 L108 174 Q87 174 80 182 Q73 190 73 213 L73 317 Z M72 67 Q72 93 77 104 Q82 115 105 115 L150 115 Q172 115 177.5 104 Q183 93 183 67 L183 48 Q183 22 177.5 11 Q172 0 150 0 L105 0 Q82 0 77 11 Q72 22 72 48 L72 67 Z " />
<glyph glyph-name="questiondown" unicode="&#xbf;" horiz-adv-x="269" d="M200 389 Q200 367 198.5 358 Q197 349 189 334 L148 247 Q139 229 134.5 218 Q130 207 128 198.5 Q126 190 125.5 182.5 Q125 175 125 165 Q125 144 132 128 Q139 112 160 112 L226 112 Q261 112 261 68 L261 45 Q261 0 226 0 L123 0 Q96 0 75.5 5 Q55 10 41 25.5 Q27 41 19.5 70 Q12 99 12 146 Q12 168 13 184.5 Q14 201 17 215 Q20 229 25.5 243.5 Q31 258 40 277 L81 364 Q88 379 89.5 391 Q91 403 91 425 L91 501 Q91 520 98.5 526 Q106 532 124 532 L165 532 Q186 532 193 524 Q200 516 200 493 L200 389 Z M201 639 Q201 613 196 602 Q191 591 168 591 L123 591 Q101 591 95.5 602 Q90 613 90 639 L90 658 Q90 684 95.5 695 Q101 706 123 706 L168 706 Q191 706 196 695 Q201 684 201 658 L201 639 Z " />
<glyph glyph-name="quoteleft" unicode="&#x2018;" horiz-adv-x="124" d="M9 568 Q9 582 10 589.5 Q11 597 13 605 L40 686 Q46 706 63 706 L96 706 Q106 706 109 703 Q112 700 107 686 L86 625 Q79 606 91 606 L98 606 Q109 606 112 598.5 Q115 591 115 567 L115 528 Q115 502 107.5 491.5 Q100 481 80 481 L42 481 Q24 481 16.5 491 Q9 501 9 525 L9 568 Z " />
<glyph glyph-name="quoteright" unicode="&#x2019;" horiz-adv-x="124" d="M39 562 Q42 570 41 575.5 Q40 581 34 581 L26 581 Q15 581 12 588.5 Q9 596 9 620 L9 659 Q9 685 16.5 695.5 Q24 706 44 706 L83 706 Q101 706 108 696 Q115 686 115 662 L115 619 Q115 605 114 597.5 Q113 590 111 582 L85 501 Q79 481 61 481 L28 481 Q19 481 16 484.5 Q13 488 18 501 L39 562 Z " />
<glyph glyph-name="quotedblleft" unicode="&#x201c;" horiz-adv-x="266" d="M152 568 Q152 582 153 589.5 Q154 597 156 605 L182 686 Q188 706 205 706 L238 706 Q248 706 251 702.5 Q254 699 249 686 L227 625 Q225 619 225 612.5 Q225 606 232 606 L239 606 Q250 606 253.5 598.5 Q257 591 257 567 L257 528 Q257 502 249.5 491.5 Q242 481 222 481 L187 481 Q169 481 160.5 491 Q152 501 152 525 L152 568 Z M9 568 Q9 582 10.5 589.5 Q12 597 14 605 L40 686 Q46 706 62 706 L95 706 Q105 706 108 703 Q111 700 106 686 L85 625 Q78 606 90 606 L98 606 Q108 606 111 598.5 Q114 591 114 567 L114 528 Q114 502 107 491.5 Q100 481 80 481 L42 481 Q24 481 16.5 491 Q9 501 9 525 L9 568 Z " />
<glyph glyph-name="quotedblright" unicode="&#x201d;" horiz-adv-x="266" d="M182 562 Q185 570 184 575.5 Q183 581 177 581 L169 581 Q158 581 155 588.5 Q152 596 152 620 L152 659 Q152 685 159.5 695.5 Q167 706 187 706 L224 706 Q243 706 250 696 Q257 686 257 662 L257 619 Q257 605 256 597.5 Q255 590 253 582 L227 501 Q221 481 203 481 L171 481 Q162 481 159 484.5 Q156 488 161 501 L182 562 Z M40 562 Q42 568 41.5 574.5 Q41 581 35 581 L27 581 Q17 581 13 588.5 Q9 596 9 620 L9 659 Q9 685 17 695.5 Q25 706 44 706 L82 706 Q100 706 107 696 Q114 686 114 662 L114 619 Q114 605 113 597.5 Q112 590 110 582 L85 501 Q79 481 62 481 L28 481 Q19 481 16 485 Q13 489 18 501 L40 562 Z " />
<glyph glyph-name="quotesinglbase" unicode="&#x201a;" horiz-adv-x="123" d="M40 -19 Q42 -13 41.5 -6.5 Q41 0 35 0 L27 0 Q17 0 13 7.5 Q9 15 9 39 L9 78 Q9 104 17 114.5 Q25 125 44 125 L82 125 Q100 125 107 115 Q114 105 114 81 L114 38 Q114 24 113 16.5 Q112 9 110 1 L85 -79 Q80 -99 62 -99 L28 -99 Q19 -99 16 -95.5 Q13 -92 18 -79 L40 -19 Z " />
<glyph glyph-name="quotedblbase" unicode="&#x201e;" horiz-adv-x="266" d="M182 -19 Q189 0 177 0 L169 0 Q158 0 155 7.5 Q152 15 152 39 L152 78 Q152 104 159.5 114.5 Q167 125 187 125 L224 125 Q243 125 250 115 Q257 105 257 81 L257 38 Q257 24 256 16.5 Q255 9 253 1 L227 -79 Q220 -99 203 -99 L171 -99 Q162 -99 159 -96 Q156 -93 161 -79 L182 -19 Z M40 -19 Q42 -13 41.5 -6.5 Q41 0 35 0 L27 0 Q17 0 13 7.5 Q9 15 9 39 L9 78 Q9 104 17 114.5 Q25 125 44 125 L82 125 Q100 125 107 115 Q114 105 114 81 L114 38 Q114 24 113 16.5 Q112 9 110 1 L85 -79 Q80 -99 62 -99 L28 -99 Q19 -99 16 -95.5 Q13 -92 18 -79 L40 -19 Z " />
<glyph glyph-name="guilsinglleft" unicode="&#x2039;" horiz-adv-x="106" d="M22 226 Q5 240 5 271 L5 407 Q5 427 7.5 434 Q10 441 19 448 L84 495 Q93 503 97 499 Q101 495 101 486 L101 415 Q101 403 99 397 Q97 391 93 385 L59 336 L90 293 Q96 283 98.5 279 Q101 275 101 266 L101 190 Q101 179 96.5 178.5 Q92 178 87 180 L22 226 Z " />
<glyph glyph-name="guilsinglright" unicode="&#x203a;" horiz-adv-x="106" d="M5 266 Q5 275 7 279 Q9 283 16 293 L47 336 L13 385 Q8 391 6.5 397 Q5 403 5 415 L5 486 Q5 495 9 499 Q13 503 22 495 L87 448 Q95 441 98 434 Q101 427 101 407 L101 271 Q101 240 84 226 L19 180 Q14 178 9.5 178.5 Q5 179 5 190 L5 266 Z " />
<glyph glyph-name="guillemotleft" unicode="&#xab;" horiz-adv-x="223" d="M140 226 Q123 239 123 271 L123 407 Q123 427 125.5 434 Q128 441 136 448 L201 495 Q211 503 214.5 499 Q218 495 218 486 L218 415 Q218 403 216 397 Q214 391 211 385 L177 336 L207 293 Q214 283 216 279 Q218 275 218 266 L218 190 Q218 179 213.5 178.5 Q209 178 204 180 L140 226 Z M22 226 Q5 240 5 271 L5 407 Q5 427 7.5 434 Q10 441 19 448 L84 495 Q93 503 97 499 Q101 495 101 486 L101 415 Q101 403 99 397 Q97 391 93 385 L59 336 L90 293 Q96 283 98.5 279 Q101 275 101 266 L101 190 Q101 179 96.5 178.5 Q92 178 87 180 L22 226 Z " />
<glyph glyph-name="guillemotright" unicode="&#xbb;" horiz-adv-x="223" d="M123 266 Q123 275 124.5 279 Q126 283 133 293 L164 336 L130 385 Q126 391 124.5 397 Q123 403 123 415 L123 486 Q123 495 126 499 Q129 503 139 495 L204 448 Q212 441 215 434 Q218 427 218 407 L218 271 Q218 239 201 226 L135 180 Q130 178 126.5 178.5 Q123 179 123 190 L123 266 Z M5 266 Q5 275 7 279 Q9 283 16 293 L47 336 L13 385 Q8 391 6.5 397 Q5 403 5 415 L5 486 Q5 495 9 499 Q13 503 22 495 L87 448 Q95 441 98 434 Q101 427 101 407 L101 271 Q101 240 84 226 L19 180 Q14 178 9.5 178.5 Q5 179 5 190 L5 266 Z " />
<glyph glyph-name="slash" unicode="&#x2f;" horiz-adv-x="203" d="M117 703 Q122 725 138 725 L185 725 Q194 725 196 718.5 Q198 712 196 698 L86 1 Q83 -21 66 -21 L18 -21 Q9 -21 7 -15 Q5 -9 7 5 L117 703 Z " />
<glyph glyph-name="bar" unicode="&#x7c;" horiz-adv-x="180" d="M53 724 Q53 750 60.5 756.5 Q68 763 88 763 L121 763 Q139 763 146 755 Q153 747 153 724 L153 -139 Q153 -162 145.5 -168.5 Q138 -175 118 -175 L90 -175 Q67 -175 60 -167 Q53 -159 53 -136 L53 724 Z " />
<glyph glyph-name="endash" unicode="&#x2013;" horiz-adv-x="348" d="M11 389 Q11 415 16 425.5 Q21 436 43 436 L305 436 Q327 436 332.5 425.5 Q338 415 338 389 L338 340 Q338 314 332.5 303.5 Q327 293 305 293 L43 293 Q21 293 16 303.5 Q11 314 11 340 L11 389 Z " />
<glyph glyph-name="emdash" unicode="&#x2014;" horiz-adv-x="470" d="M12 389 Q12 415 17 425.5 Q22 436 44 436 L425 436 Q448 436 453 425.5 Q458 415 458 389 L458 340 Q458 314 453 303.5 Q448 293 425 293 L44 293 Q22 293 17 303.5 Q12 314 12 340 L12 389 Z " />
<glyph glyph-name="bullet" unicode="&#x2022;" horiz-adv-x="200" d="M17 422 Q17 459 26 471 Q35 483 66 483 L134 483 Q165 483 174 471 Q183 459 183 422 L183 334 Q183 315 181 303.5 Q179 292 174 285.5 Q169 279 159 276.5 Q149 274 134 274 L66 274 Q51 274 41 276.5 Q31 279 26 285.5 Q21 292 19 303.5 Q17 315 17 334 L17 422 Z " />
<glyph glyph-name="periodcentered" unicode="&#xb7;" horiz-adv-x="148" d="M17 390 Q17 416 22 426.5 Q27 437 49 437 L99 437 Q121 437 126.5 426.5 Q132 416 132 390 L132 339 Q132 313 126.5 302.5 Q121 292 99 292 L49 292 Q27 292 22 302.5 Q17 313 17 339 L17 390 Z " />
<glyph glyph-name="parenleft" unicode="&#x28;" horiz-adv-x="171" d="M105 -77 Q87 -77 81 -71 Q75 -65 70 -43 Q60 4 51.5 49 Q43 94 36.5 140.5 Q30 187 26.5 236.5 Q23 286 23 343 Q23 400 26.5 449.5 Q30 499 36.5 545.5 Q43 592 51.5 637 Q60 682 70 729 Q75 751 81 757 Q87 763 105 763 L129 763 Q146 763 150.5 758 Q155 753 151 730 Q144 683 139.5 638 Q135 593 132 546.5 Q129 500 128 450 Q127 400 127 343 Q127 286 128 235.5 Q129 185 132 138.5 Q135 92 139.5 47 Q144 2 151 -44 Q155 -67 150.5 -72 Q146 -77 129 -77 L105 -77 Z " />
<glyph glyph-name="parenright" unicode="&#x29;" horiz-adv-x="171" d="M42 -77 Q25 -77 21 -72 Q17 -67 20 -44 Q26 2 30.5 47 Q35 92 38 138.5 Q41 185 42.5 235.5 Q44 286 44 343 Q44 400 42.5 450 Q41 500 38 546.5 Q35 593 30.5 638 Q26 683 20 730 Q17 753 21 758 Q25 763 42 763 L67 763 Q84 763 90.5 757 Q97 751 102 729 Q112 682 120.5 637 Q129 592 135 545.5 Q141 499 144.5 449.5 Q148 400 148 343 Q148 286 144.5 236.5 Q141 187 135 140.5 Q129 94 120.5 49 Q112 4 102 -43 Q97 -65 90.5 -71 Q84 -77 67 -77 L42 -77 Z " />
<glyph glyph-name="bracketleft" unicode="&#x5b;" horiz-adv-x="238" d="M31 714 Q31 741 38 752 Q45 763 64 763 L188 763 Q211 763 216 754.5 Q221 746 221 726 L221 706 Q221 688 216 678.5 Q211 669 188 669 L124 669 L124 15 L188 15 Q211 15 216 5.5 Q221 -4 221 -21 L221 -40 Q221 -60 216 -68.5 Q211 -77 188 -77 L64 -77 Q43 -77 37 -69 Q31 -61 31 -32 L31 714 Z " />
<glyph glyph-name="bracketright" unicode="&#x5d;" horiz-adv-x="238" d="M17 -21 Q17 -4 22 5.5 Q27 15 50 15 L114 15 L114 669 L50 669 Q27 669 22 678.5 Q17 688 17 706 L17 726 Q17 746 22 754.5 Q27 763 50 763 L174 763 Q193 763 200.5 752 Q208 741 208 714 L208 -32 Q208 -61 201.5 -69 Q195 -77 174 -77 L50 -77 Q27 -77 22 -68.5 Q17 -60 17 -40 L17 -21 Z " />
<glyph glyph-name="braceleft" unicode="&#x7b;" horiz-adv-x="251" d="M74 203 Q74 212 73.5 223 Q73 234 70.5 245 Q68 256 63.5 265.5 Q59 275 51 280 Q39 287 28 289.5 Q17 292 17 309 L17 372 Q17 388 29 392 Q41 396 52 404 Q68 417 71 438 Q74 459 74 478 L74 634 Q74 660 77.5 683.5 Q81 707 91 724.5 Q101 742 119.5 752.5 Q138 763 168 763 L205 763 Q226 763 230 753 Q234 743 234 726 L234 706 Q234 686 229 679 Q224 672 217 670.5 Q210 669 201 669.5 Q192 670 185 664.5 Q178 659 173 645 Q168 631 168 600 L168 468 Q168 448 167 428.5 Q166 409 160 392 Q154 375 141.5 362 Q129 349 107 343 L107 341 Q129 336 141.5 321 Q154 306 160 286 Q166 266 167 244 Q168 222 168 204 L168 85 Q168 54 173 39.5 Q178 25 185 19.5 Q192 14 201 14.5 Q210 15 217 13.5 Q224 12 229 5 Q234 -2 234 -22 Q234 -32 234 -42 Q234 -52 231.5 -59.5 Q229 -67 223 -72 Q217 -77 205 -77 L175 -77 Q145 -77 125 -67 Q105 -57 94 -39.5 Q83 -22 78.5 1.5 Q74 25 74 52 L74 203 Z " />
<glyph glyph-name="braceright" unicode="&#x7d;" horiz-adv-x="251" d="M177 52 Q177 25 172.5 1.5 Q168 -22 157 -39.5 Q146 -57 126 -67 Q106 -77 76 -77 L46 -77 Q26 -77 21.5 -64.5 Q17 -52 17 -35 Q17 -10 22 0 Q27 10 34 12.5 Q41 15 50 14.5 Q59 14 66 19 Q73 24 78 38 Q83 52 83 85 L83 204 Q83 222 84 244 Q85 266 91 286 Q97 306 109 321 Q121 336 144 341 L144 343 Q121 349 109 362 Q97 375 91 392 Q85 409 84 428.5 Q83 448 83 468 L83 600 Q83 631 78 645 Q73 659 66 664.5 Q59 670 50 669.5 Q41 669 34 670.5 Q27 672 22 679 Q17 686 17 706 L17 726 Q17 743 21 753 Q25 763 46 763 L83 763 Q113 763 131.5 752.5 Q150 742 160 724.5 Q170 707 173.5 683.5 Q177 660 177 634 L177 478 Q177 459 180 438.5 Q183 418 199 404 Q204 399 210 397 Q216 395 221.5 392 Q227 389 230.5 384.5 Q234 380 234 372 L234 309 Q234 300 231 295.5 Q228 291 223 289 Q218 287 212 285.5 Q206 284 200 280 Q192 275 187 265.5 Q182 256 180 245 Q178 234 177.5 223 Q177 212 177 203 L177 52 Z " />
<glyph glyph-name="asterisk" unicode="&#x2a;" horiz-adv-x="222" d="M4 533 Q0 541 0.5 545.5 Q1 550 12 555 L77 587 L12 620 Q2 625 1 630.5 Q0 636 3 641 L11 654 Q15 660 19.5 661.5 Q24 663 34 657 L94 616 L89 688 Q88 708 104 708 L117 708 Q126 708 129.5 704 Q133 700 132 687 L128 616 L187 656 Q196 662 201.5 661 Q207 660 212 653 L219 641 Q224 634 221.5 628.5 Q219 623 207 618 L145 587 L208 557 Q228 547 219 533 L212 522 Q207 514 202 513 Q197 512 186 519 L128 558 L132 486 Q133 475 129 471.5 Q125 468 118 468 L104 468 Q96 468 92 471.5 Q88 475 89 486 L94 558 L34 517 Q24 511 19.5 513 Q15 515 12 521 L4 533 Z " />
<glyph glyph-name="section" unicode="&#xa7;" horiz-adv-x="398" d="M20 62 Q20 84 27 89.5 Q34 95 57 95 L166 95 Q189 95 196.5 106 Q204 117 204 159 Q204 175 189.5 189 Q175 203 152.5 217 Q130 231 104.5 246 Q79 261 56.5 280.5 Q34 300 19.5 324 Q5 348 5 380 Q5 451 23.5 488.5 Q42 526 80 539 L80 540 Q80 631 110.5 668.5 Q141 706 206 706 L341 706 Q364 706 371 699.5 Q378 693 378 671 L378 642 Q378 621 371 615 Q364 609 341 609 L229 609 Q218 609 210.5 607 Q203 605 198.5 598 Q194 591 192 578 Q190 565 190 543 Q190 529 205 516 Q220 503 242.5 489.5 Q265 476 291.5 460.5 Q318 445 340.5 425 Q363 405 378 380 Q393 355 393 323 Q393 251 374.5 214.5 Q356 178 317 166 L317 162 Q317 71 287 35 Q257 -1 191 -1 L57 -1 Q33 -1 26.5 5 Q20 11 20 34 L20 62 Z M130 443 Q121 438 117.5 425 Q114 412 114 383 Q114 368 129.5 355 Q145 342 168.5 327.5 Q192 313 219 297 Q246 281 269 260 Q277 265 280.5 278 Q284 291 284 320 Q284 336 268.5 350 Q253 364 229.5 378.5 Q206 393 179 408 Q152 423 130 443 Z " />
<glyph glyph-name="paragraph" unicode="&#xb6;" horiz-adv-x="457" d="M141 358 Q111 358 87.5 372.5 Q64 387 48.5 411 Q33 435 25 466 Q17 497 17 529 Q17 562 26.5 594 Q36 626 55.5 651 Q75 676 104.5 691 Q134 706 174 706 L382 706 Q401 706 408 699.5 Q415 693 415 672 L415 615 Q415 592 407 586.5 Q399 581 383 581 L383 -78 Q383 -93 376.5 -99 Q370 -105 352 -105 L318 -105 Q299 -105 294 -97.5 Q289 -90 289 -78 L289 581 L234 581 L234 -78 Q234 -93 227.5 -99 Q221 -105 204 -105 L169 -105 Q150 -105 145.5 -97.5 Q141 -90 141 -78 L141 358 Z " />
<glyph glyph-name="asciicircum" unicode="&#x5e;" horiz-adv-x="427" d="M146 676 Q150 684 152.5 689.5 Q155 695 159 699 Q163 703 169 704.5 Q175 706 186 706 L241 706 Q252 706 258.5 704.5 Q265 703 269 699 Q273 695 275.5 689.5 Q278 684 281 676 L411 394 Q421 371 419.5 362 Q418 353 398 352 L354 351 Q344 351 336 351 Q328 351 321.5 353.5 Q315 356 309.5 362 Q304 368 299 379 L214 586 L128 379 Q120 359 106 354.5 Q92 350 72 351 L30 352 Q9 353 7.5 362 Q6 371 17 394 L146 676 Z " />
<glyph glyph-name="asciitilde" unicode="&#x7e;" horiz-adv-x="690" d="M0 382 Q0 393 1 400 Q2 407 5 412 Q8 417 14 421 Q20 425 30 430 Q65 450 108 461 Q151 472 189 472 Q236 472 268.5 462 Q301 452 331.5 440.5 Q362 429 396.5 419 Q431 409 482 409 Q535 409 576.5 419.5 Q618 430 660 448 Q671 453 680.5 450 Q690 447 690 430 L690 383 Q690 372 689 364.5 Q688 357 685 351.5 Q682 346 676 342 Q670 338 660 334 Q621 318 573 309 Q525 300 476 300 Q426 300 391.5 310 Q357 320 326.5 332 Q296 344 263 354 Q230 364 183 364 Q141 364 104.5 351 Q68 338 30 320 Q19 315 9.5 318 Q0 321 0 339 L0 382 Z " />
<glyph glyph-name="backslash" unicode="&#x5c;" horiz-adv-x="199" d="M5 698 Q3 712 5 718.5 Q7 725 16 725 L63 725 Q79 725 84 703 L194 5 Q196 -9 194 -15 Q192 -21 183 -21 L135 -21 Q118 -21 115 1 L5 698 Z " />
<glyph glyph-name="underscore" unicode="&#x5f;" horiz-adv-x="381" d="M0 -70 L381 -70 L381 -133 L0 -133 L0 -70 Z " />
<glyph glyph-name="quotesingle" unicode="&#x27;" horiz-adv-x="123" d="M10 676 Q8 690 14 698 Q20 706 31 706 L91 706 Q102 706 108 697 Q114 688 112 676 L91 534 Q89 519 84.5 515.5 Q80 512 68 512 L53 512 Q42 512 37 515.5 Q32 519 29 534 L10 676 Z " />
<glyph glyph-name="quotedbl" unicode="&#x22;" horiz-adv-x="264" d="M148 676 Q146 688 152 697 Q158 706 170 706 L231 706 Q242 706 247.5 698 Q253 690 251 676 L231 534 Q229 519 223.5 515.5 Q218 512 208 512 L193 512 Q182 512 176.5 515.5 Q171 519 169 534 L148 676 Z M13 676 Q11 690 17 698 Q23 706 34 706 L94 706 Q106 706 112 697 Q118 688 116 676 L95 534 Q93 519 88 515.5 Q83 512 72 512 L57 512 Q46 512 41 515.5 Q36 519 34 534 L13 676 Z " />
<glyph glyph-name="at" unicode="&#x40;" horiz-adv-x="512" d="M442 51 Q445 42 445 39 Q445 32 438 27 Q431 22 400 14 Q371 6 334.5 1 Q298 -4 256 -4 Q143 -4 80 73.5 Q17 151 17 318 Q17 401 33.5 469.5 Q50 538 83 586.5 Q116 635 165.5 662 Q215 689 280 689 Q335 689 375.5 668 Q416 647 443 609.5 Q470 572 483.5 520.5 Q497 469 497 407 Q497 350 484.5 302.5 Q472 255 451 220.5 Q430 186 401.5 167 Q373 148 340 148 Q320 148 307.5 160.5 Q295 173 290 188 Q278 171 261 160 Q244 149 223 149 Q203 149 187 160.5 Q171 172 159.5 191.5 Q148 211 141.5 237 Q135 263 135 292 Q135 335 143.5 375.5 Q152 416 168.5 447 Q185 478 208 497 Q231 516 261 516 Q276 516 287 507.5 Q298 499 305 487 Q308 494 313.5 500 Q319 506 327 506 L358 506 Q372 506 375 497 Q378 488 378 477 Q378 471 377 462.5 Q376 454 375 446 L350 266 Q349 261 349 255.5 Q349 250 349 245 Q349 240 351.5 233 Q354 226 362 226 Q370 226 379.5 237 Q389 248 397 271 Q405 294 410 328 Q415 362 415 409 Q415 499 380.5 552.5 Q346 606 278 606 Q233 606 200 583.5 Q167 561 145.5 522 Q124 483 113 430.5 Q102 378 102 318 Q102 247 114 201 Q126 155 147.5 127.5 Q169 100 198 89 Q227 78 261 78 Q296 78 334.5 85 Q373 92 406 104 Q410 106 416 106 Q425 106 431 91 L442 51 Z M242 226 Q262 226 278 263.5 Q294 301 294 380 Q294 413 287.5 427 Q281 441 267 441 Q250 441 233.5 403.5 Q217 366 217 292 Q217 251 223 238.5 Q229 226 242 226 Z " />
<glyph glyph-name="copyright" unicode="&#xa9;" horiz-adv-x="379" d="M11 595 Q11 632 25 664.5 Q39 697 63 721 Q87 745 119.5 759 Q152 773 189 773 Q226 773 258.5 759 Q291 745 315.5 721 Q340 697 354 664.5 Q368 632 368 595 Q368 558 354 525.5 Q340 493 315.5 468.5 Q291 444 258.5 430 Q226 416 189 416 Q152 416 119.5 430 Q87 444 63 468.5 Q39 493 25 525.5 Q11 558 11 595 Z M189 449 Q219 449 246 460.5 Q273 472 292.5 491.5 Q312 511 323.5 538 Q335 565 335 595 Q335 625 323.5 651.5 Q312 678 292.5 698 Q273 718 246 729.5 Q219 741 189 741 Q159 741 132.5 729.5 Q106 718 86 698 Q66 678 54.5 651.5 Q43 625 43 595 Q43 565 54.5 538 Q66 511 86 491.5 Q106 472 132.5 460.5 Q159 449 189 449 Z M259 570 Q259 517 238.5 496.5 Q218 476 190 476 Q155 476 135.5 507.5 Q116 539 116 592 Q116 649 134 680 Q152 711 191 711 Q212 711 225 702 Q238 693 245 680 Q252 667 254 654 Q256 641 256 632 L221 632 Q220 647 214 662 Q208 677 191 677 Q171 677 162 654.5 Q153 632 153 594 Q153 556 161.5 533.5 Q170 511 191 511 Q201 511 207.5 516.5 Q214 522 217.5 531 Q221 540 222.5 550.5 Q224 561 224 570 L259 570 Z " />
<glyph glyph-name="registered" unicode="&#xae;" horiz-adv-x="379" d="M11 595 Q11 632 25 664.5 Q39 697 63 721 Q87 745 119.5 759 Q152 773 189 773 Q226 773 258.5 759 Q291 745 315.5 721 Q340 697 354 664.5 Q368 632 368 595 Q368 558 354 525.5 Q340 493 315.5 468.5 Q291 444 258.5 430 Q226 416 189 416 Q152 416 119.5 430 Q87 444 63 468.5 Q39 493 25 525.5 Q11 558 11 595 Z M189 449 Q219 449 246 460.5 Q273 472 292.5 491.5 Q312 511 323.5 538 Q335 565 335 595 Q335 625 323.5 651.5 Q312 678 292.5 698 Q273 718 246 729.5 Q219 741 189 741 Q159 741 132.5 729.5 Q106 718 86 698 Q66 678 54.5 651.5 Q43 625 43 595 Q43 565 54.5 538 Q66 511 86 491.5 Q106 472 132.5 460.5 Q159 449 189 449 Z M139 706 L184 706 Q219 706 232 690.5 Q245 675 245 642 Q245 621 238.5 605 Q232 589 220 582 L250 482 L215 482 L188 572 L171 572 L171 482 L139 482 L139 706 Z M180 609 Q198 609 204.5 616.5 Q211 624 211 641 Q211 655 205 661.5 Q199 668 183 668 L171 668 L171 609 L180 609 Z " />
<glyph glyph-name="trademark" unicode="&#x2122;" horiz-adv-x="320" d="M157 706 L199 706 L229 550 Q229 557 233 575 Q236 591 241.5 621.5 Q247 652 258 706 L300 706 L314 482 L282 482 L274 641 L242 482 L211 482 Q200 536 194 567 Q188 598 185 614 Q181 632 181 639 L172 482 L140 482 L157 706 Z M41 665 L5 665 L5 706 L113 706 L113 665 L76 665 L76 484 L41 484 L41 665 Z " />
<glyph glyph-name="Euro" unicode="&#x20ac;" horiz-adv-x="441" d="M23 293 Q25 301 27 304.5 Q29 308 40 308 L62 308 Q61 315 61 324 Q61 333 61 344 Q61 356 61 367 Q61 378 62 389 L30 389 Q19 389 13 392.5 Q7 396 10 404 L22 453 Q24 461 27.5 464.5 Q31 468 39 468 L69 468 Q80 539 104 586 Q128 633 160 660.5 Q192 688 229 699.5 Q266 711 302 711 Q332 711 362.5 705 Q393 699 407 694 Q428 688 428 677 Q428 672 426 662.5 Q424 653 421 644 L410 612 Q406 601 402 595 Q398 589 390 589 Q377 589 357.5 596.5 Q338 604 308 604 Q287 604 266.5 597 Q246 590 229.5 574.5 Q213 559 201 533 Q189 507 183 468 L326 468 Q352 468 348 454 L335 403 Q333 395 330.5 392 Q328 389 315 389 L179 389 Q178 381 178 371.5 Q178 362 178 351 Q178 340 178 329.5 Q178 319 179 308 L284 308 Q311 308 306 294 L294 243 Q292 235 289.5 232.5 Q287 230 274 230 L187 230 Q190 157 219 126 Q248 95 286 95 Q307 95 322.5 97 Q338 99 350 102 Q362 105 371.5 107 Q381 109 390 109 Q412 109 412 82 L412 50 Q412 36 410 24 Q408 12 396 7 Q379 0 347.5 -4 Q316 -8 278 -8 Q246 -8 212.5 1 Q179 10 150 36 Q121 62 99 108.5 Q77 155 69 230 L31 230 Q20 230 14 233 Q8 236 11 244 L23 293 Z " />
<glyph glyph-name="dollar" unicode="&#x24;" horiz-adv-x="312" d="M14 94 Q14 119 20 126.5 Q26 134 44 134 L151 134 Q173 134 177.5 151 Q182 168 171 189 L62 397 Q30 457 20.5 494.5 Q11 532 11 559 Q11 620 36 646.5 Q61 673 113 676 L113 729 Q113 749 128 749 L177 749 Q185 749 188 746 Q191 743 191 732 L191 676 L242 676 Q257 676 263.5 668.5 Q270 661 270 641 L270 607 Q270 586 263 578 Q256 570 239 570 L147 570 Q123 570 116.5 551 Q110 532 125 505 L230 312 Q249 276 262 250.5 Q275 225 282 204.5 Q289 184 292 166.5 Q295 149 295 131 Q295 73 267 50.5 Q239 28 191 28 L191 -29 Q191 -43 188.5 -47 Q186 -51 178 -51 L127 -51 Q118 -51 115.5 -47.5 Q113 -44 113 -31 L113 28 L45 28 Q26 28 20 35.5 Q14 43 14 68 L14 94 Z " />
<glyph glyph-name="cent" unicode="&#xa2;" horiz-adv-x="208" d="M75 289 Q58 292 47 302.5 Q36 313 29.5 335 Q23 357 20 392 Q17 427 17 480 Q17 534 19 572 Q21 610 27 634 Q33 658 44.5 670.5 Q56 683 74 686 L74 724 Q74 734 76.5 736 Q79 738 87 738 L123 738 Q131 738 133.5 736 Q136 734 136 723 L136 688 L172 688 Q191 688 191 667 L191 614 Q191 600 187 595.5 Q183 591 171 591 L134 591 Q125 591 120 588.5 Q115 586 112.5 575.5 Q110 565 109.5 544.5 Q109 524 109 487 Q109 450 110 429.5 Q111 409 113 399 Q115 389 119.5 386.5 Q124 384 132 384 L171 384 Q182 384 186 379.5 Q190 375 190 364 L190 309 Q190 297 186.5 292.5 Q183 288 172 288 L140 288 L140 256 Q140 244 136 240 Q132 236 124 236 L92 236 Q82 236 78.5 239 Q75 242 75 253 L75 289 Z " />
<glyph glyph-name="sterling" unicode="&#xa3;" horiz-adv-x="375" d="M324 112 Q343 112 350.5 101.5 Q358 91 358 65 L358 44 Q358 19 350.5 9.5 Q343 0 323 0 L98 0 Q80 0 68.5 6.5 Q57 13 51 23 Q45 33 43 46 Q41 59 41 73 Q43 131 51.5 193 Q60 255 70 320 Q73 339 63 339 L28 339 Q17 339 12.5 347 Q8 355 8 378 L8 411 Q8 431 13.5 439.5 Q19 448 32 448 L72 448 Q81 448 82 460 L98 586 Q113 706 191 706 L313 706 Q332 706 339 696.5 Q346 687 346 663 L346 636 Q346 612 340 603 Q334 594 320 594 L231 594 Q220 594 215.5 588.5 Q211 583 209 567 L194 467 Q192 459 193 453.5 Q194 448 203 448 L305 448 Q329 448 329 410 L329 380 Q329 357 322 348 Q315 339 297 339 L194 339 Q186 339 183.5 335 Q181 331 179 315 L157 131 Q155 120 158 116 Q161 112 172 112 L324 112 Z " />
<glyph glyph-name="florin" unicode="&#x192;" horiz-adv-x="308" d="M63 320 Q65 332 63.5 336 Q62 340 57 340 L28 340 Q17 340 13.5 347.5 Q10 355 10 377 L10 418 Q10 445 28 445 L66 445 Q71 445 74 451.5 Q77 458 78 464 L94 595 Q101 648 125 677 Q149 706 189 706 L243 706 Q274 706 283 695.5 Q292 685 292 662 L292 638 Q292 594 266 594 L231 594 Q215 594 210 582 Q205 570 200 546 L189 475 Q185 449 199 449 L237 449 Q256 449 262 441.5 Q268 434 268 409 L268 380 Q268 356 261.5 347.5 Q255 339 236 339 L190 339 Q182 339 179.5 335.5 Q177 332 175 321 L139 39 Q136 13 130 6.5 Q124 0 111 0 L58 0 Q40 0 33.5 7.5 Q27 15 32 50 L63 320 Z " />
<glyph glyph-name="yen" unicode="&#xa5;" horiz-adv-x="479" d="M181 226 L42 226 Q27 226 23.5 234 Q20 242 20 259 L20 279 Q20 297 23.5 304 Q27 311 42 311 L166 311 L145 387 L42 387 Q27 387 23.5 394.5 Q20 402 20 419 L20 439 Q20 456 23.5 464 Q27 472 42 472 L121 472 L64 669 Q60 682 63 694 Q66 706 83 706 L142 706 Q153 706 159 701.5 Q165 697 170 680 L229 434 Q231 426 232 424 Q233 422 236 422 Q239 422 240.5 424 Q242 426 244 434 L304 679 Q309 696 313.5 701 Q318 706 329 706 L391 706 Q408 706 411 694 Q414 682 410 669 L353 472 L437 472 Q452 472 455.5 464 Q459 456 459 439 L459 419 Q459 402 455.5 394.5 Q452 387 437 387 L328 387 L306 311 L437 311 Q452 311 455.5 304 Q459 297 459 279 L459 259 Q459 242 455.5 234 Q452 226 437 226 L293 226 L293 45 Q293 17 286 8.5 Q279 0 258 0 L216 0 Q194 0 187.5 8.5 Q181 17 181 45 L181 226 Z " />
<glyph glyph-name="numbersign" unicode="&#x23;" horiz-adv-x="675" d="M139 208 L19 208 Q-9 208 0 236 L10 267 Q15 281 19.5 287 Q24 293 38 293 L165 293 L203 414 L83 414 Q55 414 63 440 L73 471 Q78 485 83 491.5 Q88 498 102 498 L231 498 L292 690 Q296 703 303.5 706 Q311 709 326 709 L358 709 Q388 709 380 681 L322 498 L445 498 L507 690 Q511 703 518.5 706 Q526 709 541 709 L573 709 Q603 709 595 681 L536 498 L656 498 Q682 498 675 472 L665 440 Q661 426 656 420 Q651 414 637 414 L510 414 L471 293 L592 293 Q620 293 612 267 L602 236 Q597 222 592 215 Q587 208 573 208 L444 208 L384 19 Q380 6 372 3 Q364 0 349 0 L317 0 Q287 0 295 26 L353 208 L230 208 L169 19 Q165 6 157 3 Q149 0 134 0 L103 0 Q72 0 80 26 L139 208 Z M380 293 L419 414 L294 414 L256 293 L380 293 Z " />
<glyph glyph-name="zero" unicode="0" horiz-adv-x="360" d="M180 -10 Q129 -10 97.5 5 Q66 20 48.5 60 Q31 100 25.5 170.5 Q20 241 20 352 Q20 463 25.5 533.5 Q31 604 48.5 644 Q66 684 97.5 698.5 Q129 713 180 713 Q231 713 262.5 698.5 Q294 684 311.5 644 Q329 604 334.5 533.5 Q340 463 340 352 Q340 241 334.5 170.5 Q329 100 311.5 60 Q294 20 262.5 5 Q231 -10 180 -10 Z M180 112 Q194 112 203.5 118 Q213 124 218.5 148 Q224 172 226 220 Q228 268 228 352 Q228 436 226 484.5 Q224 533 218.5 557.5 Q213 582 203.5 588 Q194 594 180 594 Q166 594 156.5 588 Q147 582 141.5 557.5 Q136 533 134 484.5 Q132 436 132 352 Q132 268 134 220 Q136 172 141.5 148 Q147 124 156.5 118 Q166 112 180 112 Z " />
<glyph glyph-name="one" unicode="1" horiz-adv-x="205" d="M57 571 Q57 585 54.5 589 Q52 593 44 593 L37 593 Q22 593 18 600.5 Q14 608 14 634 L14 658 Q14 689 21.5 697.5 Q29 706 57 706 L135 706 Q157 706 163.5 697 Q170 688 170 659 L170 45 Q170 17 163.5 8.5 Q157 0 133 0 L92 0 Q70 0 63.5 8.5 Q57 17 57 45 L57 571 Z " />
<glyph glyph-name="two" unicode="2" horiz-adv-x="295" d="M6 95 Q6 119 11 146 Q16 173 25 191 L134 412 Q145 434 153.5 460.5 Q162 487 162 531 Q162 568 151.5 581 Q141 594 122 594 L61 594 Q48 594 40 595.5 Q32 597 28 601.5 Q24 606 22.5 614.5 Q21 623 21 637 L21 662 Q21 688 28 697 Q35 706 57 706 L159 706 Q191 706 215 694 Q239 682 251 660 Q275 615 275 539 Q275 493 267.5 458 Q260 423 242 386 L117 134 Q106 112 125 112 L251 112 Q270 112 277.5 104 Q285 96 285 72 L285 43 Q285 18 277.5 9 Q270 0 247 0 L41 0 Q20 0 13 9.5 Q6 19 6 45 L6 95 Z " />
<glyph glyph-name="three" unicode="3" horiz-adv-x="290" d="M5 66 Q5 93 12.5 102.5 Q20 112 40 112 L124 112 Q147 112 155.5 132.5 Q164 153 164 208 Q164 248 156.5 272 Q149 296 130 296 L73 296 Q53 296 47 304 Q41 312 41 340 L41 362 Q41 379 46 390 Q51 401 64 412 L130 463 Q150 478 157 494.5 Q164 511 164 539 Q164 569 155 581.5 Q146 594 130 594 L44 594 Q23 594 16 601.5 Q9 609 9 634 L9 659 Q9 687 16 696.5 Q23 706 44 706 L155 706 Q184 706 206 698.5 Q228 691 242.5 672 Q257 653 264.5 620 Q272 587 272 536 Q272 504 267 480 Q262 456 253.5 439 Q245 422 232.5 410 Q220 398 205 389 Q224 374 232.5 366 Q241 358 249 347 Q256 336 261.5 324 Q267 312 270.5 295.5 Q274 279 276 257 Q278 235 278 203 Q278 147 271 108.5 Q264 70 248.5 46 Q233 22 207.5 11 Q182 0 146 0 L40 0 Q19 0 12 7.5 Q5 15 5 43 L5 66 Z " />
<glyph glyph-name="four" unicode="4" horiz-adv-x="353" d="M8 279 Q8 302 25 351 Q42 400 74 484 Q104 562 127 614 Q150 666 162 687 Q169 700 179.5 703 Q190 706 204 706 L263 706 Q298 706 298 660 L298 318 Q298 307 300 302 Q302 297 312 297 L325 297 Q338 297 342.5 289 Q347 281 347 259 L347 220 Q347 186 327 186 L312 186 Q303 186 299.5 181 Q296 176 296 160 L296 42 Q296 16 289 8 Q282 0 262 0 L217 0 Q197 0 190.5 8 Q184 16 184 42 L184 163 Q184 177 180.5 181.5 Q177 186 160 186 L46 186 Q25 186 16.5 195 Q8 204 8 227 L8 279 Z M169 297 Q177 297 180.5 302 Q184 307 184 322 L184 500 Q184 509 179 509 Q174 509 168 490 L115 324 Q111 313 112 305 Q113 297 126 297 L169 297 Z " />
<glyph glyph-name="five" unicode="5" horiz-adv-x="292" d="M9 68 Q9 96 16 104 Q23 112 45 112 L121 112 Q147 112 157 137 Q167 162 167 221 Q167 281 157 306 Q147 331 121 331 L56 331 Q33 331 26 338 Q19 345 19 363 L19 657 Q19 685 26.5 695.5 Q34 706 54 706 L240 706 Q260 706 267.5 696 Q275 686 275 660 L275 637 Q275 612 267.5 603 Q260 594 242 594 L148 594 Q138 594 135 590 Q132 586 132 572 L132 462 Q132 443 146 443 L166 443 Q192 443 214 433 Q236 423 248 406 Q258 392 265 376.5 Q272 361 276 339 Q280 317 282 288 Q284 259 284 218 Q284 101 255 50.5 Q226 0 162 0 L45 0 Q22 0 15.5 8 Q9 16 9 45 L9 68 Z " />
<glyph glyph-name="six" unicode="6" horiz-adv-x="339" d="M155 689 Q160 696 164 701 Q168 706 180 706 L273 706 Q291 706 291 691 Q291 684 283 671 L158 464 Q168 468 184 471.5 Q200 475 217 475 Q242 475 262 468.5 Q282 462 297 443 Q305 433 310.5 417.5 Q316 402 319.5 379 Q323 356 324.5 324 Q326 292 326 248 Q326 186 321 133 Q316 80 302 50 Q288 20 259.5 7.5 Q231 -5 176 -5 Q141 -5 118.5 -2.5 Q96 0 81 6.5 Q66 13 56 23 Q46 33 37 48 Q29 60 24.5 82 Q20 104 17.5 132 Q15 160 14 193 Q13 226 13 260 Q13 314 15 355.5 Q17 397 24.5 433 Q32 469 45.5 502 Q59 535 83 573 L155 689 Z M213 320 Q213 346 202.5 353 Q192 360 168 360 Q148 360 137 352 Q126 344 126 316 L126 161 Q126 131 137.5 121.5 Q149 112 172 112 Q192 112 202.5 121.5 Q213 131 213 159 L213 320 Z " />
<glyph glyph-name="seven" unicode="7" horiz-adv-x="304" d="M175 547 Q178 558 180 567.5 Q182 577 182 582 Q182 590 178.5 592 Q175 594 168 594 L45 594 Q21 594 14 601.5 Q7 609 7 638 L7 662 Q7 689 14 697.5 Q21 706 43 706 L263 706 Q282 706 289 696 Q296 686 296 661 L296 593 Q296 577 293.5 561 Q291 545 289 535 L167 33 Q163 16 157 8 Q151 0 134 0 L70 0 Q57 0 50.5 5.5 Q44 11 44 25 Q44 37 49 51 L175 547 Z " />
<glyph glyph-name="eight" unicode="8" horiz-adv-x="359" d="M81 388 Q52 398 39 432.5 Q26 467 26 536 Q26 582 31.5 615 Q37 648 53 669 Q69 690 99 700 Q129 710 179 710 Q228 710 258.5 700 Q289 690 305.5 669 Q322 648 327.5 615 Q333 582 333 536 Q333 467 320 432.5 Q307 398 278 388 Q312 373 326 334.5 Q340 296 340 217 Q340 159 334.5 117 Q329 75 312 48 Q295 21 263 8 Q231 -5 179 -5 Q126 -5 94.5 8 Q63 21 46.5 48 Q30 75 24.5 117 Q19 159 19 217 Q19 296 33 334.5 Q47 373 81 388 Z M133 472 Q133 447 143.5 438 Q154 429 178 429 Q200 429 211 438.5 Q222 448 222 472 L222 550 Q222 575 211 584.5 Q200 594 178 594 Q155 594 144 584.5 Q133 575 133 552 L133 472 Z M222 280 Q222 304 211.5 312 Q201 320 177 320 Q154 320 144 311 Q134 302 134 279 L134 141 Q134 112 179 112 Q222 112 222 143 L222 280 Z " />
<glyph glyph-name="nine" unicode="9" horiz-adv-x="339" d="M184 17 Q179 10 175 5 Q171 0 159 0 L66 0 Q48 0 48 15 Q48 22 56 35 L181 242 Q171 238 155 234.5 Q139 231 122 231 Q97 231 77 237.5 Q57 244 42 263 Q34 273 28.5 288.5 Q23 304 19.5 327 Q16 350 14.5 382 Q13 414 13 458 Q13 520 18 573 Q23 626 37 656 Q51 686 79.5 698.5 Q108 711 163 711 Q198 711 220.5 708.5 Q243 706 258 699.5 Q273 693 283 683 Q293 673 302 658 Q309 646 314 624 Q319 602 321.5 574 Q324 546 325 513 Q326 480 326 446 Q326 392 324 350.5 Q322 309 314.5 273 Q307 237 293.5 204 Q280 171 256 133 L184 17 Z M126 386 Q126 360 136.5 353 Q147 346 171 346 Q191 346 202 354 Q213 362 213 390 L213 545 Q213 575 201.5 584.5 Q190 594 167 594 Q147 594 136.5 584.5 Q126 575 126 547 L126 386 Z " />
<glyph glyph-name="uni00A0" unicode="&#xa0;" horiz-adv-x="200" d="" />
<glyph glyph-name="fraction" unicode="&#x2044;" horiz-adv-x="108" d="M104 683 Q110 706 124 706 L171 706 Q189 706 182 679 L4 22 Q-2 0 -16 0 L-63 0 Q-81 0 -74 26 L104 683 Z " />
<glyph glyph-name="percent" unicode="&#x25;" horiz-adv-x="587" d="M132 327 Q96 327 72 337.5 Q48 348 33.5 372 Q19 396 12.5 434 Q6 472 6 527 Q6 576 10.5 611.5 Q15 647 28.5 670 Q42 693 67 704 Q92 715 132 715 Q172 715 197 704 Q222 693 235.5 670 Q249 647 253.5 611.5 Q258 576 258 527 Q258 472 252 434 Q246 396 231.5 372 Q217 348 192.5 337.5 Q168 327 132 327 Z M361 690 Q365 701 368.5 704 Q372 707 384 707 L416 707 Q427 707 433.5 703.5 Q440 700 435 686 L222 14 Q219 4 215.5 1 Q212 -2 204 -2 L169 -2 Q154 -2 150.5 3 Q147 8 152 22 L361 690 Z M455 -9 Q419 -9 395 1.5 Q371 12 356 36 Q341 60 335 98 Q329 136 329 191 Q329 240 333.5 275.5 Q338 311 351.5 334 Q365 357 390 368.5 Q415 380 455 380 Q495 380 520 368.5 Q545 357 558.5 334 Q572 311 576.5 275.5 Q581 240 581 191 Q581 136 574.5 98 Q568 60 553.5 36 Q539 12 515 1.5 Q491 -9 455 -9 Z M133 407 Q144 407 150 410 Q156 413 159 425 Q162 437 162.5 460 Q163 483 163 522 Q163 558 162.5 580 Q162 602 159 613.5 Q156 625 150 629 Q144 633 133 633 Q122 633 116 629 Q110 625 107 613.5 Q104 602 103 580 Q102 558 102 522 Q102 483 103 460 Q104 437 107 425 Q110 413 116 410 Q122 407 133 407 Z M456 72 Q467 72 473 75 Q479 78 482 89.5 Q485 101 485.5 124 Q486 147 486 186 Q486 222 485.5 244 Q485 266 482 277.5 Q479 289 473 293 Q467 297 456 297 Q445 297 438.5 293 Q432 289 429 277.5 Q426 266 425 244 Q424 222 424 186 Q424 147 425 124 Q426 101 429 89.5 Q432 78 438.5 75 Q445 72 456 72 Z " />
<glyph glyph-name="perthousand" unicode="&#x2030;" horiz-adv-x="873" d="M741 -9 Q705 -9 680.5 1.5 Q656 12 641.5 36 Q627 60 621 98 Q615 136 615 191 Q615 240 619.5 275.5 Q624 311 637.5 334 Q651 357 676 368.5 Q701 380 741 380 Q781 380 805.5 368.5 Q830 357 843.5 334 Q857 311 862 275.5 Q867 240 867 191 Q867 136 860.5 98 Q854 60 839.5 36 Q825 12 801 1.5 Q777 -9 741 -9 Z M132 327 Q96 327 72 337.5 Q48 348 33.5 372 Q19 396 12.5 434 Q6 472 6 527 Q6 576 10.5 611.5 Q15 647 28.5 670 Q42 693 67 704 Q92 715 132 715 Q172 715 197 704 Q222 693 235.5 670 Q249 647 253.5 611.5 Q258 576 258 527 Q258 472 252 434 Q246 396 231.5 372 Q217 348 192.5 337.5 Q168 327 132 327 Z M361 690 Q365 701 368.5 704 Q372 707 384 707 L416 707 Q427 707 433.5 703.5 Q440 700 435 686 L222 14 Q219 4 215.5 1 Q212 -2 204 -2 L169 -2 Q154 -2 150.5 3 Q147 8 152 22 L361 690 Z M455 -9 Q419 -9 395 1.5 Q371 12 356 36 Q341 60 335 98 Q329 136 329 191 Q329 240 333.5 275.5 Q338 311 351.5 334 Q365 357 390 368.5 Q415 380 455 380 Q495 380 520 368.5 Q545 357 558.5 334 Q572 311 576.5 275.5 Q581 240 581 191 Q581 136 574.5 98 Q568 60 553.5 36 Q539 12 515 1.5 Q491 -9 455 -9 Z M742 72 Q752 72 758 75 Q764 78 767 89.5 Q770 101 770.5 124 Q771 147 771 186 Q771 222 770.5 244 Q770 266 767.5 277.5 Q765 289 759 293 Q753 297 742 297 Q731 297 724.5 293 Q718 289 715 277.5 Q712 266 711 244 Q710 222 710 186 Q710 147 711 124 Q712 101 715 89.5 Q718 78 724.5 75 Q731 72 742 72 Z M133 407 Q144 407 150 410 Q156 413 159 425 Q162 437 162.5 460 Q163 483 163 522 Q163 558 162.5 580 Q162 602 159 613.5 Q156 625 150 629 Q144 633 133 633 Q122 633 116 629 Q110 625 107 613.5 Q104 602 103 580 Q102 558 102 522 Q102 483 103 460 Q104 437 107 425 Q110 413 116 410 Q122 407 133 407 Z M456 72 Q467 72 473 75 Q479 78 482 89.5 Q485 101 485.5 124 Q486 147 486 186 Q486 222 485.5 244 Q485 266 482 277.5 Q479 289 473 293 Q467 297 456 297 Q445 297 438.5 293 Q432 289 429 277.5 Q426 266 425 244 Q424 222 424 186 Q424 147 425 124 Q426 101 429 89.5 Q432 78 438.5 75 Q445 72 456 72 Z " />
<glyph glyph-name="plus" unicode="&#x2b;" horiz-adv-x="455" d="M165 304 L41 304 Q25 304 16 311.5 Q7 319 7 345 L7 384 Q7 409 14 418 Q21 427 40 427 L165 427 L165 549 Q165 565 172 574 Q179 583 205 583 L247 583 Q272 583 280.5 576.5 Q289 570 289 550 L289 427 L415 427 Q434 427 441 418 Q448 409 448 384 L448 345 Q448 319 439 311.5 Q430 304 414 304 L289 304 L289 176 Q289 156 280.5 149.5 Q272 143 247 143 L205 143 Q179 143 172 152 Q165 161 165 177 L165 304 Z " />
<glyph glyph-name="minus" unicode="&#x2212;" horiz-adv-x="455" d="M9 385 Q9 410 16 419 Q23 428 42 428 L413 428 Q432 428 439 419 Q446 410 446 385 L446 344 Q446 318 437 310.5 Q428 303 412 303 L43 303 Q27 303 18 310.5 Q9 318 9 344 L9 385 Z " />
<glyph glyph-name="plusminus" unicode="&#xb1;" horiz-adv-x="455" d="M7 75 Q7 100 14 108.5 Q21 117 40 117 L415 117 Q434 117 441 108.5 Q448 100 448 75 L448 40 Q448 14 439 7 Q430 0 414 0 L41 0 Q25 0 16 7 Q7 14 7 40 L7 75 Z M165 304 L41 304 Q25 304 16 311.5 Q7 319 7 345 L7 384 Q7 409 14 418 Q21 427 40 427 L165 427 L165 549 Q165 565 172 574 Q179 583 205 583 L247 583 Q272 583 280.5 576.5 Q289 570 289 550 L289 427 L415 427 Q434 427 441 418 Q448 409 448 384 L448 345 Q448 319 439 311.5 Q430 304 414 304 L289 304 L289 191 Q289 171 280.5 164.5 Q272 158 247 158 L205 158 Q179 158 172 167 Q165 176 165 192 L165 304 Z " />
<glyph glyph-name="multiply" unicode="&#xd7;" horiz-adv-x="455" d="M46 218 Q29 234 29 245 Q29 254 41 266 L140 365 L42 464 Q30 474 30 485 Q30 497 46 512 L80 546 Q97 563 108 563 Q118 563 128 552 L227 452 L327 552 Q337 563 347 563 Q358 563 375 546 L409 512 Q425 497 425 485 Q425 474 413 464 L314 365 L414 266 Q426 254 426 245 Q426 234 409 218 L375 184 Q359 168 347 168 Q336 168 327 179 L227 279 L128 179 Q119 168 108 168 Q96 168 80 184 L46 218 Z " />
<glyph glyph-name="divide" unicode="&#xf7;" horiz-adv-x="455" d="M7 385 Q7 410 14 419 Q21 428 40 428 L415 428 Q434 428 441 419 Q448 410 448 385 L448 344 Q448 318 439 310.5 Q430 303 414 303 L41 303 Q25 303 16 310.5 Q7 318 7 344 L7 385 Z M159 218 Q159 246 164.5 258 Q170 270 194 270 L258 270 Q282 270 287.5 258 Q293 246 293 218 L293 186 Q293 158 287.5 146 Q282 134 258 134 L194 134 Q170 134 164.5 146 Q159 158 159 186 L159 218 Z M159 545 Q159 573 164.5 584.5 Q170 596 194 596 L258 596 Q282 596 287.5 584.5 Q293 573 293 545 L293 513 Q293 485 287.5 473 Q282 461 258 461 L194 461 Q170 461 164.5 473 Q159 485 159 513 L159 545 Z " />
<glyph glyph-name="equal" unicode="&#x3d;" horiz-adv-x="398" d="M11 349 Q11 375 16 386 Q21 397 43 397 L354 397 Q377 397 382 386 Q387 375 387 349 L387 326 Q387 300 382 289 Q377 278 354 278 L43 278 Q21 278 16 289 Q11 300 11 326 L11 349 Z M11 160 Q11 186 16 197 Q21 208 43 208 L354 208 Q377 208 382 197 Q387 186 387 160 L387 136 Q387 110 382 99.5 Q377 89 354 89 L43 89 Q21 89 16 99.5 Q11 110 11 136 L11 160 Z " />
<glyph glyph-name="approxequal" unicode="&#x2248;" horiz-adv-x="690" d="M0 454 Q0 476 5 485 Q10 494 30 503 Q68 519 116 527.5 Q164 536 214 536 Q263 536 297.5 526 Q332 516 362.5 504.5 Q393 493 426.5 483 Q460 473 507 473 Q549 473 585.5 485.5 Q622 498 660 516 Q671 521 680.5 518 Q690 515 690 497 L690 481 Q690 470 689 463.5 Q688 457 685 452 Q682 447 676 443 Q670 439 660 434 Q624 414 581.5 402.5 Q539 391 500 391 Q453 391 421 401 Q389 411 358 422.5 Q327 434 292 444 Q257 454 206 454 Q155 454 113 444 Q71 434 30 416 Q19 411 9.5 414 Q0 417 0 434 L0 454 Z M0 289 Q0 300 1 307 Q2 314 5 319 Q8 324 14 328.5 Q20 333 30 338 Q66 357 108.5 368.5 Q151 380 189 380 Q236 380 268.5 370 Q301 360 332 348 Q363 336 398 326 Q433 316 484 316 Q535 316 577 326.5 Q619 337 660 355 Q671 360 680.5 357.5 Q690 355 690 338 L690 317 Q690 295 685 286 Q680 277 660 269 Q622 253 574 244 Q526 235 476 235 Q426 235 392 245 Q358 255 327 266.5 Q296 278 263 288 Q230 298 183 298 Q141 298 104.5 285 Q68 272 30 254 Q19 249 9.5 252.5 Q0 256 0 273 L0 289 Z " />
<glyph glyph-name="less" unicode="&#x3c;" horiz-adv-x="363" d="M11 268 Q11 279 12.5 284.5 Q14 290 18 294 Q22 298 27 300.5 Q32 303 40 308 L310 479 Q332 493 341 490 Q350 487 351 467 L352 423 Q353 403 349 392 Q345 381 325 368 L122 240 L325 112 Q343 100 348 88.5 Q353 77 352 56 L351 14 Q350 -7 341 -10 Q332 -13 310 1 L40 172 Q32 177 27 179.5 Q22 182 18 186 Q14 190 12.5 196 Q11 202 11 213 L11 268 Z " />
<glyph glyph-name="greater" unicode="&#x3e;" horiz-adv-x="363" d="M11 56 Q10 77 15 88.5 Q20 100 38 112 L241 240 L38 368 Q18 381 14 392 Q10 403 11 423 L12 467 Q13 487 22 490 Q31 493 53 479 L323 308 Q330 303 335.5 300.5 Q341 298 345 294 Q349 290 350.5 284.5 Q352 279 352 268 L352 213 Q352 202 350.5 196 Q349 190 345 186 Q341 182 335.5 179.5 Q330 177 323 172 L53 1 Q31 -13 22 -10 Q13 -7 12 14 L11 56 Z " />
<glyph glyph-name="uni00AD" unicode="&#xad;" horiz-adv-x="223" d="M11 393 Q11 419 17.5 427.5 Q24 436 44 436 L179 436 Q199 436 206 427.5 Q213 419 213 393 L213 354 Q213 328 206 319.5 Q199 311 179 311 L44 311 Q24 311 17.5 319.5 Q11 328 11 354 L11 393 Z " />
<glyph glyph-name="Delta" unicode="&#x2206;" horiz-adv-x="380" d="M83 665 Q86 688 95.5 697 Q105 706 127 706 L250 706 Q269 706 278.5 696.5 Q288 687 291 664 L374 37 Q376 21 368.5 10.5 Q361 0 347 0 L35 0 Q21 0 12.5 10 Q4 20 6 36 L83 665 Z M229 112 Q237 112 241 118.5 Q245 125 244 132 L196 568 Q195 584 188 584 Q179 584 178 567 L132 130 Q131 123 135 117.5 Q139 112 147 112 L229 112 Z " />
<glyph glyph-name="uni0394" unicode="&#x394;" horiz-adv-x="380" d="M83 665 Q86 688 95.5 697 Q105 706 127 706 L250 706 Q269 706 278.5 696.5 Q288 687 291 664 L374 37 Q376 21 368.5 10.5 Q361 0 347 0 L35 0 Q21 0 12.5 10 Q4 20 6 36 L83 665 Z M229 112 Q237 112 241 118.5 Q245 125 244 132 L196 568 Q195 584 188 584 Q179 584 178 567 L132 130 Q131 123 135 117.5 Q139 112 147 112 L229 112 Z " />
<glyph glyph-name="Omega" unicode="&#x2126;" horiz-adv-x="368" d="M20 80 Q20 106 27.5 115.5 Q35 125 56 125 L70 125 Q80 125 78 131 Q76 137 68 147 Q51 166 41.5 191 Q32 216 27.5 250.5 Q23 285 21.5 330.5 Q20 376 20 437 Q20 499 25.5 550 Q31 601 48 637 Q65 673 97.5 693 Q130 713 183 713 Q236 713 268.5 693 Q301 673 318.5 637 Q336 601 342 550 Q348 499 348 437 Q348 376 346.5 330.5 Q345 285 340 250.5 Q335 216 325.5 191 Q316 166 300 147 Q291 137 289 131 Q287 125 298 125 L311 125 Q331 125 339 115.5 Q347 106 347 80 L347 45 Q347 21 337.5 10.5 Q328 0 307 0 L244 0 Q224 0 216 10 Q208 20 208 44 L208 214 Q208 219 211.5 224.5 Q215 230 217 233 Q226 244 231 296.5 Q236 349 236 437 Q236 484 233 514.5 Q230 545 224 562.5 Q218 580 208 586.5 Q198 593 184 593 Q170 593 160 586.5 Q150 580 144 562.5 Q138 545 135 514.5 Q132 484 132 437 Q132 351 136.5 298 Q141 245 151 234 Q153 232 156 226.5 Q159 221 159 214 L159 43 Q159 19 152 9.5 Q145 0 124 0 L59 0 Q39 0 29.5 10.5 Q20 21 20 45 L20 80 Z " />
<glyph glyph-name="uni03A9" unicode="&#x3a9;" horiz-adv-x="376" d="M24 80 Q24 106 31.5 115.5 Q39 125 60 125 L74 125 Q84 125 82 131 Q80 137 72 147 Q55 166 45.5 191 Q36 216 31.5 250.5 Q27 285 25.5 330.5 Q24 376 24 437 Q24 499 29.5 550 Q35 601 52 637 Q69 673 101.5 693 Q134 713 187 713 Q240 713 272.5 693 Q305 673 322.5 637 Q340 601 346 550 Q352 499 352 437 Q352 376 350.5 330.5 Q349 285 344 250.5 Q339 216 329.5 191 Q320 166 304 147 Q295 137 293 131 Q291 125 302 125 L315 125 Q335 125 343 115.5 Q351 106 351 80 L351 45 Q351 21 341.5 10.5 Q332 0 311 0 L248 0 Q228 0 220 10 Q212 20 212 44 L212 214 Q212 219 215.5 224.5 Q219 230 221 233 Q230 244 235 296.5 Q240 349 240 437 Q240 484 237 514.5 Q234 545 228 562.5 Q222 580 212 586.5 Q202 593 188 593 Q174 593 164 586.5 Q154 580 148 562.5 Q142 545 139 514.5 Q136 484 136 437 Q136 351 140.5 298 Q145 245 155 234 Q157 232 160 226.5 Q163 221 163 214 L163 43 Q163 19 156 9.5 Q149 0 128 0 L63 0 Q43 0 33.5 10.5 Q24 21 24 45 L24 80 Z " />
<glyph glyph-name="mu" unicode="&#xb5;" horiz-adv-x="485" d="M30 662 Q30 688 36.5 697 Q43 706 63 706 L110 706 Q135 706 143 701 Q151 696 157 673 L234 397 Q237 387 243 387 Q248 387 251 397 L328 673 Q334 696 342 701 Q350 706 375 706 L421 706 Q441 706 448 697 Q455 688 455 662 L455 45 Q455 16 448.5 8 Q442 0 420 0 L377 0 Q356 0 349.5 9.5 Q343 19 343 44 L343 344 Q343 355 342 362 Q341 369 336 369 Q330 369 326.5 359 Q323 349 320 335 L276 134 Q271 114 263 108 Q255 102 243 102 Q230 102 222 108 Q214 114 209 134 L165 334 Q161 351 158.5 360 Q156 369 149 369 Q144 369 143 362 Q142 355 142 344 L142 44 Q142 19 135.5 9.5 Q129 0 108 0 L64 0 Q42 0 36 8 Q30 16 30 45 L30 662 Z " />
<glyph glyph-name="uni03BC" unicode="&#x3bc;" horiz-adv-x="485" d="M30 662 Q30 688 36.5 697 Q43 706 63 706 L110 706 Q135 706 143 701 Q151 696 157 673 L234 397 Q237 387 243 387 Q248 387 251 397 L328 673 Q334 696 342 701 Q350 706 375 706 L421 706 Q441 706 448 697 Q455 688 455 662 L455 45 Q455 16 448.5 8 Q442 0 420 0 L377 0 Q356 0 349.5 9.5 Q343 19 343 44 L343 344 Q343 355 342 362 Q341 369 336 369 Q330 369 326.5 359 Q323 349 320 335 L276 134 Q271 114 263 108 Q255 102 243 102 Q230 102 222 108 Q214 114 209 134 L165 334 Q161 351 158.5 360 Q156 369 149 369 Q144 369 143 362 Q142 355 142 344 L142 44 Q142 19 135.5 9.5 Q129 0 108 0 L64 0 Q42 0 36 8 Q30 16 30 45 L30 662 Z " />
<glyph glyph-name="pi" unicode="&#x3c0;" horiz-adv-x="382" d="M30 660 Q30 686 37.5 696 Q45 706 64 706 L318 706 Q337 706 344.5 696 Q352 686 352 660 L352 40 Q352 13 345 6.5 Q338 0 318 0 L273 0 Q253 0 247 8 Q241 16 241 39 L241 572 Q241 585 237.5 589.5 Q234 594 224 594 L158 594 Q147 594 144 589.5 Q141 585 141 572 L141 39 Q141 16 137.5 8 Q134 0 114 0 L64 0 Q44 0 37 6.5 Q30 13 30 40 L30 660 Z " />
<glyph glyph-name="degree" unicode="&#xb0;" horiz-adv-x="399" d="M71 635 Q71 664 82 689.5 Q93 715 112 734.5 Q131 754 157 765 Q183 776 212 776 Q241 776 266.5 765 Q292 754 311 734.5 Q330 715 341 689.5 Q352 664 352 635 Q352 606 341 580.5 Q330 555 311 535.5 Q292 516 266.5 505 Q241 494 212 494 Q183 494 157.5 505 Q132 516 113 535.5 Q94 555 82.5 580.5 Q71 606 71 635 Z M145 635 Q146 607 165 587.5 Q184 568 213 568 Q240 568 259 587.5 Q278 607 278 635 Q278 663 259 682 Q240 701 212 701 Q184 701 164.5 682 Q145 663 145 635 Z " />
</font>
</svg>
